<svg xmlns="http://www.w3.org/2000/svg" xmlns:xlink="http://www.w3.org/1999/xlink" width="398.724" height="450.428" viewBox="0 0 398.724 450.428">
  <defs>
    <linearGradient id="linear-gradient" x1="0.5" y1="1" x2="0.5" gradientUnits="objectBoundingBox">
      <stop offset="0" stop-color="gray" stop-opacity="0.251"/>
      <stop offset="0.54" stop-color="gray" stop-opacity="0.122"/>
      <stop offset="1" stop-color="gray" stop-opacity="0.102"/>
    </linearGradient>
    <linearGradient id="linear-gradient-2" x1="0.5" y1="1" x2="0.5" y2="0" xlink:href="#linear-gradient"/>
    <linearGradient id="linear-gradient-3" x1="-0.001" y1="0.5" x2="1" y2="0.5" xlink:href="#linear-gradient"/>
  </defs>
  <g id="undraw_post_online_dkuk" transform="translate(-0.093 -0.05)">
    <g id="Group_90" data-name="Group 90" transform="translate(282.484 234.06)" opacity="0.2">
      <path id="Path_534" data-name="Path 534" d="M755.4,757.765a13.639,13.639,0,0,1-1.237,1.906q-6.164-4.334-12.538-8.509l.276-.545a12.04,12.04,0,0,1,4.264-4.645,7.123,7.123,0,0,1,7.166-.586,7.2,7.2,0,0,1,3.519,6.257,12.081,12.081,0,0,1-1.448,6.122Z" transform="translate(-741.62 -580.674)" fill="#3f3d56"/>
      <ellipse id="Ellipse_115" data-name="Ellipse 115" cx="9.999" cy="7.636" rx="9.999" ry="7.636" transform="translate(1.32 168.041) rotate(-62.09)" fill="#3f3d56"/>
      <ellipse id="Ellipse_116" data-name="Ellipse 116" cx="9.999" cy="7.636" rx="9.999" ry="7.636" transform="translate(7.041 157.242) rotate(-62.09)" fill="#3f3d56"/>
      <ellipse id="Ellipse_117" data-name="Ellipse 117" cx="9.999" cy="7.636" rx="9.999" ry="7.636" transform="translate(12.762 146.444) rotate(-62.09)" fill="#3f3d56"/>
      <ellipse id="Ellipse_118" data-name="Ellipse 118" cx="9.999" cy="7.636" rx="9.999" ry="7.636" transform="translate(18.477 135.652) rotate(-62.09)" fill="#3f3d56"/>
      <path id="Path_535" data-name="Path 535" d="M786.01,508.116a36.2,36.2,0,0,1-.586-5.032l19.306,6.5-19.253-10.017a36.624,36.624,0,0,1,12.949-25.939L817.08,500.6l-14.485-30a36.577,36.577,0,1,1,34.225,64.445,36.6,36.6,0,0,1,.586,7.853l-29.322-.235,28.9,4.762A36.577,36.577,0,0,1,815.7,574.988a36.577,36.577,0,1,1-50.816-26.912,36.588,36.588,0,0,1,21.171-39.966Z" transform="translate(-742.244 -465.029)" fill="#b35dff"/>
      <path id="Path_536" data-name="Path 536" d="M833.122,615.661a36.442,36.442,0,0,1-17.5,16.321,36.577,36.577,0,1,1-50.816-26.912C763.387,597.276,835.045,612.031,833.122,615.661Z" transform="translate(-742.211 -522.016)" opacity="0.1"/>
    </g>
    <g id="Group_91" data-name="Group 91" transform="translate(0.093 0.766)" opacity="0.2">
      <path id="Path_537" data-name="Path 537" d="M476.491,671.77a25.379,25.379,0,0,0,1.4,4.135q13.553-5.19,27.416-9.97c-.082-.375-.164-.762-.258-1.173a23.182,23.182,0,0,0-5.765-10.685c-3.689-3.8-8.474-5.653-13.078-4.527s-7.993,4.967-9.524,10.022A23.194,23.194,0,0,0,476.491,671.77Z" transform="translate(-349.286 -307.909)" fill="#3f3d56"/>
      <ellipse id="Ellipse_119" data-name="Ellipse 119" cx="14.702" cy="19.241" rx="14.702" ry="19.241" transform="translate(117.082 322.283) rotate(-13.72)" fill="#3f3d56"/>
      <ellipse id="Ellipse_120" data-name="Ellipse 120" cx="14.702" cy="19.241" rx="14.702" ry="19.241" transform="translate(111.498 299.434) rotate(-13.72)" fill="#3f3d56"/>
      <ellipse id="Ellipse_121" data-name="Ellipse 121" cx="14.702" cy="19.241" rx="14.702" ry="19.241" transform="translate(105.921 276.584) rotate(-13.72)" fill="#3f3d56"/>
      <ellipse id="Ellipse_122" data-name="Ellipse 122" cx="14.702" cy="19.241" rx="14.702" ry="19.241" transform="translate(100.345 253.74) rotate(-13.72)" fill="#3f3d56"/>
      <path id="Path_538" data-name="Path 538" d="M394.558,166.788a69.581,69.581,0,0,0,3.407-9.125l-39.028,3,40.676-9.624A70.562,70.562,0,0,0,387.691,96.5l-47.573,41.556,41.2-49.162a70.415,70.415,0,1,0-94.307,104.124,69.984,69.984,0,0,0-4.756,14.38l54.886,13.418-56.182-4.762a70.456,70.456,0,0,0,26.707,61.577,70.415,70.415,0,1,0,107.537-26.244,70.421,70.421,0,0,0-20.649-84.6Z" transform="translate(-260.093 -67.221)" fill="#b35dff"/>
      <path id="Path_539" data-name="Path 539" d="M298.647,357.6a70.086,70.086,0,0,0,24.959,38.706,70.415,70.415,0,1,0,107.537-26.243C437.471,356.2,296.77,349.926,298.647,357.6Z" transform="translate(-276.029 -185.938)" opacity="0.1"/>
    </g>
    <path id="Path_540" data-name="Path 540" d="M664.269,164.676h-1.308V94.15A28.371,28.371,0,0,0,634.366,66H474.189a28.378,28.378,0,0,0-28.6,28.15v29.234h-.381a1.671,1.671,0,0,0-1.683,1.654v14.075a1.671,1.671,0,0,0,1.683,1.654h.411V155.14h-.516a1.665,1.665,0,0,0-1.677,1.654v26.912a1.671,1.671,0,0,0,1.677,1.66h.516v10.556h-.446a1.666,1.666,0,0,0-1.683,1.654v27.176a1.666,1.666,0,0,0,1.683,1.654h.446V472.936a28.371,28.371,0,0,0,28.6,28.149H634.36a28.378,28.378,0,0,0,28.6-28.149V217.421h1.314a1.671,1.671,0,0,0,1.683-1.654V166.33a1.671,1.671,0,0,0-1.683-1.654Z" transform="translate(-335.819 -65.95)" fill="url(#linear-gradient)"/>
    <g id="Group_92" data-name="Group 92" transform="translate(110.778 2.982)" opacity="0.9">
      <rect id="Rectangle_115" data-name="Rectangle 115" width="6.316" height="52.088" rx="2.29" transform="translate(210.154 97.474)" fill="#e5e7eb"/>
      <rect id="Rectangle_116" data-name="Rectangle 116" width="3.548" height="17.148" rx="1.774" transform="translate(0.129 56.668)" fill="#e5e7eb"/>
      <rect id="Rectangle_117" data-name="Rectangle 117" width="4" height="29.844" rx="2" transform="translate(0 88.061)" fill="#e5e7eb"/>
      <rect id="Rectangle_118" data-name="Rectangle 118" width="3.806" height="30.102" rx="1.903" transform="translate(0.065 128.35)" fill="#e5e7eb"/>
      <rect id="Rectangle_119" data-name="Rectangle 119" width="211.426" height="429.696" rx="38.99" transform="translate(2.135)" fill="#fff"/>
      <rect id="Rectangle_120" data-name="Rectangle 120" width="29.528" height="5.994" rx="2.997" transform="translate(87.457 12.831)" fill="#e5e7eb"/>
      <circle id="Ellipse_123" data-name="Ellipse 123" cx="3.401" cy="3.401" r="3.401" transform="translate(121.442 12.427)" fill="#e5e7eb"/>
    </g>
    <path id="Path_541" data-name="Path 541" d="M643.262,90.09h-24.2v2.932a13.828,13.828,0,0,1-13.828,13.823H528.066a13.828,13.828,0,0,1-13.828-13.823V90.09H491.53a16.79,16.79,0,0,0-16.79,16.79V480.612a16.79,16.79,0,0,0,16.79,16.79H643.262a16.79,16.79,0,0,0,16.79-16.79V106.88a16.79,16.79,0,0,0-16.79-16.79Z" transform="translate(-348.768 -75.912)" fill="#ececf3"/>
    <ellipse id="Ellipse_124" data-name="Ellipse 124" cx="33.539" cy="5.671" rx="33.539" ry="5.671" transform="translate(17.673 436.268)" fill="#00bd90"/>
    <path id="Path_542" data-name="Path 542" d="M349.02,792.765a9.819,9.819,0,0,0,3.2-4.826c.411-1.894-.4-4.217-2.234-4.914-2.053-.786-4.246.633-5.906,2.07s-3.571,3.079-5.747,2.774a8.738,8.738,0,0,0,2.7-8.21,3.384,3.384,0,0,0-.751-1.66c-1.138-1.22-3.2-.7-4.568.264-4.334,3.049-5.548,8.943-5.571,14.251-.44-1.918-.07-3.912-.082-5.865s-.545-4.14-2.2-5.2a6.679,6.679,0,0,0-3.366-.786c-1.947-.07-4.105.123-5.448,1.548-1.66,1.759-1.226,4.744.211,6.7s3.63,3.173,5.647,4.522a12.5,12.5,0,0,1,4.029,3.847,3.465,3.465,0,0,1,.3.686h12.216A34.253,34.253,0,0,0,349.02,792.765Z" transform="translate(-283.939 -360.104)" fill="#00bd90"/>
    <g id="Group_93" data-name="Group 93" transform="translate(344.506 396.598)" opacity="0.4">
      <ellipse id="Ellipse_125" data-name="Ellipse 125" cx="19.142" cy="3.237" rx="19.142" ry="3.237" transform="translate(0 10.905)" fill="#00bd90"/>
      <path id="Path_543" data-name="Path 543" d="M881.018,751.032a5.6,5.6,0,0,0,1.83-2.75,2.457,2.457,0,0,0-1.278-2.809c-1.173-.446-2.422.364-3.372,1.173s-2.035,1.759-3.278,1.583a4.979,4.979,0,0,0,1.542-4.692,1.911,1.911,0,0,0-.428-.944c-.651-.7-1.83-.4-2.6.147-2.475,1.759-3.167,5.108-3.185,8.134a15.576,15.576,0,0,1-.041-3.349,3.471,3.471,0,0,0-1.261-2.967,3.824,3.824,0,0,0-1.918-.446,4,4,0,0,0-3.114.88,3.1,3.1,0,0,0,.123,3.824,11.961,11.961,0,0,0,3.225,2.58,7.207,7.207,0,0,1,2.3,2.193,1.989,1.989,0,0,1,.17.393h6.979a19.352,19.352,0,0,0,4.31-2.95Z" transform="translate(-853.965 -742.185)" fill="#00bd90"/>
    </g>
    <g id="Group_94" data-name="Group 94" transform="translate(51.329 360.219)" opacity="0.4">
      <ellipse id="Ellipse_126" data-name="Ellipse 126" cx="19.142" cy="3.237" rx="19.142" ry="3.237" transform="translate(0 10.906)" fill="#00bd90"/>
      <path id="Path_544" data-name="Path 544" d="M381.108,689a5.53,5.53,0,0,0,1.824-2.756,2.446,2.446,0,0,0-1.278-2.8c-1.173-.446-2.422.364-3.366,1.173s-2.041,1.759-3.278,1.583a5.008,5.008,0,0,0,1.542-4.692,1.983,1.983,0,0,0-.428-.95c-.651-.692-1.83-.393-2.61.153-2.475,1.759-3.167,5.1-3.179,8.128a15.2,15.2,0,0,1-.047-3.349,3.36,3.36,0,0,0-1.255-2.932,3.789,3.789,0,0,0-1.924-.452,3.962,3.962,0,0,0-3.108.886,3.1,3.1,0,0,0,.123,3.824,12.14,12.14,0,0,0,3.22,2.58,7.09,7.09,0,0,1,2.3,2.193,2.407,2.407,0,0,1,.176.393h6.973A19.525,19.525,0,0,0,381.108,689Z" transform="translate(-354.05 -680.153)" fill="#00bd90"/>
    </g>
    <rect id="Rectangle_121" data-name="Rectangle 121" width="29.962" height="29.962" transform="translate(140.188 45.207)" fill="#d6d8e0"/>
    <rect id="Rectangle_122" data-name="Rectangle 122" width="62.773" height="5.706" transform="translate(192.259 47.347)" fill="#d6d8e0"/>
    <rect id="Rectangle_123" data-name="Rectangle 123" width="103.432" height="5.706" transform="translate(192.259 57.334)" fill="#d6d8e0"/>
    <rect id="Rectangle_124" data-name="Rectangle 124" width="103.432" height="5.706" transform="translate(192.259 67.321)" fill="#d6d8e0"/>
    <rect id="Rectangle_125" data-name="Rectangle 125" width="29.962" height="29.962" transform="translate(140.417 100.133)" fill="#d6d8e0"/>
    <rect id="Rectangle_126" data-name="Rectangle 126" width="62.773" height="5.706" transform="translate(192.487 102.274)" fill="#d6d8e0"/>
    <rect id="Rectangle_127" data-name="Rectangle 127" width="103.432" height="5.706" transform="translate(192.487 112.261)" fill="#d6d8e0"/>
    <rect id="Rectangle_128" data-name="Rectangle 128" width="103.432" height="5.706" transform="translate(192.487 122.242)" fill="#d6d8e0"/>
    <rect id="Rectangle_129" data-name="Rectangle 129" width="29.962" height="29.962" transform="translate(140.645 155.06)" fill="#d6d8e0"/>
    <rect id="Rectangle_130" data-name="Rectangle 130" width="62.773" height="5.706" transform="translate(192.722 157.195)" fill="#d6d8e0"/>
    <rect id="Rectangle_131" data-name="Rectangle 131" width="103.432" height="5.706" transform="translate(192.722 167.182)" fill="#d6d8e0"/>
    <rect id="Rectangle_132" data-name="Rectangle 132" width="103.432" height="5.706" transform="translate(192.722 177.169)" fill="#d6d8e0"/>
    <rect id="Rectangle_133" data-name="Rectangle 133" width="29.962" height="29.962" transform="translate(140.874 209.981)" fill="#d6d8e0"/>
    <rect id="Rectangle_134" data-name="Rectangle 134" width="62.773" height="5.706" transform="translate(192.951 212.121)" fill="#d6d8e0"/>
    <rect id="Rectangle_135" data-name="Rectangle 135" width="103.432" height="5.706" transform="translate(192.951 222.109)" fill="#d6d8e0"/>
    <rect id="Rectangle_136" data-name="Rectangle 136" width="103.432" height="5.706" transform="translate(192.951 232.096)" fill="#d6d8e0"/>
    <rect id="Rectangle_137" data-name="Rectangle 137" width="29.962" height="29.962" transform="translate(141.109 264.908)" fill="#d6d8e0"/>
    <rect id="Rectangle_138" data-name="Rectangle 138" width="62.773" height="5.706" transform="translate(193.179 267.048)" fill="#d6d8e0"/>
    <rect id="Rectangle_139" data-name="Rectangle 139" width="103.432" height="5.706" transform="translate(193.179 277.035)" fill="#d6d8e0"/>
    <rect id="Rectangle_140" data-name="Rectangle 140" width="103.432" height="5.706" transform="translate(193.179 287.023)" fill="#d6d8e0"/>
    <rect id="Rectangle_141" data-name="Rectangle 141" width="29.962" height="29.962" transform="translate(141.337 319.834)" fill="#d6d8e0"/>
    <rect id="Rectangle_142" data-name="Rectangle 142" width="62.773" height="5.706" transform="translate(193.408 321.975)" fill="#d6d8e0"/>
    <rect id="Rectangle_143" data-name="Rectangle 143" width="103.432" height="5.706" transform="translate(193.408 331.962)" fill="#d6d8e0"/>
    <rect id="Rectangle_144" data-name="Rectangle 144" width="103.432" height="5.706" transform="translate(193.408 341.949)" fill="#d6d8e0"/>
    <rect id="Rectangle_145" data-name="Rectangle 145" width="29.962" height="29.962" transform="translate(141.566 374.761)" fill="#d6d8e0"/>
    <rect id="Rectangle_146" data-name="Rectangle 146" width="62.773" height="5.706" transform="translate(193.637 376.902)" fill="#d6d8e0"/>
    <rect id="Rectangle_147" data-name="Rectangle 147" width="103.432" height="5.706" transform="translate(193.637 386.889)" fill="#d6d8e0"/>
    <rect id="Rectangle_148" data-name="Rectangle 148" width="103.432" height="5.706" transform="translate(193.637 396.876)" fill="#d6d8e0"/>
    <rect id="Rectangle_149" data-name="Rectangle 149" width="255.369" height="63.483" transform="translate(90.944 135.549)" fill="url(#linear-gradient-2)"/>
    <rect id="Rectangle_150" data-name="Rectangle 150" width="253.228" height="60.633" transform="translate(92.369 136.98)" fill="#fff"/>
    <rect id="Rectangle_151" data-name="Rectangle 151" width="29.962" height="29.962" transform="translate(141.232 152.315)" fill="#4285f4"/>
    <g id="Group_95" data-name="Group 95" transform="translate(193.308 154.456)" opacity="0.5">
      <rect id="Rectangle_152" data-name="Rectangle 152" width="62.773" height="5.706" fill="#575757"/>
      <rect id="Rectangle_153" data-name="Rectangle 153" width="103.432" height="5.706" transform="translate(0 9.987)" fill="#575757"/>
      <rect id="Rectangle_154" data-name="Rectangle 154" width="103.432" height="5.706" transform="translate(0 19.974)" fill="#575757"/>
    </g>
    <path id="Path_545" data-name="Path 545" d="M506.858,388.695a5.217,5.217,0,0,0-6.164-.938c-1.49.9-2.311,2.569-3.061,4.146-1.1,2.346-2.7,4.539-3.2,7.073-1.355,6.985-6.914,12.409-9.143,19.159-.8,2.41-1.173,5-2.434,7.2a22.9,22.9,0,0,1-1.994,2.745,77.293,77.293,0,0,0-7.624,11.629c-1.267.246-2.393,1.32-3.472,2.158a11.982,11.982,0,0,1-4.692,2.223,4.427,4.427,0,0,0-1.924.7c-.809.674-.921,1.888-1.578,2.7a4.211,4.211,0,0,1-1.759,1.173c0-.205-.029-.411-.035-.622-.029-1.085-.047-2.176-.047-3.267a12.28,12.28,0,0,0-.035-15.94,24.043,24.043,0,0,1,.674-5.038,2.238,2.238,0,0,0-.475-2.311c-.323-.252-.739-.346-1.085-.586a4.726,4.726,0,0,1-1.173-1.49,6.334,6.334,0,0,0-7.964-2.035c-2.117,1.114-3.4,3.343-5.278,4.856-.962.774-2.07,1.355-3.032,2.135a12.591,12.591,0,0,0-3.923,6.381,36.549,36.549,0,0,0-1.067,7.53,6.8,6.8,0,0,0,.088,2.287,6.039,6.039,0,0,0,.862,1.759,19.717,19.717,0,0,0,7.29,6.949,2.845,2.845,0,0,1,0,.452,3.245,3.245,0,0,1-.129.7l-.34-.094c-1.255-.281-2.61-.246-3.736-.874-1.924-1.079-2.5-3.712-4.346-4.92a3.32,3.32,0,0,0-.493-.264,32.912,32.912,0,0,0-1.888-9.776,12.182,12.182,0,0,1-1.12-4.633,11.391,11.391,0,0,1,1.413-4.193,106.587,106.587,0,0,0,5.278-14.444q1.46-4.615,2.932-9.237a14.562,14.562,0,0,0,2.575-2.451,13.072,13.072,0,0,0,2.985-6.41,9.078,9.078,0,0,0-1.648-6.779,3.918,3.918,0,0,0-2.756-1.689,3.583,3.583,0,0,0-2.575,1.173,11.446,11.446,0,0,0-2.205,3.788c-.962,2.27-1.935,4.627-1.841,7.09.076,2.041.839,4.322-.352,5.982-3.9,5.436-6.844,11.688-9.934,17.634a31.547,31.547,0,0,0-2.006,4.422,24.63,24.63,0,0,0-1.05,7.624,102.23,102.23,0,0,0,1.29,14.45,18.568,18.568,0,0,0,1.707,6.334,26.561,26.561,0,0,0-1.05,7.131,4.064,4.064,0,0,0,.258,1.636,6.755,6.755,0,0,0,1.3,1.63,7.3,7.3,0,0,1,1.759,5.771,16.367,16.367,0,0,0,.522,5.782c1.173,5.208,2.346,10.409,3.284,15.658a10.017,10.017,0,0,1,.223,2.979c-.182,1.419-.968,2.768-.8,4.193a15.869,15.869,0,0,1,.375,2.006,4.955,4.955,0,0,1-.352,1.5c-1.337,3.888-4.932,12.8-4.891,16.919l.938-.223c-.944,5.343-3.155,10.451-4.316,15.775a52.778,52.778,0,0,0-1.091,11.8,43.775,43.775,0,0,1-.094,5.337c-.182,1.578-.586,3.12-.809,4.692a42.5,42.5,0,0,0-.282,6.351,64.86,64.86,0,0,0,.586,9.97c.9,5.63-.674,11.225-1.1,16.907a101.617,101.617,0,0,1-1.349,11.858c-.323,1.654-.727,3.3-.95,4.967-.657,4.961.3,10.075-.733,14.972-.487,2.293-1.355,4.867-.076,6.826.4.616.985,1.1,1.425,1.689a2.147,2.147,0,0,1,.411,2.07c-.252.54-.839.891-.985,1.466-.235.9.71,1.642,1.554,2.029l.24.094a2.176,2.176,0,0,0,.457,1.759,3.731,3.731,0,0,0,1.8.938L433.7,641c2.469.751,5.155,1.49,7.624.88a1.918,1.918,0,0,0,.44.95,3.73,3.73,0,0,0,1.8.938l10.99,3.331c2.827.856,5.929,1.7,8.644.539a4.908,4.908,0,0,0,1.982-1.5,5.231,5.231,0,0,0,.7-4.381,3.571,3.571,0,0,0-1.067-1.959,4.691,4.691,0,0,0-2.557-.839,5.167,5.167,0,0,1-2.24-.586,1.613,1.613,0,0,1-.51-.534q.95-.938,1.841-1.947c-.481-.164-.651-.856-.7-1.361-.7-7.471,2.117-14.773,3.184-22.2a47.5,47.5,0,0,0,.282-11.248c-.129-1.413-.323-2.821-.381-4.24-.276-7.389,3.255-14.5,3.132-21.892-.059-3.46,1.759-6.873,2.645-10.222a37,37,0,0,0,.815-9.149l.141-24.2c0-3.272,0-6.621-1.044-9.712a12.315,12.315,0,0,1-.422-5.313c2.985-1.32,5.812-3.272,9-2.932.85-2.258-.158-9.782-.956-12.063a51.877,51.877,0,0,1-1.759-27.939c.721-3.337-.27-6.885.534-10.21a6.175,6.175,0,0,1,.874-2.193,2.346,2.346,0,0,1,2.012-1.061c0-2.035-.041-4.105-.176-6.169a14.66,14.66,0,0,0,3.266-3.759c1.759-2.932,2.762-6.234,3.976-9.424,2.152-5.63,5.09-10.914,7.559-16.421s2.709-11.53,4.692-17.23a12.949,12.949,0,0,1,6.3-7.26,10.058,10.058,0,0,0,3.272-1.97,5.278,5.278,0,0,0,1.138-2.8,7.4,7.4,0,0,0-1.888-6.24ZM438.244,630.974c.24-.264.475-.528.7-.815-.739-.117-1.642-.657-1.66-1.408a7.782,7.782,0,0,1,.481-2.2,8.8,8.8,0,0,0,.164-3.906c-.164-.909-.469-1.759-.657-2.686a25.094,25.094,0,0,1-.352-3.038,50.248,50.248,0,0,0-2.135-10.767c-1.061-3.4.393-6.832.768-10.368a20.442,20.442,0,0,1,.686-4.985c.346-.938.915-1.759,1.261-2.709.8-2.176.328-4.6-.164-6.867,3.472-6.293,4.621-13.8,5.929-20.883q1.1-5.964,2.205-11.923a11.615,11.615,0,0,1,1.759-5.032,61.824,61.824,0,0,1,1.337,16.033,23.806,23.806,0,0,0,.059,4.692c.27,1.707.979,3.319,1.39,5,.915,3.7.381,7.589.586,11.395.076,1.536.276,3.073.34,4.609.287,6.8-1.988,13.406-4.234,19.828-1.378,3.935-1.683,8.41-2.346,12.532-.622,3.947-1.237,7.9-1.554,11.881-.094,1.214-.17,2.463-.317,3.695a9.664,9.664,0,0,0-1.144-.182,5.165,5.165,0,0,1-2.24-.586,2.609,2.609,0,0,1-.862-1.308Z" transform="translate(-324.915 -197.732)" fill="url(#linear-gradient-3)"/>
    <path id="Path_546" data-name="Path 546" d="M479.309,816.209a4.755,4.755,0,0,1,2.557.833,3.56,3.56,0,0,1,1.067,1.947,5.184,5.184,0,0,1-.7,4.357,4.867,4.867,0,0,1-1.982,1.478c-2.715,1.173-5.818.323-8.644-.528l-11.072-3.337a3.718,3.718,0,0,1-1.8-.932,2.44,2.44,0,0,1-.047-2.844,5.554,5.554,0,0,1,2.346-1.871c3.448-1.677,7.331-2.064,11.143-2.135,1.407-.029,2.792-.334,3.747.751.5.586.416,1.208,1.173,1.707A5.08,5.08,0,0,0,479.309,816.209Z" transform="translate(-341.948 -374.921)" fill="#3f3d56"/>
    <path id="Path_547" data-name="Path 547" d="M443.639,805.823a4.691,4.691,0,0,1,2.557.827,3.618,3.618,0,0,1,1.067,1.947,5.178,5.178,0,0,1-.7,4.357,4.88,4.88,0,0,1-1.982,1.484c-2.715,1.173-5.818.317-8.644-.534l-11.072-3.337a3.671,3.671,0,0,1-1.8-.932,2.44,2.44,0,0,1-.047-2.844,5.519,5.519,0,0,1,2.346-1.871c3.448-1.677,7.325-2.064,11.113-2.135,1.4,0,2.792-.334,3.747.751.5.586.416,1.214,1.173,1.707A5.165,5.165,0,0,0,443.639,805.823Z" transform="translate(-327.196 -370.629)" fill="#3f3d56"/>
    <path id="Path_548" data-name="Path 548" d="M450.934,601.638a136.351,136.351,0,0,0-19.634-.551,3.853,3.853,0,0,0-1.273.2c-1.443.586-1.665,2.475-1.806,4.023-.551,6.257-3.313,12.093-4.692,18.233a52.056,52.056,0,0,0-1.091,11.729,43.1,43.1,0,0,1-.094,5.278c-.182,1.572-.586,3.1-.809,4.692a41.961,41.961,0,0,0-.281,6.31,64.018,64.018,0,0,0,.586,9.893c.9,5.595-.674,11.142-1.1,16.8a100.483,100.483,0,0,1-1.349,11.782c-.323,1.642-.727,3.272-.95,4.932-.657,4.932.3,10.016-.733,14.878-.487,2.275-1.355,4.832-.076,6.779.4.616.985,1.091,1.425,1.677a2.129,2.129,0,0,1,.411,2.058c-.252.534-.839.886-.985,1.454-.235.9.71,1.636,1.554,2.017a16.2,16.2,0,0,0,18.86-4.662c-.739-.117-1.642-.651-1.66-1.4a7.7,7.7,0,0,1,.481-2.187,8.68,8.68,0,0,0,.164-3.882c-.164-.9-.469-1.759-.657-2.668a24.723,24.723,0,0,1-.352-3.014,49.625,49.625,0,0,0-2.135-10.7c-1.061-3.372.393-6.785.768-10.3a20.2,20.2,0,0,1,.686-4.95c.346-.932.915-1.759,1.261-2.692.8-2.164.328-4.563-.164-6.82,3.472-6.257,4.621-13.711,5.929-20.749l2.205-11.846a11.444,11.444,0,0,1,1.759-5,61.045,61.045,0,0,1,1.337,15.934,23.46,23.46,0,0,0,.059,4.627c.27,1.695.979,3.3,1.39,4.967.915,3.671.381,7.536.586,11.318.076,1.525.276,3.05.34,4.58.287,6.75-1.988,13.318-4.234,19.693-1.378,3.912-1.683,8.357-2.346,12.45-.622,3.923-1.237,7.847-1.554,11.805-.287,3.636-.411,7.571-2.674,10.427a19.183,19.183,0,0,0,6.621,3.173,12.28,12.28,0,0,0,8.169-1.578,25.8,25.8,0,0,0,6.451-5.489c-.481-.164-.651-.856-.7-1.355-.7-7.419,2.117-14.661,3.184-22.05a46.917,46.917,0,0,0,.282-11.178c-.129-1.4-.323-2.8-.381-4.2-.276-7.342,3.255-14.409,3.132-21.751-.059-3.437,1.759-6.832,2.645-10.157a36.438,36.438,0,0,0,.815-9.084l.141-24.044c0-3.255,0-6.58-1.044-9.653-1.29-3.689.182-7.935.4-11.835a48.8,48.8,0,0,1-18.872,2.088Z" transform="translate(-324.874 -286.601)" fill="#3f3d56"/>
    <path id="Path_549" data-name="Path 549" d="M510.268,446.634a76.673,76.673,0,0,1,8.979-14.18,23.125,23.125,0,0,0,1.994-2.721c1.261-2.182,1.636-4.756,2.434-7.149,2.228-6.709,7.788-12.1,9.143-19.036.493-2.516,2.1-4.692,3.2-7.037.751-1.572,1.572-3.225,3.061-4.105a5.218,5.218,0,0,1,6.164.938,7.307,7.307,0,0,1,1.883,6.187,5.167,5.167,0,0,1-1.138,2.78,10.19,10.19,0,0,1-3.272,1.965,12.843,12.843,0,0,0-6.3,7.207c-1.959,5.665-2.205,11.659-4.692,17.118s-5.407,10.709-7.559,16.3c-1.214,3.173-2.193,6.451-3.976,9.383s-4.586,5.389-7.952,5.829a19.972,19.972,0,0,0-.985-6.24C510.532,451.542,509.2,448.792,510.268,446.634Z" transform="translate(-363.295 -200.674)" fill="#a0616a"/>
    <path id="Path_550" data-name="Path 550" d="M440.02,449.274a32.518,32.518,0,0,0-1.9-12.186,12.066,12.066,0,0,1-1.12-4.6,11.251,11.251,0,0,1,1.413-4.164,105.443,105.443,0,0,0,5.278-14.356l2.932-9.172a14.663,14.663,0,0,0,2.575-2.434,12.984,12.984,0,0,0,2.985-6.369,8.985,8.985,0,0,0-1.648-6.738,3.894,3.894,0,0,0-2.756-1.671,3.548,3.548,0,0,0-2.575,1.173A11.341,11.341,0,0,0,443,392.518c-.962,2.252-1.935,4.6-1.841,7.037.076,2.029.839,4.293-.352,5.941-3.9,5.4-6.844,11.612-9.934,17.517a31.2,31.2,0,0,0-2.006,4.392,24.35,24.35,0,0,0-1.05,7.589,100.922,100.922,0,0,0,1.29,14.356c.41,2.979.962,6.228,3.22,8.21A48,48,0,0,1,440.02,449.274Z" transform="translate(-329.36 -198.94)" fill="#a0616a"/>
    <circle id="Ellipse_127" data-name="Ellipse 127" cx="12.169" cy="12.169" r="12.169" transform="translate(113.417 228.29)" fill="#a0616a"/>
    <path id="Path_551" data-name="Path 551" d="M460.084,492.275a16.234,16.234,0,0,1-2.621,6.07c-.7,1.173-1.578,2.422-2.932,2.551a58.646,58.646,0,0,0,11.049,4.445,12.565,12.565,0,0,0,4.041.651,9.871,9.871,0,0,0,3.36-.862,16.684,16.684,0,0,0,9.465-11.143,21.962,21.962,0,0,1-4.516-.346,3.332,3.332,0,0,1-2.217-1.085,3.572,3.572,0,0,1-.457-1.965q-.088-3.044,0-6.087a24.042,24.042,0,0,0-8.844,1.085c-1.173.381-2.346.844-3.548,1.144-.739.182-2.774,0-3.319.428C458.717,487.813,460.3,490.78,460.084,492.275Z" transform="translate(-340.41 -239.003)" fill="#a0616a"/>
    <path id="Path_552" data-name="Path 552" d="M455.777,498.113a7.653,7.653,0,0,0-5.818-6.791,13.455,13.455,0,0,1-3.736-.868c-1.924-1.073-2.5-3.689-4.346-4.891s-4.469-.534-6.076.991a13.089,13.089,0,0,0-3.079,5.794,29.175,29.175,0,0,0-1.578,8.885,4.036,4.036,0,0,0,.258,1.63,6.845,6.845,0,0,0,1.3,1.624,7.2,7.2,0,0,1,1.759,5.724,16.209,16.209,0,0,0,.522,5.753c1.173,5.167,2.346,10.339,3.284,15.553a9.9,9.9,0,0,1,.223,2.932c-.182,1.407-.968,2.75-.8,4.158a15.769,15.769,0,0,1,.375,2,4.851,4.851,0,0,1-.352,1.484c-1.337,3.87-4.932,12.726-4.891,16.813,6.246-1.6,15.453-1.959,21.9-1.982a46.015,46.015,0,0,1,5.319.235c4.24.452,8.58,1.689,12.691.545,3.812-1.061,7.2-4.105,11.142-3.718.85-2.246-.158-9.723-.956-11.987a51.22,51.22,0,0,1-1.759-27.757c.721-3.319-.27-6.838.534-10.14a6.075,6.075,0,0,1,.874-2.182,2.346,2.346,0,0,1,2.012-1.056,74.707,74.707,0,0,0-1.466-15.793c-.393-1.847-1.208-4.029-3.067-4.346-1.677-.281-3.091,1.132-4.434,2.176a12.115,12.115,0,0,1-4.692,2.205,4.416,4.416,0,0,0-1.924.7c-.809.669-.921,1.877-1.578,2.692-1.173,1.46-3.794,1.331-4.627,3.014a10.562,10.562,0,0,0-.446,1.542,5.641,5.641,0,0,1-1.929,2.492A10.884,10.884,0,0,1,455.777,498.113Z" transform="translate(-330.737 -237.445)" fill="#ff4545"/>
    <path id="Path_553" data-name="Path 553" d="M473.968,448.922a2.225,2.225,0,0,0-.475-2.3c-.323-.252-.739-.346-1.085-.586a4.691,4.691,0,0,1-1.173-1.484,6.369,6.369,0,0,0-7.982-2.012c-2.117,1.108-3.4,3.325-5.278,4.827-.962.774-2.07,1.349-3.032,2.117a12.515,12.515,0,0,0-3.923,6.345,36.112,36.112,0,0,0-1.061,7.489,6.727,6.727,0,0,0,.088,2.275,5.976,5.976,0,0,0,.862,1.73,19.512,19.512,0,0,0,7.682,7.108,11.915,11.915,0,0,0,10.239.182,1.824,1.824,0,0,0,.786-.633,2.2,2.2,0,0,0,.117-1.355,9.3,9.3,0,0,1,1.026-5.184c.586-1.173,1.46-2.182,1.935-3.4a12.081,12.081,0,0,0,.551-4.211C473.294,456.153,473.042,452.476,473.968,448.922Z" transform="translate(-338.495 -221.4)" fill="#2d293d"/>
    <rect id="Rectangle_155" data-name="Rectangle 155" width="29.962" height="29.962" transform="translate(141.109 152.673)" fill="#4285f4"/>
    <path id="Path_554" data-name="Path 554" d="M526.96,364.681a3.935,3.935,0,0,1-2.029,1.841,5.036,5.036,0,0,1-1.613.3,4.551,4.551,0,0,1-1.759-.217,4.04,4.04,0,0,1-1.859-1.484,9.381,9.381,0,0,1-1.079-2.158,2.392,2.392,0,0,1-.217-1.22,1.759,1.759,0,0,0,1.173-.663,1.484,1.484,0,0,0,.029-1.173c-.035-.117-.07-.229-.111-.334-.088-.258-.393-.745-.182-.962s.7-.211.9-.3a8.466,8.466,0,0,1,1.824-.815,4.433,4.433,0,0,1,1.73.111.587.587,0,0,1,.217.082.5.5,0,0,1,.158.235c.164.4.258.839.387,1.249a2.575,2.575,0,0,0,.645,1.144,3.238,3.238,0,0,0,.9.54l.786.358a1.119,1.119,0,0,1,.37.24.973.973,0,0,1,.176.481A4.5,4.5,0,0,1,526.96,364.681Z" transform="translate(-366.821 -186.485)" fill="#a0616a"/>
    <path id="Path_555" data-name="Path 555" d="M525.112,359.21a4.076,4.076,0,0,1-4.92.733c-.035-.117-.07-.229-.111-.334-.088-.258-.393-.745-.182-.962s.7-.211.9-.3a8.461,8.461,0,0,1,1.824-.815,4.435,4.435,0,0,1,1.73.111.588.588,0,0,1,.217.082.505.505,0,0,1,.158.235C524.889,358.377,524.983,358.8,525.112,359.21Z" transform="translate(-367.413 -186.498)" opacity="0.1"/>
    <circle id="Ellipse_128" data-name="Ellipse 128" cx="4.07" cy="4.07" r="4.07" transform="translate(150.697 165.645)" fill="#a0616a"/>
    <path id="Path_556" data-name="Path 556" d="M530.18,371.518H511.026c-.586-1.308-1.114-2.621-1.707-3.929h0a2.727,2.727,0,0,1,.346-.88.956.956,0,0,1,.786-.44c.17,0,.364.064.487-.059s.082-.223.17-.3a.716.716,0,0,1,.463-.07,1.062,1.062,0,0,0,.9-.452,1.442,1.442,0,0,1,.229-.3,1.307,1.307,0,0,1,.493-.129c.475-.106.756-.586,1.114-.885a.669.669,0,0,1,.7-.194.435.435,0,0,1,.147.123,1.325,1.325,0,0,1,.194.487,4.352,4.352,0,0,0,1.531,2.469,3.472,3.472,0,0,0,5.243-1.308,6.83,6.83,0,0,0,.481-2.223v-.1a1.677,1.677,0,0,1,1.4.276,7.874,7.874,0,0,0,1.243.78c.522.205,1.173.205,1.531.586.152.152.258.364.452.457a1.349,1.349,0,0,0,.375.088,2.223,2.223,0,0,1,1.472,1.29,10.045,10.045,0,0,1,.821,2.967Z" transform="translate(-363.068 -188.889)" fill="#f86d70"/>
    <path id="Path_557" data-name="Path 557" d="M516.838,343.517a3.078,3.078,0,0,0-.71.821,4.04,4.04,0,0,1-1.419,1.4,1.76,1.76,0,0,0-.651.4,1.086,1.086,0,0,0-.17.457,8.578,8.578,0,0,0-.182,1.73,1.846,1.846,0,0,0,.141.856c.117.246.34.457.381.727a2.126,2.126,0,0,1-.07.633.551.551,0,0,0,.217.586,1.493,1.493,0,0,0,.328.076c.586.129.786.821.874,1.39.2,0,.287-.24.334-.428l.586-2.727c.07-.293.176-.639.475-.739a1.484,1.484,0,0,1,.622,0c.809.07,1.49-.557,2.281-.733a3.109,3.109,0,0,1,.774-.047c.622,0,1.349.287,1.484.868a.292.292,0,0,0,.123.258.493.493,0,0,0,.276,0c.393-.041.628.4.745.768l.411,1.331c.064.2.17.44.387.463a.411.411,0,0,0,.4-.358,1.625,1.625,0,0,0-.082-.586,6.347,6.347,0,0,1,.287-2.633,2.885,2.885,0,0,0-.4-2.551c-.223-.24-.516-.422-.721-.68s-.3-.534-.5-.774a5.119,5.119,0,0,0-2.844-1.243,5.829,5.829,0,0,0-3.384.733Z" transform="translate(-364.88 -180.405)" fill="#3f3d56"/>
    <g id="Group_96" data-name="Group 96" transform="translate(148.827 166.32)" opacity="0.1">
      <path id="Path_558" data-name="Path 558" d="M524.425,354.16c-.217,0-.323-.264-.387-.463l-.411-1.331c-.117-.364-.352-.809-.745-.774a.493.493,0,0,1-.276,0c-.088-.047-.1-.158-.123-.258-.135-.586-.862-.839-1.484-.868a2.857,2.857,0,0,0-.774.053c-.792.17-1.472.8-2.281.727a1.712,1.712,0,0,0-.622,0c-.3.106-.4.446-.475.745-.205.909-.4,1.818-.586,2.721-.047.188-.135.416-.334.428-.088-.586-.287-1.261-.874-1.39a1.222,1.222,0,0,1-.328-.076.369.369,0,0,1-.17-.194,1.906,1.906,0,0,1-.047.252.551.551,0,0,0,.217.586,1.493,1.493,0,0,0,.328.076c.586.129.786.821.874,1.39.2,0,.287-.24.334-.428.205-.909.4-1.818.586-2.727.07-.293.176-.639.475-.739a1.484,1.484,0,0,1,.622,0c.809.07,1.49-.557,2.281-.733a3.105,3.105,0,0,1,.774-.047c.622,0,1.349.287,1.484.868a.292.292,0,0,0,.123.258.492.492,0,0,0,.276,0c.393-.041.628.4.745.768l.411,1.331c.065.2.17.44.387.463a.411.411,0,0,0,.4-.358,1.174,1.174,0,0,0-.059-.469A.364.364,0,0,1,524.425,354.16Z" transform="translate(-514.034 -349.908)"/>
      <path id="Path_559" data-name="Path 559" d="M514.232,353.005c-.041-.27-.264-.481-.381-.727a1.49,1.49,0,0,1-.135-.528v.293a1.847,1.847,0,0,0,.141.856c.094.2.258.375.34.586A1.307,1.307,0,0,0,514.232,353.005Z" transform="translate(-513.711 -350.442)"/>
      <path id="Path_560" data-name="Path 560" d="M532.234,350.2a7.626,7.626,0,0,0-.334,2.346,14.272,14.272,0,0,1,.334-1.712,4.489,4.489,0,0,0,.1-1.314A5.294,5.294,0,0,1,532.234,350.2Z" transform="translate(-521.233 -349.52)"/>
    </g>
    <path id="Path_561" data-name="Path 561" d="M511.618,374.211H507.05a14.367,14.367,0,0,1,1.073-3.566.816.816,0,0,1,.194-.311.281.281,0,0,1,.064-.053c.135-.106.323-.147.469-.246s.164-.205.3-.246a4.051,4.051,0,0,1,1.49.246,1.488,1.488,0,0,1,.393.1,1.325,1.325,0,0,1,.622.762A7.2,7.2,0,0,1,511.618,374.211Z" transform="translate(-362.129 -191.582)" fill="#f86d70"/>
  </g>
</svg>
