<svg xmlns="http://www.w3.org/2000/svg" width="699.7" height="537.493" viewBox="0 0 699.7 537.493">
  <g id="Object" transform="translate(0 -0.05)">
    <path id="Path_442" data-name="Path 442" d="M755.253,138.361a143.17,143.17,0,0,0-27.759-37.387L342.436,97.766,659.468,60.124a208.912,208.912,0,0,0-64.323-10.787C564.625,28.5,525.4,16,482.612,16c-38.391,0-73.89,10.087-102.831,27.2a206.506,206.506,0,0,0-82.422-16.787c-85.555,0-156.844,50.094-172.838,116.528Z" transform="translate(-69.089 -15.95)" fill="#4285f4" opacity="0.1"/>
    <path id="Path_443" data-name="Path 443" d="M734.7,271.253a121.983,121.983,0,0,0-12-52.583L55.347,277.891a129.747,129.747,0,0,0-15.635,33.381l206.659,26.044L35,356.3c6.359,75.208,82.62,134.59,175.779,134.59,46.892,0,89.5-15.047,121.073-39.586,31.672,25,74.688,40.378,122.088,40.378,70.323,0,131.023-33.852,159.29-82.794,56.707-15.22,100.757-53.425,115.834-101.221L467.718,273.4H734.7Z" transform="translate(-35 -93.126)" fill="#4285f4" opacity="0.1"/>
    <ellipse id="Ellipse_105" data-name="Ellipse 105" cx="179.557" cy="8.012" rx="179.557" ry="8.012" transform="translate(130.033 521.518)" fill="#4285f4" opacity="0.1"/>
    <path id="Path_444" data-name="Path 444" d="M619.031,795.447v4.842H475.84v-3.932a47.059,47.059,0,0,0,3.238-86.918h138.98a47.059,47.059,0,0,0,.972,86.007Z" transform="translate(-202.87 -280.01)" fill="#c8cad7"/>
    <path id="Path_445" data-name="Path 445" d="M620.054,709.44a47.128,47.128,0,0,0-26.007,31.2H507.087a47.14,47.14,0,0,0-26.007-31.2Z" transform="translate(-204.866 -280.01)" opacity="0.1"/>
    <path id="Path_446" data-name="Path 446" d="M211,669.6v27.183c0,15.009,10.985,27.177,24.539,27.177H656.857c13.554,0,24.539-12.167,24.539-27.177V669.6Z" transform="translate(-102.02 -264.839)" fill="#c8cad7"/>
    <path id="Path_447" data-name="Path 447" d="M619.031,845.282v4.842H475.84v-3.932a47.056,47.056,0,0,0,11.04-5.882H610.25A47.3,47.3,0,0,0,619.031,845.282Z" transform="translate(-202.87 -329.844)" opacity="0.1"/>
    <rect id="Rectangle_97" data-name="Rectangle 97" width="237.83" height="14.347" rx="7.173" transform="translate(225.65 511.976)" fill="#c8cad7"/>
    <path id="Path_448" data-name="Path 448" d="M681.4,173.5A24.533,24.533,0,0,0,656.857,149h-421.3A24.533,24.533,0,0,0,211,173.5V476.645H681.4Z" transform="translate(-102.02 -66.596)" fill="#474157"/>
    <path id="Path_508" data-name="Path 508" d="M231.76,196.5V465.1H535.3c6.057,0,34.736.162,44.775,0,.053-3.455,0-10.133,0-11.647V202.321l-1.63-1.582-4.36-4.239Z" transform="translate(-13.501 -74.684)" fill="#fff"/>
    <path id="Path_449" data-name="Path 449" d="M676.5,188.247v32.5c0,.4-1.271.783-3.536,1.066a73.3,73.3,0,0,1-8.544.441H243.841a73.3,73.3,0,0,1-8.544-.441c-2.266-.283-3.538-.666-3.536-1.066v-32.5c0-.833,5.409-1.507,12.081-1.507H664.385a73.484,73.484,0,0,1,8.562.44C675.22,187.463,676.5,187.847,676.5,188.247Z" transform="translate(-109.926 -80.967)" fill="#4c4c78"/>
    <circle id="Ellipse_106" data-name="Ellipse 106" cx="5.666" cy="5.666" r="5.666" transform="translate(338.518 88.404)" fill="#fff"/>
    <circle id="Ellipse_107" data-name="Ellipse 107" cx="13.969" cy="13.969" r="13.969" transform="translate(330.215 419.108)" fill="#fff"/>
    <path id="Path_450" data-name="Path 450" d="M325.737,196.5V475.1h-81.9a12.074,12.074,0,0,1-12.081-12.081V202.537l.44-1.641,1.176-4.4Z" transform="translate(-109.926 -84.684)" fill="#fff"/>
    <path id="Path_451" data-name="Path 451" d="M301.244,187.65v25.078H196.76V189.291l.44-1.641Z" transform="translate(-74.926 -71.437)" fill="#4c4c78"/>
    <path id="Path_452" data-name="Path 452" d="M676.5,198.824H231.76a12.074,12.074,0,0,1,12.081-12.074H664.385A12.074,12.074,0,0,1,676.5,198.824Z" transform="translate(-109.926 -80.971)" fill="#c8cad7"/>
    <circle id="Ellipse_108" data-name="Ellipse 108" cx="3.022" cy="3.022" r="3.022" transform="translate(130.893 108.794)" fill="#ededf4"/>
    <circle id="Ellipse_109" data-name="Ellipse 109" cx="3.022" cy="3.022" r="3.022" transform="translate(139.952 108.794)" fill="#ededf4"/>
    <circle id="Ellipse_110" data-name="Ellipse 110" cx="3.022" cy="3.022" r="3.022" transform="translate(149.011 108.794)" fill="#ededf4"/>
    <rect id="Rectangle_98" data-name="Rectangle 98" width="62.744" height="5.777" transform="translate(137.451 127.253)" fill="#4285f4"/>
    <rect id="Rectangle_99" data-name="Rectangle 99" width="62.744" height="5.777" transform="translate(137.451 155.427)" fill="#919191" opacity="0.5"/>
    <rect id="Rectangle_100" data-name="Rectangle 100" width="62.744" height="5.777" transform="translate(137.451 175.346)" fill="#919191" opacity="0.5"/>
    <rect id="Rectangle_101" data-name="Rectangle 101" width="62.744" height="5.777" transform="translate(137.451 195.266)" fill="#919191" opacity="0.5"/>
    <rect id="Rectangle_102" data-name="Rectangle 102" width="62.744" height="5.777" transform="translate(137.451 215.18)" fill="#919191" opacity="0.5"/>
    <rect id="Rectangle_103" data-name="Rectangle 103" width="62.744" height="5.777" transform="translate(137.451 235.1)" fill="#919191" opacity="0.5"/>
    <rect id="Rectangle_104" data-name="Rectangle 104" width="62.744" height="5.777" transform="translate(137.451 255.019)" fill="#919191" opacity="0.5"/>
    <rect id="Rectangle_105" data-name="Rectangle 105" width="62.744" height="5.777" transform="translate(137.451 274.933)" fill="#919191" opacity="0.5"/>
    <rect id="Rectangle_106" data-name="Rectangle 106" width="278.029" height="0.929" transform="translate(267.18 148.498)" fill="#dce0ed" opacity="0.5"/>
    <rect id="Rectangle_107" data-name="Rectangle 107" width="278.029" height="0.929" transform="translate(267.18 170.065)" fill="#dce0ed" opacity="0.5"/>
    <rect id="Rectangle_108" data-name="Rectangle 108" width="278.029" height="0.929" transform="translate(267.18 191.638)" fill="#dce0ed" opacity="0.5"/>
    <rect id="Rectangle_109" data-name="Rectangle 109" width="278.029" height="0.929" transform="translate(267.18 213.205)" fill="#dce0ed" opacity="0.5"/>
    <rect id="Rectangle_110" data-name="Rectangle 110" width="278.029" height="0.929" transform="translate(267.18 234.771)" fill="#dce0ed" opacity="0.5"/>
    <path id="Path_453" data-name="Path 453" d="M709.315,335.071H430.94V292.655l25.53,12.582,26.421,3.579,23.183-6.991,27.969-21.691,14.068-8.124,10.285-1.981,9.839.526,16.186,7.994,21.994,14.013,17.263,2.223,13.691-4.718L666.38,266.3l14.811-5.282,15.5,2.4,12.626,7.288Z" transform="translate(-164.101 -99.376)" fill="#4285f4" opacity="0.5"/>
    <path id="Path_454" data-name="Path 454" d="M514.461,324.7c-25.065,0-48.236-15.331-48.521-15.53l.687-1.028c.359.242,36.013,23.833,66.31,12.013,11.059-4.3,18.91-11.009,26.539-17.486,7.944-6.768,15.449-13.164,25.672-15.938a38.406,38.406,0,0,1,34.292,7.7c8.322,6.842,24.9,17.833,42.422,14.545,8.929-1.672,16.458-8.2,24.428-15.1,15.257-13.251,31.084-26.929,58.385-7.288l-.724,1c-26.533-19.065-41.957-5.7-56.868,7.22-8.1,7.022-15.753,13.622-25.01,15.387-18.019,3.375-34.948-7.827-43.437-14.805a37.179,37.179,0,0,0-33.177-7.461c-9.963,2.7-17.338,9-25.2,15.678-7.684,6.545-15.635,13.319-26.873,17.7a51.939,51.939,0,0,1-18.929,3.387Z" transform="translate(-199.101 -115.243)" fill="#4285f4"/>
    <circle id="Ellipse_111" data-name="Ellipse 111" cx="6.892" cy="6.892" r="6.892" transform="translate(394.073 163.637)" fill="#4285f4"/>
    <path id="Path_476" data-name="Path 476" d="M378.59,638.988s7.369-2.44,7.907,3.22C386.5,642.208,385.1,638.326,378.59,638.988Z" transform="translate(-165.838 -252.983)" opacity="0.1"/>
    <g id="Group_81" data-name="Group 81" transform="translate(291.75 284.017)" opacity="0.5">
      <rect id="Rectangle_111" data-name="Rectangle 111" width="40.867" height="8.669" fill="#dce0ed"/>
      <rect id="Rectangle_112" data-name="Rectangle 112" width="40.867" height="8.669" transform="translate(93.84)" fill="#dce0ed"/>
      <rect id="Rectangle_113" data-name="Rectangle 113" width="40.867" height="8.669" transform="translate(187.681)" fill="#dce0ed"/>
    </g>
    <ellipse id="Ellipse_112" data-name="Ellipse 112" cx="16.675" cy="2.817" rx="16.675" ry="2.817" transform="translate(573.258 493.363)" fill="#4285f4" opacity="0.1"/>
    <ellipse id="Ellipse_113" data-name="Ellipse 113" cx="16.675" cy="2.817" rx="16.675" ry="2.817" transform="translate(54.669 528.936)" fill="#4285f4" opacity="0.1"/>
    <ellipse id="Ellipse_114" data-name="Ellipse 114" cx="24.898" cy="4.211" rx="24.898" ry="4.211" transform="translate(528.54 522.162)" fill="#00bd90"/>
    <path id="Path_491" data-name="Path 491" d="M931.25,847.832a7.208,7.208,0,0,0,2.371-3.585,3.18,3.18,0,0,0-1.653-3.647c-1.523-.582-3.152.471-4.39,1.542s-2.644,2.279-4.26,2.056a6.5,6.5,0,0,0,2.006-6.074,2.526,2.526,0,0,0-.557-1.239c-.848-.9-2.378-.52-3.393.192-3.22,2.266-4.118,6.638-4.136,10.576a19.883,19.883,0,0,1-.056-4.334c-.006-1.437-.409-3.1-1.635-3.858a4.953,4.953,0,0,0-2.477-.582c-1.449-.056-3.065.087-4.05,1.146-1.238,1.319-.91,3.523.155,4.954a16.12,16.12,0,0,0,4.192,3.356,9.37,9.37,0,0,1,3,2.854,2.974,2.974,0,0,1,.217.514h9.078A25.458,25.458,0,0,0,931.25,847.832Z" transform="translate(-367.521 -328.339)" fill="#00bd90"/>
    <path id="Path_492" data-name="Path 492" d="M145.691,807.19s3.406,4.452-1.567,11.146-9.071,12.384-7.43,16.576c0,0,7.5-12.477,13.622-12.65S152.409,814.695,145.691,807.19Z" transform="translate(-73.585 -317.232)" fill="#505050"/>
    <path id="Path_493" data-name="Path 493" d="M145.814,807.19a5.575,5.575,0,0,1,.7,1.4c5.957,7,9.127,13.53,3.4,13.691-5.331.155-11.728,9.69-13.263,12.1a5.716,5.716,0,0,0,.18.551s7.5-12.477,13.622-12.65S152.533,814.695,145.814,807.19Z" transform="translate(-73.708 -317.232)" opacity="0.1"/>
    <path id="Path_494" data-name="Path 494" d="M161.18,815.726c0,1.567-.173,2.836-.39,2.836s-.39-1.238-.39-2.836.217-.83.433-.83S161.18,814.16,161.18,815.726Z" transform="translate(-82.752 -320.097)" fill="#ffd037"/>
    <path id="Path_495" data-name="Path 495" d="M163.521,818.708c-1.375.749-2.576,1.2-2.675,1.009s.923-.954,2.3-1.7.836-.2.935,0S164.9,817.959,163.521,818.708Z" transform="translate(-82.919 -321.208)" fill="#ffd037"/>
    <path id="Path_496" data-name="Path 496" d="M117.739,807.19s-3.406,4.452,1.567,11.146,9.071,12.384,7.43,16.576c0,0-7.5-12.477-13.622-12.65S111.021,814.695,117.739,807.19Z" transform="translate(-63.596 -317.232)" fill="#505050"/>
    <path id="Path_497" data-name="Path 497" d="M117.731,807.19a5.575,5.575,0,0,0-.7,1.4c-5.957,7-9.127,13.53-3.4,13.691,5.331.155,11.728,9.69,13.263,12.1a4.432,4.432,0,0,1-.186.551s-7.5-12.477-13.622-12.65S111.012,814.695,117.731,807.19Z" transform="translate(-63.588 -317.232)" opacity="0.1"/>
    <path id="Path_498" data-name="Path 498" d="M112.22,815.726c0,1.567.18,2.836.4,2.836s.39-1.238.39-2.836-.217-.83-.433-.83S112.22,814.16,112.22,815.726Z" transform="translate(-64.405 -320.097)" fill="#ffd037"/>
    <path id="Path_499" data-name="Path 499" d="M108.2,818.708c1.375.749,2.57,1.2,2.675,1.009s-.923-.954-2.3-1.7-.836-.2-.941,0S106.83,817.959,108.2,818.708Z" transform="translate(-62.557 -321.208)" fill="#ffd037"/>
    <path id="Path_500" data-name="Path 500" d="M114,847.888s9.511-.3,12.384-2.334,14.632-4.483,15.344-1.207,14.291,16.279,3.554,16.366-24.948-1.672-27.808-3.412S114,847.888,114,847.888Z" transform="translate(-65.083 -330.772)" fill="#a8a8a8"/>
    <path id="Path_501" data-name="Path 501" d="M145.438,862.727c-10.737.087-24.954-1.672-27.815-3.412-2.173-1.331-3.046-6.093-3.331-8.285h-.322s.619,7.666,3.468,9.412,17.071,3.5,27.808,3.412c3.1,0,4.167-1.127,4.112-2.762C148.924,862.1,147.741,862.708,145.438,862.727Z" transform="translate(-65.072 -333.927)" opacity="0.2"/>
    <path id="Path_502" data-name="Path 502" d="M497.959,555.067c0-12.657,10.3-22.378,22.96-22.378h.18V526.93h-.18c-15.839,0-28.719,12.3-28.719,28.137a28.646,28.646,0,0,0,9.842,21.612l4.078-4.083A22.91,22.91,0,0,1,497.959,555.067Z" transform="translate(-209.1 -210.51)" fill="#4285f4"/>
    <path id="Path_503" data-name="Path 503" d="M528.071,526.94V532.7a22.954,22.954,0,1,1-14.979,40.477L509,577.256a28.706,28.706,0,1,0,19.059-50.316Z" transform="translate(-215.498 -210.514)" fill="#4285f4" opacity="0.5"/>
    <path id="Path_504" data-name="Path 504" d="M830.51,532.219c12.657,0,22.378,10.3,22.378,22.96v.18h5.759v-.18c0-15.833-12.3-28.719-28.137-28.719A28.632,28.632,0,0,0,808.9,536.3l4.081,4.081a22.911,22.911,0,0,1,17.53-8.161Z" transform="translate(-329.698 -210.331)" fill="#4285f4" opacity="0.5"/>
    <path id="Path_505" data-name="Path 505" d="M853.934,562.339h-5.759A22.954,22.954,0,1,1,807.7,547.361l-4.062-4.081a28.706,28.706,0,1,0,50.317,19.059Z" transform="translate(-324.992 -216.736)" fill="#4285f4"/>
    <path id="Path_506" data-name="Path 506" d="M685.038,529.66l-1.146,5.734c8.427,3.4,13.814,11.66,13.814,21.288a22.954,22.954,0,1,1-32.155-21.022L663,530.49a28.706,28.706,0,1,0,40.49,26.192C703.49,544.255,696.134,533.654,685.038,529.66Z" transform="translate(-267.694 -211.55)" fill="#4285f4" opacity="0.5"/>
    <path id="Path_507" data-name="Path 507" d="M686.354,532.149a20.049,20.049,0,0,1,7.994,1.659l1.146-5.728a25.327,25.327,0,0,0-9.139-1.69,28.589,28.589,0,0,0-11.766,2.533l2.577,5.158A22.718,22.718,0,0,1,686.354,532.149Z" transform="translate(-278.553 -210.305)" fill="#4285f4"/>
  </g>
</svg>
