<svg xmlns="http://www.w3.org/2000/svg" xmlns:xlink="http://www.w3.org/1999/xlink" width="260" height="170" viewBox="0 0 260 170">
  <defs>
    <clipPath id="clip-path">
      <rect id="Rectangle_15" data-name="Rectangle 15" width="260" height="170" transform="translate(262 1377)" fill="#fff"/>
    </clipPath>
    <linearGradient id="linear-gradient" x1="0.5" y1="1" x2="0.5" gradientUnits="objectBoundingBox">
      <stop offset="0" stop-color="gray" stop-opacity="0.251"/>
      <stop offset="0.54" stop-color="gray" stop-opacity="0.122"/>
      <stop offset="1" stop-color="gray" stop-opacity="0.102"/>
    </linearGradient>
    <linearGradient id="linear-gradient-2" y2="0" xlink:href="#linear-gradient"/>
  </defs>
  <g id="_1" data-name="1" transform="translate(-262 -1377)" clip-path="url(#clip-path)">
    <g id="undraw_time_management_30iu" transform="translate(277.762 1376.999)">
      <path id="Path_135" data-name="Path 135" d="M40.828,31.079a7.226,7.226,0,0,0-3.663,2.674,7.858,7.858,0,0,0-.575,4.766c1.343,14.07,4.88,29.034-1.228,41.779C32.4,86.481,27.438,91.436,23.493,97.051s-6.923,12.626-5.091,19.232c2.236,8.072,10.583,12.547,16.21,18.759,3.683,4.061,6.265,9,9.7,13.269s8.144,8.037,13.63,8.288c7.889.363,14.308-6.45,22.043-8.028,7.924-1.616,15.9,2.5,22.329,7.418s12.27,10.885,19.756,13.958c8.268,3.4,17.588,2.877,26.291,4.918,7.924,1.86,15.219,5.816,23.086,7.924s17.088,1.981,23.183-3.405c7.944-7.044,7.319-19.591,12.393-28.908,4.713-8.657,13.938-13.826,20.148-21.479,11.173-13.775,10.808-34.83,1.321-49.811S201.82,55.132,184.248,52.77c-7.924-1.063-16.084-.918-23.7-3.337-20.392-6.472-32.527-29.659-53.346-34.484-13.234-3.062-26.1,2.241-37.377,8.767C60.038,29.382,51.011,26.855,40.828,31.079Z" transform="translate(-17.847 -14.057)" fill="#4285f4" opacity="0.1"/>
      <path id="Path_136" data-name="Path 136" d="M60.7,76.534s-7.513,7.09-15.576,7.3A15.648,15.648,0,0,0,35.8,87.152a26.32,26.32,0,0,0-3.487,3.317" transform="translate(-17.847 -14.057)" fill="none" stroke="#535461" stroke-miterlimit="10" stroke-width="0.44"/>
      <path id="Path_137" data-name="Path 137" d="M27.227,90.644c1.083-.55,5.217-.185,5.217-.185s-2.144,3.555-3.227,4.105a2.2,2.2,0,1,1-1.981-3.92Z" transform="translate(-17.847 -14.057)" fill="#b35dff"/>
      <path id="Path_138" data-name="Path 138" d="M31.579,84.359c1.208.128,4.479,2.681,4.479,2.681s-3.742,1.818-4.94,1.693a2.2,2.2,0,0,1,.46-4.374Z" transform="translate(-17.847 -14.057)" fill="#b35dff"/>
      <path id="Path_139" data-name="Path 139" d="M41.9,79.294c.977.72,2.514,4.576,2.514,4.576s-4.14-.315-5.118-1.032a2.2,2.2,0,0,1,2.6-3.544Z" transform="translate(-17.847 -14.057)" fill="#b35dff"/>
      <path id="Path_140" data-name="Path 140" d="M50.568,77.223c1.085.544,3.251,4.085,3.251,4.085s-4.134.39-5.219-.154a2.2,2.2,0,1,1,1.968-3.931Z" transform="translate(-17.847 -14.057)" fill="#b35dff"/>
      <path id="Path_141" data-name="Path 141" d="M38.358,91.049c.361-1.16-.7-5.175-.7-5.175s-3.143,2.712-3.5,3.872a2.2,2.2,0,1,0,4.2,1.3Z" transform="translate(-17.847 -14.057)" fill="#b35dff"/>
      <path id="Path_142" data-name="Path 142" d="M48.468,88.489c0-1.215-2.212-4.728-2.212-4.728S44.068,87.282,44.07,88.5a2.2,2.2,0,0,0,4.4-.013Z" transform="translate(-17.847 -14.057)" fill="#b35dff"/>
      <path id="Path_143" data-name="Path 143" d="M57.953,84.667c.2-1.2-1.382-5.034-1.382-5.034s-2.754,3.108-2.954,4.306a2.2,2.2,0,0,0,4.336.731Z" transform="translate(-17.847 -14.057)" fill="#4285f4"/>
      <path id="Path_144" data-name="Path 144" d="M70.463,57.758s-9.049-4.97-11.739-12.584A15.648,15.648,0,0,0,52.7,37.317a26.32,26.32,0,0,0-4.235-2.289" transform="translate(-17.847 -14.057)" fill="none" stroke="#535461" stroke-miterlimit="10" stroke-width="0.44"/>
      <path id="Path_145" data-name="Path 145" d="M46.747,30.24c.856.861,1.779,4.909,1.779,4.909s-4.041-.947-4.9-1.809a2.2,2.2,0,0,1,3.119-3.1Z" transform="translate(-17.847 -14.057)" fill="#b35dff"/>
      <path id="Path_146" data-name="Path 146" d="M54.066,32.448c.251,1.189-1.173,5.087-1.173,5.087s-2.877-2.991-3.128-4.182a2.2,2.2,0,1,1,4.3-.907Z" transform="translate(-17.847 -14.057)" fill="#b35dff"/>
      <path id="Path_147" data-name="Path 147" d="M62.056,40.722c-.383,1.151-3.581,3.8-3.581,3.8s-.973-4.035-.59-5.188a2.2,2.2,0,1,1,4.182,1.389Z" transform="translate(-17.847 -14.057)" fill="#b35dff"/>
      <path id="Path_148" data-name="Path 148" d="M66.7,48.328c-.183,1.2-2.888,4.35-2.888,4.35s-1.642-3.812-1.459-5.012a2.2,2.2,0,1,1,4.347.66Z" transform="translate(-17.847 -14.057)" fill="#b35dff"/>
      <path id="Path_149" data-name="Path 149" d="M49.783,40.958C51,40.945,54.493,38.7,54.493,38.7s-3.546-2.157-4.761-2.144a2.2,2.2,0,0,0,.051,4.4Z" transform="translate(-17.847 -14.057)" fill="#b35dff"/>
      <path id="Path_150" data-name="Path 150" d="M55.321,49.794c1.153-.376,3.819-3.559,3.819-3.559s-4.03-1-5.184-.621A2.2,2.2,0,1,0,55.321,49.8Z" transform="translate(-17.847 -14.057)" fill="#b35dff"/>
      <path id="Path_151" data-name="Path 151" d="M61.88,57.643c1.2-.176,4.367-2.862,4.367-2.862s-3.8-1.664-5-1.488a2.2,2.2,0,1,0,.638,4.352Z" transform="translate(-17.847 -14.057)" fill="#b35dff"/>
      <circle id="Ellipse_17" data-name="Ellipse 17" cx="79.684" cy="79.684" r="79.684" transform="translate(35.206 4.933)" fill="url(#linear-gradient)"/>
      <path id="Path_419" data-name="Path 419" d="M78.363,0A78.363,78.363,0,1,1,0,78.363,78.363,78.363,0,0,1,78.363,0Z" transform="translate(36.527 6.254)" fill="#010c3b"/>
      <circle id="Ellipse_19" data-name="Ellipse 19" cx="62.294" cy="62.294" r="62.294" transform="translate(52.596 22.322)" fill="#dde1ec"/>
      <rect id="Rectangle_16" data-name="Rectangle 16" width="3.522" height="55.03" transform="translate(113.129 33.329)" fill="#535461" opacity="0.3"/>
      <g id="Group_56" data-name="Group 56" opacity="0.1">
        <rect id="Rectangle_17" data-name="Rectangle 17" width="49.747" height="4.402" transform="translate(118.632 83.296)"/>
        <rect id="Rectangle_18" data-name="Rectangle 18" width="4.402" height="35.334" transform="translate(81.467 70.725) rotate(-62.36)"/>
        <circle id="Ellipse_20" data-name="Ellipse 20" cx="6.604" cy="6.604" r="6.604" transform="translate(108.286 78.894)"/>
      </g>
      <rect id="Rectangle_19" data-name="Rectangle 19" width="49.747" height="4.402" transform="translate(118.632 82.415)" fill="#535461"/>
      <rect id="Rectangle_20" data-name="Rectangle 20" width="35.334" height="4.402" transform="translate(83.525 65.949) rotate(27.64)" fill="#535461"/>
      <circle id="Ellipse_21" data-name="Ellipse 21" cx="6.604" cy="6.604" r="6.604" transform="translate(108.286 78.013)" fill="#535461"/>
      <g id="Group_57" data-name="Group 57" opacity="0.1">
        <path id="Path_152" data-name="Path 152" d="M75.281,106.158A62.3,62.3,0,0,1,187.358,68.7a62.3,62.3,0,1,0-104.4,67.427,62.01,62.01,0,0,1-7.676-29.972Z" transform="translate(-17.847 -14.057)"/>
      </g>
      <path id="Path_153" data-name="Path 153" d="M190.294,52.849c-.74-.711-6.965,3.962-6.965,3.962s-2.217.405-1.688,1.926-2.322,10.04-2.322,10.04l-1.16-1.622a6.964,6.964,0,0,0-.922-4.094c-.042-.068-.084-.134-.125-.2l.2-.07c-.077-1.039-1.739-2.622-2.622-3.4v-.335c.055-1.241.553-2.551,0-3.676-.625-1.283-2.454-1.928-2.608-3.337-.092-.841.475-1.6.726-2.41.6-1.937-.645-3.914-1.834-5.582a7.807,7.807,0,0,0-1.455-1.677,7.061,7.061,0,0,0-1.748-.933,44.694,44.694,0,0,0-5.318-1.541,8.47,8.47,0,0,0-5.063-.1,2.49,2.49,0,0,0-1.1.632,6.812,6.812,0,0,0-.744,1.688,6.017,6.017,0,0,1-2.228,2.005,3.2,3.2,0,0,0-1.684,2.353c0,1.407,1.607,2.291,2.144,3.6.5,1.219,0,2.578-.28,3.863a2.6,2.6,0,0,0-.033,1.274,2.738,2.738,0,0,0,.493.858c.332.44.689.85,1.043,1.268l-.163.064c-2.954-.3-4.854,3.447-4.854,3.447.136.029.266.062.394.1l-.125.163a16.014,16.014,0,0,0-2.168,3.793l-2.421,3.245s-.528-8.114.74-9.938-1.16-2.941-1.16-2.941-5.283-5.882-6.016-5.375,1.794,6.9,4.011,7.911a9.743,9.743,0,0,1-.22,3.346c-.266.834-1.688,9.635-1.688,9.635s-1.266,7.4,4.539,3.742c3.771-2.373,6.207-6.458,7.449-9.025q.13-.271.244-.517a6.2,6.2,0,0,1,.117.825l.22,8.481a12.873,12.873,0,0,1-1.334,6.058l-2.586,5.245.288.088-.174.251c-1.7,2.507-4.6,8.144,1.363,11.017l7.924,1.015L158.96,100s-3.271,6.185-4.222,10.445a31.3,31.3,0,0,1-2.745,7.5l.244.13c-.051.057-.1.117-.154.178a3.826,3.826,0,0,0-.916,1.919l-1.074,1.523s-.423,6.287.423,7.81c.462.832,2,1.36,3.3,1.669a2.174,2.174,0,0,0,2.472-3.19l-.013-.022h-.02c-.22-1.024-.894-4.2-.674-5.406.062-.343.119-.685.147-1.032a3.649,3.649,0,0,1,.409-1.305c.035-.068.073-.134.11-.2l.114.048c.354.152.7.295,1.037.42-.515.469-.88,1.44-.44,3.436,0,0,.042,4.995.423,5.78s4.642,1.825,5.382,1.015-.475-3.6-.475-3.6l-.037.026c-.244-1.618-.546-4.515.2-5.655.3-.46.59-.936.85-1.38l.161-.275h0c1.378.687,2.835,1.2,3.632.845,0,0,3.482-8.114,3.271-9.126s5.382-12.474,5.382-12.474,4.748-5.283-1.054-8.924c-1.842-1.16-3.185-1.939-4.16-2.465l-.817-4.27a15.611,15.611,0,0,1,.22-6.749l.88-3.359h0l.073-.286S173.1,68.469,173,66.338a1.541,1.541,0,0,1,.055-.491q.036.152.079.317a40.915,40.915,0,0,0,2.294,6.463c1.684,3.8,4.182,3.5,5.551,2.958a1.9,1.9,0,0,0,1.169-1.369c.493-2.364,1.847-8.988,1.933-10.817a30.767,30.767,0,0,1,.528-4.259C188.08,57.108,191.034,53.56,190.294,52.849Z" transform="translate(-17.847 -14.057)" fill="url(#linear-gradient-2)"/>
      <path id="Path_154" data-name="Path 154" d="M164.454,117.833s-.464.931-1.1,2.049c-.249.44-.526.914-.81,1.369-1.006,1.609,0,6.736,0,6.736l-2.2.3-2.2-1.1-.4-3.72v-2.721l2.509-2.807,1.1-1.215Z" transform="translate(-17.847 -14.057)" fill="#f8bdc5"/>
      <g id="Group_58" data-name="Group 58" opacity="0.1">
        <path id="Path_155" data-name="Path 155" d="M164.454,117.833s-.464.931-1.1,2.049a27.262,27.262,0,0,1-2.813-1.73l-.194-.136-.1-.075,1.1-1.215Z" transform="translate(-17.847 -14.057)"/>
      </g>
      <path id="Path_156" data-name="Path 156" d="M175.216,99.03s-5.329,11.36-5.127,12.366-3.117,9.049-3.117,9.049c-.757.357-2.148-.156-3.46-.836a27.124,27.124,0,0,1-2.862-1.761l-.194-.136-.117-.084L169.088,93.4l-7.739-5.677-.572-.42-3.46-2.553,10.566,1.911s.368-.046,2.311,1.041c.933.522,2.23,1.3,4.022,2.479C179.738,93.8,175.216,99.03,175.216,99.03Z" transform="translate(-17.847 -14.057)" fill="#5e52ad"/>
      <g id="Group_59" data-name="Group 59" opacity="0.03">
        <path id="Path_157" data-name="Path 157" d="M175.216,99.03s-5.329,11.36-5.127,12.366-3.117,9.049-3.117,9.049c-.757.357-2.148-.156-3.46-.836a27.124,27.124,0,0,1-2.862-1.761l-.194-.136-.117-.084L169.088,93.4l-7.739-5.677-.572-.42-3.46-2.553,10.566,1.911s.368-.046,2.311,1.041c.933.522,2.23,1.3,4.022,2.479C179.738,93.8,175.216,99.03,175.216,99.03Z" transform="translate(-17.847 -14.057)"/>
      </g>
      <path id="Path_158" data-name="Path 158" d="M159.026,119.843s-2.615-.4-1.708,3.821c0,0,.04,4.953.4,5.723s4.424,1.809,5.127,1.006-.453-3.568-.453-3.568-2.965,2.162-3.771-.152S159.026,119.843,159.026,119.843Z" transform="translate(-17.847 -14.057)" fill="#5d3e53"/>
      <path id="Path_159" data-name="Path 159" d="M157.215,119.039a3.17,3.17,0,0,0-.685.951,3.725,3.725,0,0,0-.39,1.294c-.026.343-.081.685-.139,1.024-.251,1.433.711,5.679.711,5.679l-3.821.6-1.407-1.508-.3-3.317a12.021,12.021,0,0,0,.6-3.522,3.691,3.691,0,0,1,.88-2.2,6.052,6.052,0,0,1,1.019-1.01S158.02,118.335,157.215,119.039Z" transform="translate(-17.847 -14.057)" fill="#f8bdc5"/>
      <g id="Group_60" data-name="Group 60" opacity="0.1">
        <path id="Path_160" data-name="Path 160" d="M157.215,119.039a3.17,3.17,0,0,0-.685.951c-1.565-.707-3.209-1.6-3.808-1.928l-.046-.024a6.052,6.052,0,0,1,1.019-1.01S158.02,118.335,157.215,119.039Z" transform="translate(-17.847 -14.057)"/>
      </g>
      <path id="Path_161" data-name="Path 161" d="M169.583,96.015s-2.512,4.726-4.123,8.646c-1.057,2.575-3.24,8.708-4.623,12.613l-.2.577c-.608,1.728-1.013,2.9-1.013,2.9a2.618,2.618,0,0,1-.79-.117c-.238-.064-.5-.15-.788-.255l-.319-.121c-.317-.123-.66-.266-.988-.416-1.6-.713-3.3-1.642-3.92-1.981l-.233-.13a31.8,31.8,0,0,0,2.622-7.447c.9-4.222,4.022-10.346,4.022-10.346l.4-2.012-7.541-1.006c-5.681-2.84-2.921-8.437-1.3-10.922a14.676,14.676,0,0,1,.9-1.248l6.034,1.321s.951.3,3.064,1.239l.971.44c1.184.544,2.641,1.244,4.4,2.142C172.095,92.891,169.583,96.015,169.583,96.015Z" transform="translate(-17.847 -14.057)" fill="#5e52ad"/>
      <path id="Path_162" data-name="Path 162" d="M156.675,127.686a2.135,2.135,0,0,1-2.355,3.161c-1.235-.306-2.7-.83-3.139-1.655-.8-1.508-.4-7.742-.4-7.742l1.057-1.558s-.553,6.888.755,7.484,4.072.28,4.072.28Z" transform="translate(-17.847 -14.057)" fill="#5d3e53"/>
      <path id="Path_163" data-name="Path 163" d="M157.745,40.251a2.351,2.351,0,0,0-1.057.627,7.248,7.248,0,0,0-.709,1.675,5.77,5.77,0,0,1-2.122,1.981,3.153,3.153,0,0,0-1.6,2.333c0,1.4,1.541,2.272,2.043,3.568.478,1.211,0,2.556-.266,3.83A2.674,2.674,0,0,0,154,55.53a2.745,2.745,0,0,0,.471.852,21.77,21.77,0,0,1,2.826,4,12.37,12.37,0,0,1,.759,3.643,18.307,18.307,0,0,1,.035,5.36.542.542,0,0,0,0,.324.5.5,0,0,0,.258.22,5.283,5.283,0,0,0,7.152-2.641c.44-1,.61-2.2,1.481-2.848a.742.742,0,0,1,.354-.161,1.037,1.037,0,0,1,.572.192,5.637,5.637,0,0,0,3.764.379,3.5,3.5,0,0,0,2.045-1.017c.993-1.18.44-2.943.506-4.482.053-1.23.526-2.529,0-3.643-.594-1.272-2.34-1.911-2.485-3.3a6.43,6.43,0,0,1,.693-2.388c.57-1.922-.614-3.881-1.746-5.534a7.662,7.662,0,0,0-1.385-1.662,6.646,6.646,0,0,0-1.664-.925,40.672,40.672,0,0,0-5.063-1.525A7.663,7.663,0,0,0,157.745,40.251Z" transform="translate(-17.847 -14.057)" fill="#85555c"/>
      <path id="Path_164" data-name="Path 164" d="M166.165,68.968h-5.833V59.516a17.609,17.609,0,0,0,.3-2.752c0-.31,0-.627,0-.947a4.866,4.866,0,0,0-.9-2.939c-1.609-1.809,5.228-1.508,5.228-1.508a17.018,17.018,0,0,0,.814,2.435,14.8,14.8,0,0,0,1.959,3.449,7.982,7.982,0,0,0,2.657,2.261C174.408,61.528,166.165,68.968,166.165,68.968Z" transform="translate(-17.847 -14.057)" fill="#f8bdc5"/>
      <g id="Group_61" data-name="Group 61" opacity="0.1">
        <path id="Path_165" data-name="Path 165" d="M165.771,53.806a5.338,5.338,0,0,1-5.142,2.012,4.866,4.866,0,0,0-.9-2.939c-1.609-1.809,5.228-1.508,5.228-1.508a17.016,17.016,0,0,0,.814,2.435Z" transform="translate(-17.847 -14.057)"/>
      </g>
      <circle id="Ellipse_22" data-name="Ellipse 22" cx="5.329" cy="5.329" r="5.329" transform="translate(138.361 30.883)" fill="#f8bdc5"/>
      <path id="Path_166" data-name="Path 166" d="M183.658,59.417a31.674,31.674,0,0,0-.5,4.222c-.081,1.812-1.371,8.38-1.842,10.724a1.86,1.86,0,0,1-1.114,1.358c-1.308.535-3.685.834-5.283-2.932a41.685,41.685,0,0,1-2.186-6.406,17.31,17.31,0,0,1-.44-2.241l3.522-1.911a4.339,4.339,0,0,1,.832,1.068,7.14,7.14,0,0,1,.88,4.059l1.1,1.609s2.714-8.446,2.2-9.954,1.609-1.911,1.609-1.911,5.932-4.623,6.637-3.92S186.975,57.405,183.658,59.417Z" transform="translate(-17.847 -14.057)" fill="#f8bdc5"/>
      <path id="Path_167" data-name="Path 167" d="M154.8,63.439a23.774,23.774,0,0,1-.947,2.311c-1.184,2.547-3.5,6.6-7.1,8.95-5.529,3.619-4.323-3.72-4.323-3.72s1.354-8.726,1.609-9.551a10.435,10.435,0,0,0,.2-3.317c-2.111-1.006-4.523-7.339-3.821-7.843s5.723,5.329,5.723,5.329,2.313,1.1,1.1,2.917-.7,9.853-.7,9.853l2.327-3.212a16.046,16.046,0,0,1,2.067-3.76c.44-.6.748-.964.748-.964Z" transform="translate(-17.847 -14.057)" fill="#f8bdc5"/>
      <g id="Group_62" data-name="Group 62" opacity="0.1">
        <path id="Path_168" data-name="Path 168" d="M176.647,63.3c-.74.273-3.6,1.429-3.92,3.082a17.315,17.315,0,0,1-.44-2.241l3.522-1.911a4.339,4.339,0,0,1,.839,1.07Z" transform="translate(-17.847 -14.057)"/>
      </g>
      <g id="Group_63" data-name="Group 63" opacity="0.1">
        <path id="Path_169" data-name="Path 169" d="M154.8,63.439a23.774,23.774,0,0,1-.947,2.311c-.136-.995-.7-3.54-2.919-4.361.44-.6.748-.964.748-.964Z" transform="translate(-17.847 -14.057)"/>
      </g>
      <g id="Group_64" data-name="Group 64" opacity="0.1">
        <path id="Path_170" data-name="Path 170" d="M166.165,68.968h-5.833V59.516a17.609,17.609,0,0,0,.3-2.752,3.627,3.627,0,0,1,.9,2.952l3.117,7.044,1.51-6.227-.5-.8,2.069-2.461a7.982,7.982,0,0,0,2.657,2.261C174.408,61.528,166.165,68.968,166.165,68.968Z" transform="translate(-17.847 -14.057)"/>
      </g>
      <g id="Group_65" data-name="Group 65" opacity="0.1">
        <path id="Path_171" data-name="Path 171" d="M170.286,88.268s-4.57-.363-8.534-.535l-.4-.018c-.564-.022-1.1-.04-1.627-.053a36.436,36.436,0,0,1-8.939-1.673,14.671,14.671,0,0,1,.9-1.244l6.034,1.321s.951.3,3.064,1.239l-3.467-2.56,10.566,1.911s.368-.046,2.311,1.041Z" transform="translate(-17.847 -14.057)"/>
      </g>
      <path id="Path_172" data-name="Path 172" d="M166.165,60.925l-.5-.8,2.232-2.67s4.6,2.256,5.809,1.761c0,0,2.917,2.421,3.016,3.821,0,0-4.222,1.407-4.123,3.522s-2,6.634-2,6.634l-.88,3.614a16.089,16.089,0,0,0-.22,6.692l.8,4.475s-6.335-.5-10.566-.6a36.643,36.643,0,0,1-9.049-1.708l2.468-5.193a13.207,13.207,0,0,0,1.272-6l-.22-8.406s-.2-4.222-3.522-4.926c0,0,1.809-3.72,4.623-3.418,0,0,4.1-1.71,5.316-.555a3.622,3.622,0,0,1,.918,2.967l3.117,7.044Z" transform="translate(-17.847 -14.057)" fill="#ed677b"/>
      <g id="Group_66" data-name="Group 66" opacity="0.1">
        <path id="Path_173" data-name="Path 173" d="M157.692,49.171c.808,0,1.442-.856,2.25-.812a2.292,2.292,0,0,1,1.123.528,13.7,13.7,0,0,0,4.295,1.981,3.746,3.746,0,0,0,1.827.132,1.558,1.558,0,0,0,1.228-1.23,2.1,2.1,0,0,0-.106-.8,9.877,9.877,0,0,0-4.3-5.677,3.386,3.386,0,0,0-2.785-.583,5.521,5.521,0,0,0-1.981,1.717,7.528,7.528,0,0,1-1.541,1.25c-.44.266-1.1.44-1.354.929C155.87,47.517,156.62,49.162,157.692,49.171Z" transform="translate(-17.847 -14.057)"/>
      </g>
      <path id="Path_174" data-name="Path 174" d="M157.692,48.97c.808,0,1.442-.856,2.25-.812a2.292,2.292,0,0,1,1.123.528,13.7,13.7,0,0,0,4.295,1.981,3.746,3.746,0,0,0,1.827.132,1.558,1.558,0,0,0,1.228-1.23,2.1,2.1,0,0,0-.106-.8,9.877,9.877,0,0,0-4.3-5.677,3.386,3.386,0,0,0-2.785-.583,5.521,5.521,0,0,0-1.981,1.717,7.529,7.529,0,0,1-1.541,1.25c-.44.266-1.1.44-1.354.929C155.87,47.326,156.62,48.959,157.692,48.97Z" transform="translate(-17.847 -14.057)" fill="#85555c"/>
      <path id="Path_175" data-name="Path 175" d="M155.256,71.933s4.926,1.809,8.144.4l1.609.1a7.118,7.118,0,0,0,5.5,1.037" transform="translate(-17.847 -14.057)" opacity="0.05"/>
      <path id="Path_176" data-name="Path 176" d="M178.582,68.918s-.8,1.911-.4,2.514" transform="translate(-17.847 -14.057)" opacity="0.05"/>
      <path id="Path_177" data-name="Path 177" d="M146.508,68.315s.4,1.911,0,2.514" transform="translate(-17.847 -14.057)" opacity="0.05"/>
      <path id="Path_178" data-name="Path 178" d="M229.894,111.852a21.99,21.99,0,0,0-4.011,22.875c5.2,13.665-8.911,36.39-8.911,36.39s.152-.022.44-.07a26.813,26.813,0,0,0,17.795-41.042C231.288,124.029,228.078,117.021,229.894,111.852Z" transform="translate(-17.847 -14.057)" fill="#00bd90"/>
      <path id="Path_179" data-name="Path 179" d="M229.894,112.006a21.99,21.99,0,0,0-4.011,22.875c5.2,13.665-8.911,36.388-8.911,36.388s.152-.022.44-.07a26.813,26.813,0,0,0,17.795-41.042C231.288,124.183,228.078,117.175,229.894,112.006Z" transform="translate(-17.847 -14.057)" opacity="0.1"/>
      <path id="Path_180" data-name="Path 180" d="M229.894,111.852s-5.2,11.288,0,20.5.88,35.054-12.923,38.768" transform="translate(-17.847 -14.057)" fill="none" stroke="#535461" stroke-miterlimit="10" stroke-width="0.22"/>
      <path id="Path_181" data-name="Path 181" d="M246.3,149.1s-10.509-1.673-11.466,7.744-20.214,10.722-20.214,10.722l.361.24c15.893,10.434,31.088,6.645,28.8-7.209C242.93,155.449,243,150.277,246.3,149.1Z" transform="translate(-17.847 -14.057)" fill="#00bd90"/>
      <path id="Path_182" data-name="Path 182" d="M246.3,149.1s-8.158,1.79-7.484,9.208-12.107,16.309-24.187,9.26" transform="translate(-17.847 -14.057)" fill="none" stroke="#535461" stroke-miterlimit="10" stroke-width="0.22"/>
      <path id="Path_183" data-name="Path 183" d="M237.053,167.91s-8.277-1.655-10.484-3.863-12.14-6.069-13.242-3.3-14.9,12.14-5.518,13.795,22.072,2.2,24.83,1.1S237.053,167.91,237.053,167.91Z" transform="translate(-17.847 -14.057)" fill="#a8a8a8"/>
      <path id="Path_184" data-name="Path 184" d="M207.807,173.508c9.382,1.655,22.072,2.2,24.83,1.1,2.1-.841,3.562-4.878,4.138-6.758l.275.057s-1.655,6.621-4.413,7.724-15.45.553-24.83-1.1c-2.707-.478-3.482-1.6-3.19-3.02C204.847,172.438,205.791,173.151,207.807,173.508Z" transform="translate(-17.847 -14.057)" opacity="0.2"/>
    </g>
  </g>
</svg>
