<svg xmlns="http://www.w3.org/2000/svg" xmlns:xlink="http://www.w3.org/1999/xlink" width="260" height="170" viewBox="0 0 260 170">
  <defs>
    <clipPath id="clip-path">
      <rect id="Rectangle_15" data-name="Rectangle 15" width="260" height="170" transform="translate(262 1377)" fill="#fff"/>
    </clipPath>
  </defs>
  <g id="_2" data-name="2" transform="translate(-262 -1377)" clip-path="url(#clip-path)">
    <g id="undraw_directions_x53j" transform="translate(270.181 1377)">
      <path id="Path_185" data-name="Path 185" d="M115.1,41.547a57.444,57.444,0,0,0-69.025-7.773C68.2,41.693,92.608,41.984,115.1,41.547Z" transform="translate(-17.935 -19.815)" fill="#00bd90" opacity="0.055"/>
      <path id="Path_186" data-name="Path 186" d="M243.321,170.162l-24.159-41.845a.769.769,0,0,0-1.335,0l-24.159,41.845a.769.769,0,0,0,.666,1.165h7.207a.773.773,0,0,1,.771.771v8.93a.771.771,0,0,0,.769.771h9.4a.771.771,0,0,0,.771-.771v-4.316a.769.769,0,0,1,.769-.769h8.94a.771.771,0,0,1,.771.769v4.316a.771.771,0,0,0,.771.771h9.4a.771.771,0,0,0,.771-.771v-8.94a.771.771,0,0,1,.771-.771h7.207a.771.771,0,0,0,.666-1.155Zm-33.69,4.631a.769.769,0,0,1-.545.233H205.7a.771.771,0,0,1,0-1.542h3.391a.771.771,0,0,1,.545,1.316Zm22.193,0a.769.769,0,0,1-.545.233H227.9a.771.771,0,1,1,0-1.542h3.4a.771.771,0,0,1,.545,1.316Z" transform="translate(-17.935 -19.815)" fill="#00a4e4" opacity="0.1"/>
      <path id="Path_187" data-name="Path 187" d="M94,170.53,69.837,128.686a.771.771,0,0,0-1.335,0L47.635,164.828a63.744,63.744,0,0,0,8.732,9.016h3.4a.771.771,0,0,1,0,1.542H58.333a37.335,37.335,0,0,0,5.59,3.478v-1.782a.771.771,0,0,1,.771-.771h8.94a.771.771,0,0,1,.769.771V181.4a.75.75,0,0,0,.072.324.771.771,0,0,0,.7.447h9.4a.755.755,0,0,0,.613-.31.741.741,0,0,0,.156-.466v-8.933a.771.771,0,0,1,.771-.771h7.207A.771.771,0,0,0,94,170.53Zm-15.967,3.54a.769.769,0,0,1,.545-.233h3.391a.771.771,0,1,1,0,1.542H78.572a.771.771,0,0,1-.545-1.316ZM62.854,158.586a.771.771,0,0,1-.771-.771v-5.856a.771.771,0,0,1,.771-.771H75.491a.771.771,0,0,1,.769.771v5.856a.771.771,0,0,1-.769.771Z" transform="translate(-17.935 -19.815)" fill="#00a4e4" opacity="0.1"/>
      <path id="Path_188" data-name="Path 188" d="M189.49,95.361h-29.9V88.9a1.547,1.547,0,0,0-1.547-1.547h-8.779V80.461a.974.974,0,0,0-.974-.974H136.987a.974.974,0,0,0-.974.974v6.885H125.692a1.547,1.547,0,0,0-1.547,1.547v6.466H95.638a.314.314,0,0,0-.312.314v85.839a.314.314,0,0,0,.312.314h18.946a.314.314,0,0,0,.314-.314V169.964a.317.317,0,0,1,.314-.314h8a.317.317,0,0,1,.314.314v11.548a.314.314,0,0,0,.312.314h37.442a.317.317,0,0,0,.314-.314V169.964a.314.314,0,0,1,.312-.314h8a.314.314,0,0,1,.314.314v11.548a.317.317,0,0,0,.314.314H189.49a.317.317,0,0,0,.314-.314V95.676a.317.317,0,0,0-.314-.314Zm-77.983,70.278a.312.312,0,0,1-.312.312h-11.7a.312.312,0,0,1-.314-.312v-3.99a.314.314,0,0,1,.314-.314h11.7a.314.314,0,0,1,.312.314Zm0-10.328a.312.312,0,0,1-.312.314h-11.7a.312.312,0,0,1-.314-.314v-3.995a.312.312,0,0,1,.314-.314h11.7a.312.312,0,0,1,.312.314Zm0-10.326a.314.314,0,0,1-.312.314h-11.7a.314.314,0,0,1-.314-.314v-4a.314.314,0,0,1,.314-.314h11.7a.314.314,0,0,1,.312.314Zm0-10.328a.312.312,0,0,1-.312.314h-11.7a.312.312,0,0,1-.314-.314V130.67a.312.312,0,0,1,.314-.314h11.7a.312.312,0,0,1,.312.314Zm0-10.325a.314.314,0,0,1-.312.314h-11.7a.314.314,0,0,1-.314-.314v-4a.312.312,0,0,1,.314-.312h11.7a.312.312,0,0,1,.312.312Zm0-10.326a.312.312,0,0,1-.312.312h-11.7a.312.312,0,0,1-.314-.312v-4a.314.314,0,0,1,.314-.314h11.7a.314.314,0,0,1,.312.314Zm0-10.328a.312.312,0,0,1-.312.314h-11.7a.312.312,0,0,1-.314-.314V99.691a.312.312,0,0,1,.314-.314h11.7a.312.312,0,0,1,.312.314Zm27.744,61.958a.312.312,0,0,1-.314.312h-11.7a.314.314,0,0,1-.314-.312v-3.988a.317.317,0,0,1,.314-.314h11.7a.314.314,0,0,1,.314.314Zm0-10.328a.312.312,0,0,1-.314.314h-11.7a.314.314,0,0,1-.314-.314v-3.992a.314.314,0,0,1,.314-.314h11.7a.312.312,0,0,1,.314.314Zm0-10.326a.314.314,0,0,1-.314.314h-11.7a.317.317,0,0,1-.314-.314v-3.995a.317.317,0,0,1,.314-.314h11.7a.314.314,0,0,1,.314.314Zm0-10.328a.312.312,0,0,1-.314.314h-11.7a.314.314,0,0,1-.314-.314V130.67a.314.314,0,0,1,.314-.314h11.7a.312.312,0,0,1,.314.314Zm0-10.326a.314.314,0,0,1-.314.314h-11.7a.317.317,0,0,1-.314-.314v-3.995a.314.314,0,0,1,.314-.312h11.7a.312.312,0,0,1,.314.312Zm0-10.326a.312.312,0,0,1-.314.312h-11.7a.314.314,0,0,1-.314-.312V110.01a.317.317,0,0,1,.314-.314h11.7a.314.314,0,0,1,.314.314Zm0-10.328a.312.312,0,0,1-.314.314h-11.7a.314.314,0,0,1-.314-.314V99.691a.314.314,0,0,1,.314-.314h11.7a.312.312,0,0,1,.314.314Zm18.958,61.958a.312.312,0,0,1-.314.312h-11.7a.314.314,0,0,1-.314-.312v-3.985a.317.317,0,0,1,.314-.314h11.7a.314.314,0,0,1,.314.314Zm0-10.328a.312.312,0,0,1-.314.314h-11.7a.314.314,0,0,1-.314-.314v-3.99a.314.314,0,0,1,.314-.314h11.7a.312.312,0,0,1,.314.314Zm0-10.326a.314.314,0,0,1-.314.314h-11.7a.317.317,0,0,1-.314-.314v-3.992a.317.317,0,0,1,.314-.314h11.7a.314.314,0,0,1,.314.314Zm0-10.328a.312.312,0,0,1-.314.314h-11.7a.314.314,0,0,1-.314-.314V130.67a.314.314,0,0,1,.314-.314h11.7a.312.312,0,0,1,.314.314Zm0-10.326a.314.314,0,0,1-.314.314h-11.7a.317.317,0,0,1-.314-.314v-3.992a.314.314,0,0,1,.314-.312h11.7a.312.312,0,0,1,.314.312Zm0-10.326a.312.312,0,0,1-.314.312h-11.7a.314.314,0,0,1-.314-.312V110.01a.317.317,0,0,1,.314-.314h11.7a.314.314,0,0,1,.314.314Zm0-10.328a.312.312,0,0,1-.314.314h-11.7a.314.314,0,0,1-.314-.314V99.691a.314.314,0,0,1,.314-.314h11.7a.312.312,0,0,1,.314.314Zm27.744,61.958a.314.314,0,0,1-.314.312h-11.7a.312.312,0,0,1-.314-.312v-3.983a.314.314,0,0,1,.314-.314h11.7a.317.317,0,0,1,.314.314Zm0-10.328a.314.314,0,0,1-.314.314h-11.7a.312.312,0,0,1-.314-.314v-3.988a.312.312,0,0,1,.314-.314h11.7a.314.314,0,0,1,.314.314Zm0-10.326a.317.317,0,0,1-.314.314h-11.7a.314.314,0,0,1-.314-.314v-3.99a.314.314,0,0,1,.314-.314h11.7a.317.317,0,0,1,.314.314Zm0-10.328a.314.314,0,0,1-.314.314h-11.7a.312.312,0,0,1-.314-.314V130.67a.312.312,0,0,1,.314-.314h11.7a.314.314,0,0,1,.314.314Zm0-10.325a.317.317,0,0,1-.314.314h-11.7a.314.314,0,0,1-.314-.314v-3.99a.312.312,0,0,1,.314-.312h11.7a.314.314,0,0,1,.314.312Zm0-10.326a.314.314,0,0,1-.312.319h-11.7a.312.312,0,0,1-.314-.312v-4a.314.314,0,0,1,.314-.314h11.7a.317.317,0,0,1,.314.314Zm0-10.328a.314.314,0,0,1-.314.314h-11.7a.312.312,0,0,1-.314-.314V99.691a.312.312,0,0,1,.314-.314h11.7a.314.314,0,0,1,.314.314Z" transform="translate(-17.935 -19.815)" fill="#a7a7a7" opacity="0.1"/>
      <path id="Path_189" data-name="Path 189" d="M104.35,72.1a6.729,6.729,0,0,0-3.906.424,5.756,5.756,0,0,1-4.712-.012,6.573,6.573,0,0,0-5.516.109,3.436,3.436,0,0,1-1.589.4c-2.236,0-4.1-2.252-4.484-5.224a4.288,4.288,0,0,0,1.118-1.2,6.28,6.28,0,0,1,11.213-.04,4.311,4.311,0,0,0,3.715,2.04h.058C102.046,68.587,103.588,70.014,104.35,72.1Z" transform="translate(-17.935 -19.815)" fill="#00a4e4" opacity="0.1"/>
      <path id="Path_190" data-name="Path 190" d="M111.151,62.768l-3.615,2.292,2.194-3.99a3.573,3.573,0,0,0-2.187-.78h-.058a4.23,4.23,0,0,1-.75-.056l-1.221.778.526-.955a4.356,4.356,0,0,1-2.143-1.63l-2.194,1.4,1.381-2.525a6.419,6.419,0,0,0-4.912-2.483,6.733,6.733,0,0,0-5.623,3.468,4.2,4.2,0,0,1-3.727,2.005H88.7c-2.518,0-4.558,2.853-4.558,6.375s2.04,6.375,4.558,6.375a3.4,3.4,0,0,0,1.589-.4,6.573,6.573,0,0,1,5.516-.107,5.756,5.756,0,0,0,4.691,0,6.571,6.571,0,0,1,5.469.1,3.412,3.412,0,0,0,1.57.389c2.518,0,4.558-2.856,4.558-6.375a8.1,8.1,0,0,0-.941-3.885Z" transform="translate(-17.935 -19.815)" fill="#d5e0ff" opacity="0.1"/>
      <path id="Path_191" data-name="Path 191" d="M211.727,114.6a4.731,4.731,0,0,0-2.735.3,4.023,4.023,0,0,1-3.284,0,4.6,4.6,0,0,0-3.862.077,2.394,2.394,0,0,1-1.111.277c-1.565,0-2.867-1.577-3.137-3.657a3.044,3.044,0,0,0,.783-.843,4.4,4.4,0,0,1,7.854-.028,3.014,3.014,0,0,0,2.6,1.428h.042A3.292,3.292,0,0,1,211.727,114.6Z" transform="translate(-17.935 -19.815)" fill="#00a4e4" opacity="0.1"/>
      <path id="Path_192" data-name="Path 192" d="M216.484,108.076l-2.53,1.6,1.535-2.8a2.5,2.5,0,0,0-1.53-.545h-.04a3,3,0,0,1-.524-.04l-.86.543.368-.666a3.072,3.072,0,0,1-1.5-1.139l-1.54.969.969-1.763a4.472,4.472,0,0,0-3.438-1.74,4.7,4.7,0,0,0-3.936,2.429,2.94,2.94,0,0,1-2.6,1.4h-.077c-1.761,0-3.191,2-3.191,4.46s1.43,4.463,3.191,4.463a2.394,2.394,0,0,0,1.111-.277,4.593,4.593,0,0,1,3.862-.075,4.046,4.046,0,0,0,3.284,0,4.6,4.6,0,0,1,3.827.075,2.411,2.411,0,0,0,1.1.27c1.763,0,3.191-2,3.191-4.463a5.672,5.672,0,0,0-.671-2.709Z" transform="translate(-17.935 -19.815)" fill="#d5e0ff" opacity="0.1"/>
      <path id="Path_193" data-name="Path 193" d="M73.515,99.691a4.733,4.733,0,0,1,2.735.3,4.016,4.016,0,0,0,3.282,0,4.6,4.6,0,0,1,3.862.077,2.4,2.4,0,0,0,1.111.277c1.565,0,2.87-1.577,3.14-3.657a3.012,3.012,0,0,1-.783-.843A4.4,4.4,0,0,0,79,95.8a3.028,3.028,0,0,1-2.6,1.432h-.04A3.276,3.276,0,0,0,73.515,99.691Z" transform="translate(-17.935 -19.815)" fill="#00a4e4" opacity="0.1"/>
      <path id="Path_194" data-name="Path 194" d="M68.745,93.169l2.53,1.6-1.537-2.8a2.506,2.506,0,0,1,1.53-.545h.042a3.028,3.028,0,0,0,.524-.04l.857.543-.368-.666a3.077,3.077,0,0,0,1.5-1.139l1.535.974-.971-1.763a4.494,4.494,0,0,1,3.44-1.74,4.7,4.7,0,0,1,3.936,2.429,2.937,2.937,0,0,0,2.6,1.4h.084c1.763,0,3.191,2,3.191,4.46s-1.428,4.463-3.191,4.463a2.408,2.408,0,0,1-1.111-.277,4.593,4.593,0,0,0-3.862-.075,4.041,4.041,0,0,1-3.282,0,4.6,4.6,0,0,0-3.829.075,2.4,2.4,0,0,1-1.1.27c-1.761,0-3.191-2-3.191-4.463a5.672,5.672,0,0,1,.668-2.707Z" transform="translate(-17.935 -19.815)" fill="#d5e0ff" opacity="0.1"/>
      <path id="Path_195" data-name="Path 195" d="M68.871,182.875c3.154,2,7.7-.023,10.873,1.95.82.508,1.481,1.255,2.329,1.717a7.527,7.527,0,0,0,3.373.7c9.694.375,19.552-2.329,29-.144,2.644.61,5.229,1.6,7.938,1.747,4.679.254,9.163-2.029,13.847-2.155,7.1-.191,14.085,4.563,20.94,2.688,2.255-.617,4.323-1.933,6.65-2.155,2.592-.233,5.085.9,7.6,1.556,8.937,2.329,18.245-1.444,27.485-1.726,6.026-.184,11.993,1.13,18.014,1.432a107.588,107.588,0,0,0,12.848-.384,9.667,9.667,0,0,0,4.7-1.148c1.365-.894,2.2-2.816,1.36-4.214Z" transform="translate(-17.935 -19.815)" fill="#3f3d56"/>
      <path id="Path_196" data-name="Path 196" d="M68.871,182.875c3.154,2,7.7-.023,10.873,1.95.82.508,1.481,1.255,2.329,1.717a7.527,7.527,0,0,0,3.373.7c9.694.375,19.552-2.329,29-.144,2.644.61,5.229,1.6,7.938,1.747,4.679.254,9.163-2.029,13.847-2.155,7.1-.191,14.085,4.563,20.94,2.688,2.255-.617,4.323-1.933,6.65-2.155,2.592-.233,5.085.9,7.6,1.556,8.937,2.329,18.245-1.444,27.485-1.726,6.026-.184,11.993,1.13,18.014,1.432a107.588,107.588,0,0,0,12.848-.384,9.667,9.667,0,0,0,4.7-1.148c1.365-.894,2.2-2.816,1.36-4.214Z" transform="translate(-17.935 -19.815)" opacity="0.1"/>
      <path id="Path_197" data-name="Path 197" d="M68.871,181.711c3.154,2,7.7-.023,10.873,1.95.82.508,1.481,1.255,2.329,1.717a7.527,7.527,0,0,0,3.373.7c9.694.375,19.552-2.329,29-.144,2.644.61,5.229,1.6,7.938,1.747,4.679.254,9.163-2.029,13.847-2.155,7.1-.191,14.085,4.563,20.94,2.688,2.255-.617,4.323-1.933,6.65-2.155,2.592-.233,5.085.9,7.6,1.556,8.937,2.329,18.245-1.444,27.485-1.726,6.026-.184,11.993,1.13,18.014,1.432a107.588,107.588,0,0,0,12.848-.384,9.667,9.667,0,0,0,4.7-1.148c1.365-.894,2.2-2.816,1.36-4.214Z" transform="translate(-17.935 -19.815)" fill="#3f3d56"/>
      <g id="Group_67" data-name="Group 67" opacity="0.1">
        <path id="Path_198" data-name="Path 198" d="M46.433,153.014a5.7,5.7,0,0,1-.752,2.884,5.9,5.9,0,0,1,0,5.767,5.3,5.3,0,0,1,.568,1.4,105.77,105.77,0,0,1-7.009-10.482h0a5.59,5.59,0,0,1,.736-2.46,5.7,5.7,0,0,1-.752-2.884,5.93,5.93,0,0,1,.34-2.005,4.982,4.982,0,0,1,.412-.878,3.134,3.134,0,0,1,5.7,0,5.19,5.19,0,0,1,.4.85,5.97,5.97,0,0,1,.349,2.033,5.7,5.7,0,0,1-.752,2.884,5.7,5.7,0,0,1,.752,2.893Z" transform="translate(-17.935 -19.815)" fill="#3f3d56"/>
        <ellipse id="Ellipse_23" data-name="Ellipse 23" cx="3.603" cy="4.719" rx="3.603" ry="4.719" transform="translate(21.289 116.949)" fill="#3f3d56"/>
        <ellipse id="Ellipse_24" data-name="Ellipse 24" cx="3.603" cy="4.719" rx="3.603" ry="4.719" transform="translate(21.289 111.181)" fill="#3f3d56"/>
        <path id="Path_199" data-name="Path 199" d="M60.017,106.912a17.185,17.185,0,0,1-3.7,10.675A17.267,17.267,0,0,1,46.072,145.2c-.415.084-.836.149-1.262.2a17.443,17.443,0,0,1-3.96.021q-.657-.07-1.3-.193a17.073,17.073,0,0,1-5.357-1.959,172.023,172.023,0,0,1-8.108-19.517,17.187,17.187,0,0,1,3.1-6.161,17.281,17.281,0,0,1-2.8-16.214l13.109,4.4L27.2,99.4a17.337,17.337,0,0,1,1.968-3.149A17.267,17.267,0,1,1,57.688,76.925L45.015,86.242l13.742-7.127a17.288,17.288,0,0,1-.331,13.68l-10.249-.077,9.471,1.556A17.336,17.336,0,0,1,56.3,96.249a17.19,17.19,0,0,1,3.713,10.663Z" transform="translate(-17.935 -19.815)" fill="#00bd90"/>
        <path id="Path_200" data-name="Path 200" d="M60.017,128.271a17.27,17.27,0,0,1-13.931,16.942c-.417.084-.839.15-1.265.2a17.443,17.443,0,0,1-3.96.021q-.657-.07-1.3-.193a17.073,17.073,0,0,1-5.357-1.959,172.018,172.018,0,0,1-8.12-19.526,17.187,17.187,0,0,1,3.1-6.161,17.2,17.2,0,0,1-3.7-10.684c0-1.938,33.15,7.738,30.834,10.675A17.185,17.185,0,0,1,60.017,128.271Z" transform="translate(-17.935 -19.815)" opacity="0.1"/>
      </g>
      <g id="Group_68" data-name="Group 68" opacity="0.1">
        <path id="Path_201" data-name="Path 201" d="M254.329,148.524c-.675,2.157-1.4,4.3-2.138,6.389a5.972,5.972,0,0,1-.307-1.912A4.8,4.8,0,0,1,254.329,148.524Z" transform="translate(-17.935 -19.815)" fill="#3f3d56"/>
        <path id="Path_202" data-name="Path 202" d="M261.573,111.358a100.275,100.275,0,0,1-2.329,17.935,196.979,196.979,0,0,1-4.926,19.23c-.676,2.157-1.4,4.3-2.138,6.389-.85,2.376-1.747,4.686-2.686,6.9a17.332,17.332,0,0,1-7.666-26.966,17.348,17.348,0,0,1-2.8-16.249L252.142,123l-12.294-6.4a17.391,17.391,0,0,1,1.968-3.156A17.329,17.329,0,0,1,248.6,86.836a29.709,29.709,0,0,1,11.355,14.891l-2.271,1.691,2.436-1.265a29.565,29.565,0,0,1,1.419,7.759h-.685l.7.114C261.573,110.466,261.573,110.909,261.573,111.358Z" transform="translate(-17.935 -19.815)" fill="#00bd90"/>
        <path id="Path_203" data-name="Path 203" d="M259.255,129.294a196.978,196.978,0,0,1-4.926,19.23c-.675,2.157-1.4,4.3-2.138,6.389-.85,2.376-1.747,4.686-2.686,6.9a17.332,17.332,0,0,1-7.665-26.966,17.259,17.259,0,0,1-3.694-10.7C238.146,122.984,250.192,126.035,259.255,129.294Z" transform="translate(-17.935 -19.815)" opacity="0.1"/>
      </g>
      <path id="Path_204" data-name="Path 204" d="M261.543,110.021v-.109a29.565,29.565,0,0,0-1.418-7.759c-.047-.142-.093-.286-.142-.426A29.568,29.568,0,0,0,209.925,91.62a41.789,41.789,0,0,0-2.355-8.262,132.676,132.676,0,0,1-23.439.873,94.567,94.567,0,0,0,14.86,5.4l-.182.675A95.432,95.432,0,0,1,182.2,84.085l-1.609-.78,1.784.116a132.718,132.718,0,0,0,24.923-.715,42.025,42.025,0,0,0-7.342-11.665c-13.407-1.351-26.709-4.165-39.131-9.743l.286-.636c12.091,5.434,25.049,8.227,38.13,9.6a41.87,41.87,0,0,0-66.553,7.074,57.506,57.506,0,0,0-14.264-32.353,134.308,134.308,0,0,1-22.074,6.687,133.5,133.5,0,0,1-34.505,2.746,94.566,94.566,0,0,0,14.861,5.4l-.182.675a95.431,95.431,0,0,1-16.607-6.219l-1.61-.78,1.784.116a132.583,132.583,0,0,0,57.849-9.166q-1.037-1.134-2.134-2.217c-22.924.466-47.891.233-70.494-8A57.656,57.656,0,0,0,17.935,83.345c0,10.822,2.974,25.7,8.152,40.633a172.654,172.654,0,0,0,8.131,19.566c1.582,3.214,3.261,6.338,5.024,9.329h0a105.882,105.882,0,0,0,7.009,10.482q.685.9,1.386,1.77a63.94,63.94,0,0,0,8.73,9.054h0q.971.811,1.954,1.544a37.221,37.221,0,0,0,5.59,3.494,25.776,25.776,0,0,0,10.551,2.86c.289.012.58.019.869.019v.119H231.857v-.119h.116a7.92,7.92,0,0,0,2.646-.466c5.534-1.964,10.631-9.848,14.867-19.812.932-2.21,1.835-4.521,2.686-6.9.75-2.1,1.463-4.232,2.138-6.389a196.986,196.986,0,0,0,4.926-19.23,101.369,101.369,0,0,0,2.329-17.935C261.573,110.909,261.573,110.466,261.543,110.021Z" transform="translate(-17.935 -19.815)" fill="#d0d0d0" opacity="0.1"/>
      <path id="Path_205" data-name="Path 205" d="M95.746,175.359l4.458-2.623a10.745,10.745,0,0,0-2.28-2.728l-8.411,2.616,6.592-3.874a10.714,10.714,0,0,0-15.862,9.4c0,5.916,4.8,6.121,10.714,6.121s10.714-.2,10.714-6.121a10.666,10.666,0,0,0-.92-4.349Z" transform="translate(-17.935 -19.815)" fill="#565656"/>
      <path id="Path_206" data-name="Path 206" d="M96.88,181.11A8.328,8.328,0,0,0,95.3,179.87a7.354,7.354,0,0,0-2.6-1.269,19.512,19.512,0,0,0-2.562-.075,5.977,5.977,0,0,1-3.915-1.794,12.231,12.231,0,0,0-1.819-1.884,4,4,0,0,0-2.728-.5,6.765,6.765,0,0,0-.806.165,10.679,10.679,0,0,0-.634,3.636c0,5.916,4.8,6.121,10.714,6.121,2.872,0,5.478-.049,7.4-.773l-.321-.6a8.479,8.479,0,0,0-1.151-1.787Z" transform="translate(-17.935 -19.815)" opacity="0.1"/>
      <circle id="Ellipse_25" data-name="Ellipse 25" cx="8.327" cy="8.327" r="8.327" transform="translate(119.161 34.943)" fill="#3f3d56"/>
      <path id="Path_207" data-name="Path 207" d="M140.593,127.861c.859,6.03-.189,12.18-1.821,18.047a13.4,13.4,0,0,1-1.2,3.175,33.85,33.85,0,0,1-2.036,2.746,23.842,23.842,0,0,0-2.984,6.438,181.594,181.594,0,0,0-5.315,18.941,1.3,1.3,0,0,0,0,.808c.2.466.818.526,1.323.524l6.536-.035c.233-.447-.2-.932-.466-1.36-.932-1.449-.037-3.331.785-4.847a52.113,52.113,0,0,0,4.607-11.646,31.581,31.581,0,0,1,1.537-5.061,50.826,50.826,0,0,1,3.373-5.457,45.712,45.712,0,0,0,3.189-6.738,43.656,43.656,0,0,0,3.156-9.888,39.5,39.5,0,0,0-.07-9.739.615.615,0,0,0-.713-.7l-8.77-.452c-1.807-.093-2.236-.489-1.961,1.286C139.95,125.229,140.4,126.519,140.593,127.861Z" transform="translate(-17.935 -19.815)" fill="#3f3d56"/>
      <path id="Path_208" data-name="Path 208" d="M140.593,127.861c.859,6.03-.189,12.18-1.821,18.047a13.4,13.4,0,0,1-1.2,3.175,33.85,33.85,0,0,1-2.036,2.746,23.842,23.842,0,0,0-2.984,6.438,181.594,181.594,0,0,0-5.315,18.941,1.3,1.3,0,0,0,0,.808c.2.466.818.526,1.323.524l6.536-.035c.233-.447-.2-.932-.466-1.36-.932-1.449-.037-3.331.785-4.847a52.113,52.113,0,0,0,4.607-11.646,31.581,31.581,0,0,1,1.537-5.061,50.826,50.826,0,0,1,3.373-5.457,45.712,45.712,0,0,0,3.189-6.738,43.656,43.656,0,0,0,3.156-9.888,39.5,39.5,0,0,0-.07-9.739.615.615,0,0,0-.713-.7l-8.77-.452c-1.807-.093-2.236-.489-1.961,1.286C139.95,125.229,140.4,126.519,140.593,127.861Z" transform="translate(-17.935 -19.815)" opacity="0.1"/>
      <path id="Path_209" data-name="Path 209" d="M142.316,113.2c-1.782,2.562-3.65,5.511-3.058,8.579.45,2.329,2.224,4.134,3.9,5.823,6.694,6.722,13.277,14.19,15.555,23.4.587,2.38.871,4.824,1.377,7.221a79.741,79.741,0,0,0,4.193,12.659l4.37,11.029a6.606,6.606,0,0,0,6.312-4.193,2.764,2.764,0,0,1-1.656-1.064c-1.863-2.578-2.245-5.9-2.723-9.04-.529-3.475-1.234-6.922-1.943-10.367l-3.13-15.243c-.361-1.759-.722-3.519-1.193-5.252-1.821-6.713-5.273-13.044-5.807-19.985a4.694,4.694,0,0,0-.82-2.9,4.258,4.258,0,0,0-3-.995C150.331,112.6,146.567,112.171,142.316,113.2Z" transform="translate(-17.935 -19.815)" fill="#3f3d56"/>
      <path id="Path_210" data-name="Path 210" d="M130.547,177.052a6.955,6.955,0,0,0-1.449-.186,3.009,3.009,0,0,0-2.367,1.293,5.881,5.881,0,0,0-.636,1.4l-.631,1.812a2.015,2.015,0,0,0-.091,1.63,1.728,1.728,0,0,0,.848.655,15.744,15.744,0,0,0,4.915.88c1.616.158,3.219.443,4.815.741.55.1,1.1.21,1.654.266a19.7,19.7,0,0,0,3.741-.112l1.283-.123a4.62,4.62,0,0,0,1.262-.233,1.591,1.591,0,0,0,.932-.836,1.511,1.511,0,0,0-1.195-1.877c-.338-.065-.7-.035-1.03-.079a4.864,4.864,0,0,1-1.127-.338,22.48,22.48,0,0,1-4.745-2.313c-.4-.282-.82-.675-.776-1.165a2.375,2.375,0,0,1,.207-.6,2.2,2.2,0,0,0,.019-1.558c-.079-.214-.233-.44-.45-.466-.615-.075-.54.822-.631,1.165-.123.466-.347.508-.785.466C133.053,177.353,131.8,177.29,130.547,177.052Z" transform="translate(-17.935 -19.815)" fill="#f2f2f2"/>
      <path id="Path_211" data-name="Path 211" d="M167.318,183.311a4.111,4.111,0,0,0,.89,2.5,1.947,1.947,0,0,0,.634.51,2.543,2.543,0,0,0,1.165.184,9.328,9.328,0,0,0,3.235-.655,9.249,9.249,0,0,1,1.118-.422,12.548,12.548,0,0,1,1.453-.21c1.926-.277,3.617-1.414,5.478-1.989a11.515,11.515,0,0,0,1.63-.536,7.472,7.472,0,0,0,1.917-1.5,3.44,3.44,0,0,0,1.258-3.172.6.6,0,0,0-.056-.328.489.489,0,0,0-.21-.165,3.041,3.041,0,0,0-1.863-.03,33.118,33.118,0,0,1-6.881.254,1,1,0,0,1-1.057-.6l-.873-1.4c-.249-.4-.645-.859-1.1-.722a.894.894,0,0,0-.494.932,4.979,4.979,0,0,1,.058,1.127,1.54,1.54,0,0,1-.745.969,4.761,4.761,0,0,1-1.165.447,8.944,8.944,0,0,0-3.776,1.721C167.206,180.9,167.274,182.4,167.318,183.311Z" transform="translate(-17.935 -19.815)" fill="#f2f2f2"/>
      <path id="Path_212" data-name="Path 212" d="M166.866,90.9a5.4,5.4,0,0,0,1.272-1.384,5.639,5.639,0,0,0,.543-1.912l.366-2.311a6.962,6.962,0,0,1,1.29-3.594c.85-.971,2.544-1.318,3.408-.359a2.989,2.989,0,0,1,.62,1.547,11.26,11.26,0,0,1-2.753,9.317c-1.046,1.146-2.329,2.057-3.436,3.14-.964.932-1.8,2-2.69,3.014a37.133,37.133,0,0,1-7.33,6.405,32.9,32.9,0,0,0,0-5.313c-.189-1.244-.7-1.915.505-2.728A92.386,92.386,0,0,0,166.866,90.9Z" transform="translate(-17.935 -19.815)" fill="#fbbebe"/>
      <path id="Path_213" data-name="Path 213" d="M143.378,73.855a4.261,4.261,0,0,1-1.63,3.221q4.353,1.523,8.588,3.359a2.975,2.975,0,0,1-.736-2.082,10.512,10.512,0,0,1,1.607-5.613A1.363,1.363,0,0,0,151.47,72c-.033-.55-.685-.8-1.221-.932a30.015,30.015,0,0,0-5.572-.808c-.8-.026-1.756-.28-1.575.743A11.246,11.246,0,0,1,143.378,73.855Z" transform="translate(-17.935 -19.815)" fill="#fbbebe"/>
      <circle id="Ellipse_26" data-name="Ellipse 26" cx="6.808" cy="6.808" r="6.808" transform="translate(124.248 41.088)" fill="#fbbebe"/>
      <path id="Path_214" data-name="Path 214" d="M155.733,86.1a8.237,8.237,0,0,0-.864-1.449,30.138,30.138,0,0,0-4.085-5.01,25.432,25.432,0,0,0-3.878-2.849,8.8,8.8,0,0,0-2.427-1.165,9.5,9.5,0,0,0-1.558-.212l-1.768-.144a1.446,1.446,0,0,0-.466.014,1,1,0,0,0-.6,1.2,2.952,2.952,0,0,0,.787,1.239c.079,3.608-1.526,7.167-1.742,10.77-.38,6.3,3.466,12.161,3.773,18.466a1.991,1.991,0,0,1-.089.846c-.051.13-.128.249-.186.377a3.686,3.686,0,0,0-.207,1.281,6.508,6.508,0,0,1-1.917,4.1,2.849,2.849,0,0,0,1.081.825,19.488,19.488,0,0,0,2.42.578,18.788,18.788,0,0,0,6.31,1.078,5.567,5.567,0,0,0,.487-1.833c.3-.189.652.214.7.568s-.021.766.233,1.023a.959.959,0,0,0,.885.177,39.123,39.123,0,0,0,3.843-.9,7.169,7.169,0,0,1,3.9-.014,1.043,1.043,0,0,0-.061-1.141,5.1,5.1,0,0,1-.613-1.046,2.347,2.347,0,0,1-.075-.687c0-1.991.41-4,.021-5.958-.114-.573-.3-1.132-.412-1.707a14.725,14.725,0,0,1-.168-3.405c.03-1.139-.107-2.371-.13-3.526a11.248,11.248,0,0,0-.093-1.428c-.079-.5-.233-.981-.275-1.481-.126-1.272.387-2.534.31-3.811C158.74,88.939,156.487,87.887,155.733,86.1Z" transform="translate(-17.935 -19.815)" fill="#ff6f61"/>
      <path id="Path_215" data-name="Path 215" d="M140.367,85.187a74.962,74.962,0,0,0-3.261,13.621l-1.863,10.822a52.362,52.362,0,0,0-1.039,9.238,9.889,9.889,0,0,1-.172,2.6,14.041,14.041,0,0,1-1.6,3.028,9.965,9.965,0,0,0-1.071,6.738c.191.967.713,2.064,1.693,2.176a2.346,2.346,0,0,0,1.973-1.214,15.631,15.631,0,0,0,2.1-5.15,116.49,116.49,0,0,0,3.231-17.956,17.48,17.48,0,0,1,.324-2.283,16.2,16.2,0,0,1,.787-2.273q1.069-2.651,2.141-5.3a84.681,84.681,0,0,1,5.565-11.963c-2.236-.643-4.563-1.4-6.8-2.033A6.141,6.141,0,0,0,140.367,85.187Z" transform="translate(-17.935 -19.815)" fill="#fbbebe"/>
      <path id="Path_216" data-name="Path 216" d="M144.243,88.511a25.587,25.587,0,0,0-4.782-.273,1.032,1.032,0,0,1-.643-.168c-.324-.277-.186-.8-.023-1.19l.773-1.863a2.711,2.711,0,0,1,.62-1.03,2.628,2.628,0,0,1,1.47-.5,13.316,13.316,0,0,1,5.092.2,6.09,6.09,0,0,1,3.932,3.047,2.073,2.073,0,0,1,.042,2.038c-.606.869-1.964,1.84-2.977,1.365A15.518,15.518,0,0,0,144.243,88.511Z" transform="translate(-17.935 -19.815)" fill="#ff6f61"/>
      <path id="Path_217" data-name="Path 217" d="M152.565,57.136a6.876,6.876,0,0,0-3.8,1.095,8.327,8.327,0,0,0-8.176-1.915,4.759,4.759,0,1,0-5.5,5.506A8.327,8.327,0,0,0,151.079,66.5a7.453,7.453,0,0,0,1.493.151c3.284,0,5.949-2.131,5.949-4.759S155.844,57.136,152.565,57.136Z" transform="translate(-17.935 -19.815)" fill="#3f3d56"/>
      <path id="Path_218" data-name="Path 218" d="M153.75,64.273a7.243,7.243,0,0,1-1.493-.151,8.285,8.285,0,0,1-1.09,2.4,7.478,7.478,0,0,0,1.4.135c3.07,0,5.59-1.863,5.914-4.249A6.562,6.562,0,0,1,153.75,64.273Z" transform="translate(-17.935 -19.815)" opacity="0.1"/>
      <path id="Path_219" data-name="Path 219" d="M144.233,70.222a8.339,8.339,0,0,1-7.961-10.78,4.759,4.759,0,0,1-3.934-4.686,4.678,4.678,0,0,1,.077-.852,4.759,4.759,0,0,0,2.669,7.919,8.327,8.327,0,1,0,15.906,4.933,8.311,8.311,0,0,1-6.757,3.466Z" transform="translate(-17.935 -19.815)" opacity="0.1"/>
      <rect id="Rectangle_21" data-name="Rectangle 21" width="0.156" height="1.29" rx="0.078" transform="translate(156.592 64.292) rotate(35.51)" fill="#3a3768"/>
      <rect id="Rectangle_22" data-name="Rectangle 22" width="0.089" height="0.424" rx="0.044" transform="translate(152.945 60.446) rotate(35.51)" fill="#3a3768"/>
      <rect id="Rectangle_23" data-name="Rectangle 23" width="0.098" height="0.738" rx="0.049" transform="translate(152.488 61.08) rotate(35.51)" fill="#3a3768"/>
      <rect id="Rectangle_24" data-name="Rectangle 24" width="0.093" height="0.745" rx="0.047" transform="translate(151.913 61.894) rotate(35.51)" fill="#3a3768"/>
      <rect id="Rectangle_25" data-name="Rectangle 25" width="5.236" height="10.642" rx="0.587" transform="translate(154.017 59.768) rotate(35.51)" fill="#3a3768"/>
      <rect id="Rectangle_26" data-name="Rectangle 26" width="5.236" height="10.642" rx="0.587" transform="translate(154.017 59.768) rotate(35.51)" opacity="0.1"/>
      <rect id="Rectangle_27" data-name="Rectangle 27" width="5.236" height="10.642" rx="0.587" transform="translate(153.802 59.334) rotate(35.51)" fill="#3a3768"/>
      <path id="Path_220" data-name="Path 220" d="M175.224,81.989l-.487-.349-.042.058a.34.34,0,0,1-.466.082l-1.556-1.111a.342.342,0,0,1-.079-.477l.042-.058-.466-.326a.415.415,0,0,0-.58.1l-5.376,7.535a.417.417,0,0,0,.1.58L169.37,90.2a.415.415,0,0,0,.58-.1l5.376-7.533a.415.415,0,0,0-.1-.58Z" transform="translate(-17.935 -19.815)" fill="#00a4e4"/>
      <rect id="Rectangle_28" data-name="Rectangle 28" width="0.731" height="0.149" rx="0.075" transform="translate(155.336 60.822) rotate(35.51)" fill="#e6e8ec"/>
      <circle id="Ellipse_27" data-name="Ellipse 27" cx="0.084" cy="0.084" r="0.084" transform="translate(155.952 61.343)" fill="#e6e8ec"/>
      <path id="Path_221" data-name="Path 221" d="M173.994,23.059a15.606,15.606,0,0,0-15.606,15.606c0,8.618,16.351,37.161,16.351,37.161S189.6,47.3,189.6,38.665a15.606,15.606,0,0,0-15.606-15.606Zm0,26.013a3.387,3.387,0,1,1,0,.007Z" transform="translate(-17.935 -19.815)" fill="#00a4e4"/>
      <path id="Path_222" data-name="Path 222" d="M173.994,23.059a15.606,15.606,0,0,0-15.606,15.606c0,8.618,16.351,37.161,16.351,37.161S189.6,47.3,189.6,38.665a15.606,15.606,0,0,0-15.606-15.606Zm0,26.013a3.387,3.387,0,1,1,0,.007Z" transform="translate(-17.935 -19.815)" opacity="0.1"/>
      <path id="Path_223" data-name="Path 223" d="M173.994,19.815a15.606,15.606,0,0,0-15.606,15.606c0,8.618,16.351,40.412,16.351,40.412S189.6,44.043,189.6,35.423a15.606,15.606,0,0,0-15.608-15.608Zm0,26.013a8.176,8.176,0,1,1,8.176-8.176,8.176,8.176,0,0,1-8.176,8.176Z" transform="translate(-17.935 -19.815)" fill="#00a4e4"/>
    </g>
  </g>
</svg>
