<svg xmlns="http://www.w3.org/2000/svg" xmlns:xlink="http://www.w3.org/1999/xlink" width="260" height="170" viewBox="0 0 260 170">
  <defs>
    <clipPath id="clip-path">
      <rect id="Rectangle_15" data-name="Rectangle 15" width="260" height="170" transform="translate(262 1377)" fill="#fff"/>
    </clipPath>
  </defs>
  <g id="_3" data-name="3" transform="translate(-262 -1377)" clip-path="url(#clip-path)">
    <g id="undraw_transfer_money_rywa" transform="translate(274.892 1377)">
      <circle id="Ellipse_28" data-name="Ellipse 28" cx="79.493" cy="79.493" r="79.493" transform="translate(20.886 0)" fill="#f2f2f2"/>
      <ellipse id="Ellipse_29" data-name="Ellipse 29" cx="31.541" cy="5.047" rx="31.541" ry="5.047" transform="translate(0 159.907)" fill="#f2f2f2"/>
      <ellipse id="Ellipse_30" data-name="Ellipse 30" cx="48.804" cy="7.809" rx="48.804" ry="7.809" transform="translate(136.609 149.253)" fill="#f2f2f2"/>
      <path id="Path_224" data-name="Path 224" d="M185.332,92.908s.416,1.385-1.939,2.632-3.047,5.956-.277,7.341,3.6,3.186,2.216,4.432-3.878,4.571-.554,5.4,3.74,2.493,2.77,3.186,2.216-1.246,2.216-1.246.554,3.324,3.463,2.493,11.08-16.62,6.925-18.836S185.332,92.908,185.332,92.908Z" transform="translate(-10.762 -10.903)" fill="#2f2e41"/>
      <path id="Path_225" data-name="Path 225" d="M190.352,106.281s1.437,5.028-1.077,5.388a9.815,9.815,0,0,0-4.31,1.8l4.669,6.106h8.62l5.388-5.388s-7.183-5.388-5.747-8.62S190.352,106.281,190.352,106.281Z" transform="translate(-10.762 -10.903)" fill="#ffb9b9"/>
      <path id="Path_226" data-name="Path 226" d="M190.352,106.281s1.437,5.028-1.077,5.388a9.815,9.815,0,0,0-4.31,1.8l4.669,6.106h8.62l5.388-5.388s-7.183-5.388-5.747-8.62S190.352,106.281,190.352,106.281Z" transform="translate(-10.762 -10.903)" opacity="0.1"/>
      <path id="Path_227" data-name="Path 227" d="M181.744,157.873l8.261,2.873,5.747.359-.359-5.028-11.853-3.505Z" fill="#ffb9b9"/>
      <path id="Path_228" data-name="Path 228" d="M203.1,167.7s0,5.028.718,5.028,10.416-1.078,13.289,0,7.183-2.873,5.028-5.028-5.67-5.388-7.863-4.669-11.172,2.514-11.172,2.514Z" transform="translate(-10.762 -10.903)" fill="#575a89"/>
      <path id="Path_229" data-name="Path 229" d="M176.7,163.03s-4.31,8.62-1.437,9.338a9.964,9.964,0,0,0,6.465-.718c.359-.359,5.388-1.8,6.106-1.077s.718-2.873.718-2.873Z" transform="translate(-10.762 -10.903)" fill="#575a89"/>
      <path id="Path_230" data-name="Path 230" d="M180.295,151.177s-6.824,9.338-1.8,11.853,29.093,2.514,30.888,0,2.514-10.416,0-11.134S180.295,151.177,180.295,151.177Z" transform="translate(-10.762 -10.903)" fill="#2f2e41"/>
      <path id="Path_231" data-name="Path 231" d="M180.295,151.177s-6.824,9.338-1.8,11.853,29.093,2.514,30.888,0,2.514-10.416,0-11.134S180.295,151.177,180.295,151.177Z" transform="translate(-10.762 -10.903)" opacity="0.2"/>
      <circle id="Ellipse_31" data-name="Ellipse 31" cx="8.261" cy="8.261" r="8.261" transform="translate(174.202 81.371)" fill="#ffb9b9"/>
      <path id="Path_232" data-name="Path 232" d="M180.295,113.465l7.183-1.437s1.8,5.747,7.543,4.669,7.183-4.669,7.183-4.669,4.31,1.8,4.669,1.8,5.028,1.8,5.028,2.873-5.388,11.853-5.388,11.853l.718,19.4-26.578-.718,1.8-19.036Z" transform="translate(-10.762 -10.903)" fill="#4285f4"/>
      <path id="Path_233" data-name="Path 233" d="M176.344,122.8s-2.155,19.036-.718,20.473,7.183,5.388,7.183,5.388v-4.31l-2.873-5.388,2.873-12.571Z" transform="translate(-10.762 -10.903)" fill="#ffb9b9"/>
      <path id="Path_234" data-name="Path 234" d="M213.518,122.264s-1.257,19.575-1.257,20.293-3.233,3.233-4.31,3.233-1.8-1.8-1.8-1.8l2.514-2.873-1.8-14.726Z" transform="translate(-10.762 -10.903)" fill="#ffb9b9"/>
      <path id="Path_235" data-name="Path 235" d="M210.106,149.74s16.163-8.979,16.522,0-8.261,12.571-8.261,12.571-22.268,6.677-23.166,4.237-2.694-6.392-1.257-6.751,3.232-1.077,3.951-.359,9.7-5.388,9.7-5.388Z" transform="translate(-10.762 -10.903)" fill="#2f2e41"/>
      <path id="Path_236" data-name="Path 236" d="M217.648,148.663a20.431,20.431,0,0,0-4.31,2.514c-1.077,1.077-5.747,2.873-5.747,2.873" transform="translate(-10.762 -10.903)" fill="none" stroke="#000" stroke-miterlimit="10" stroke-width="0.426" opacity="0.2"/>
      <path id="Path_237" data-name="Path 237" d="M182.45,114.183l-2.155-.718s-7.9,8.261-5.387,10.416,3.951,2.873,4.669,3.592,4.31,1.077,4.31,1.077Z" transform="translate(-10.762 -10.903)" fill="#4285f4"/>
      <path id="Path_238" data-name="Path 238" d="M208.669,115.979l3.232.718s2.514,5.388,3.232,6.106-1.077.359-2.155,1.8-2.155,3.951-4.31,3.951-5.028-3.592-5.028-3.592Z" transform="translate(-10.762 -10.903)" fill="#4285f4"/>
      <path id="Path_239" data-name="Path 239" d="M181.013,152.973s-13.648-9.7-18.318-2.514,20.113,16.881,23.705,18.318,6.824,2.873,6.824,2.873,3.232-7.9,3.232-9.338-2.514-1.437-3.232-1.437-3.951-.718-4.669-1.8S181.013,152.973,181.013,152.973Z" transform="translate(-10.762 -10.903)" fill="#2f2e41"/>
      <path id="Path_240" data-name="Path 240" d="M173.471,150.459s3.592,2.873,6.824,3.592,4.31,2.514,4.31,2.514" transform="translate(-10.762 -10.903)" fill="none" stroke="#000" stroke-miterlimit="10" stroke-width="0.426" opacity="0.2"/>
      <path id="Path_241" data-name="Path 241" d="M178.536,136.954l.287,15.207a1.9,1.9,0,0,0,1.925,1.868l28.3-.318a1.9,1.9,0,0,0,1.879-1.794l.859-14.889a1.9,1.9,0,0,0-1.9-2.013H180.439a1.9,1.9,0,0,0-1.9,1.94Z" transform="translate(-10.762 -10.903)" fill="#575a89"/>
      <path id="Path_242" data-name="Path 242" d="M193.666,90.157s.46,1.534-2.148,2.915-3.375,6.6-.307,8.132,3.989,3.529,2.455,4.91-4.3,5.063-.614,5.984,4.143,2.762,3.069,3.529,2.455-1.381,2.455-1.381.614,3.682,3.836,2.762,6.437-17.655,2.845-21.965C201.917,91.036,193.666,90.157,193.666,90.157Z" transform="translate(-10.762 -10.903)" fill="#2f2e41"/>
      <path id="Path_243" data-name="Path 243" d="M192.686,88.578c0-2.248,6.726-.633,9.609,2.506,2,2.173,5.029,5.443,2.488,7.748s4.356,5.326,6.206,6.242,5.5,3.717,2.2,5.6-3.245,3.776-2,4.226-2.736-.668-2.736-.668.4,3.711-2.949,3.694S192.54,99.489,194.837,94.37C196.972,89.61,192.686,88.578,192.686,88.578Z" transform="translate(-10.762 -10.903)" fill="#2f2e41"/>
      <path id="Path_244" data-name="Path 244" d="M194.143,88.085c-8.993-.542-9.9,6.228-9.9,6.228.062,3.917,6.283,2.009,8.011,2.593,2.085-1.5,6.1-4.337,8.976-6.362A13.591,13.591,0,0,0,194.143,88.085Z" transform="translate(-10.762 -10.903)" fill="#2f2e41"/>
      <path id="Path_245" data-name="Path 245" d="M191.581,131.282s-8.067-37.807-58.559-65.233" transform="translate(-10.762 -10.903)" fill="none" stroke="#3f3d56" stroke-miterlimit="10" stroke-width="0.426"/>
      <path id="Path_246" data-name="Path 246" d="M124.34,54.322l.1.415-2.042.5.643,2-.406.13-.783-2.437Z" fill="#3f3d56"/>
      <path id="Path_247" data-name="Path 247" d="M25.355,169.913c0,4.788-2.846,6.46-6.358,6.46l-.244,0c-.163,0-.324-.011-.483-.022-3.169-.224-5.631-1.982-5.631-6.436,0-4.609,5.889-10.424,6.332-10.854h0l.026-.025S25.355,165.124,25.355,169.913Z" transform="translate(-10.762 -10.903)" fill="#00bd90"/>
      <path id="Path_248" data-name="Path 248" d="M18.766,175.641l2.325-3.249L18.76,176l-.006.373c-.163,0-.324-.011-.483-.022l.251-4.791,0-.037,0-.007.024-.452-2.337-3.615,2.344,3.276.005.1.189-3.62-2-3.736,2.025,3.1.2-7.5v0l-.033,5.918,1.992-2.346-2,2.856-.053,3.241,1.86-3.11L18.87,169.2l-.029,1.8,2.7-4.329-2.71,4.958Z" transform="translate(-10.762 -10.903)" fill="#3f3d56"/>
      <path id="Path_249" data-name="Path 249" d="M55.682,168.672l1.36-1.01s.9,5.029-.1,5.782-4.772,2.009-4.772,3.516-8.539,3.516-8.79,1.256a4.981,4.981,0,0,1,.753-3.516s4.018-4.018,4.521-4.772,1.758-2.26,1.758-2.26Z" transform="translate(-10.762 -10.903)" fill="#2f2e41"/>
      <path id="Path_250" data-name="Path 250" d="M35.59,106.136s.038.221.1.625c.06.359.143.866.244,1.492,1.055,6.437,4.131,25.386,3.923,26.012-.251.753-2.009,3.516,0,4.27a1.558,1.558,0,0,1,.625.681,14.6,14.6,0,0,1,1.062,2.507,110.13,110.13,0,0,1,3.22,12.892c.324,1.693.545,3.054.61,3.767a2.049,2.049,0,0,1,.008.5c-.251,1,1.507,4.521,2.26,5.525s2.009,2.009,1.758,3.014,6.279,3.767,7.032,2.009a32.057,32.057,0,0,0,1-3.265c.251-.5.5-4.018-.753-4.521s-.5-9.293-1.758-11.051a24.135,24.135,0,0,1-1.73-4.95c-.264-.934-.53-1.929-.791-2.926-1.06-4.086-2-8.2-2-8.2l.251-29.385-13.813-1.758-.354.781-.706,1.55Z" transform="translate(-10.762 -10.903)" fill="#2f2e41"/>
      <path id="Path_251" data-name="Path 251" d="M34.836,154.357s-2.009-2.009-3.014,0-2.009,9.795-3.767,11.553-4.018,10.548-1.507,11.051,5.274-.753,5.525-2.26,5.525-9.293,5.525-10.046-3.516-3.516-3.516-3.516Z" transform="translate(-10.762 -10.903)" fill="#2f2e41"/>
      <path id="Path_252" data-name="Path 252" d="M65.728,92.322s-3.265,29.385-4.018,32.147-4.772,13.311-6.028,15.069-9.293,16.074-10.3,16.827-3.014,2.763-3.014,2.763S38.6,162.9,38.1,163.649s-4.772-1.507-5.023-3.014a15.485,15.485,0,0,1,.5-5.023c.251-1-.5-2.512.251-3.265s4.521-4.521,4.521-6.279,6.53-12.055,9.041-14.316,2.009-6.028,2.009-6.028v-15.32l-13.813-4.27S36.343,94.08,38.1,94.08,62.965,90.062,65.728,92.322Z" transform="translate(-10.762 -10.903)" fill="#2f2e41"/>
      <circle id="Ellipse_32" data-name="Ellipse 32" cx="8.288" cy="8.288" r="8.288" transform="translate(26.334 22.901)" fill="#9f616a"/>
      <path id="Path_253" data-name="Path 253" d="M48.147,48.622s1,3.767,2.26,4.772-3.265,5.274-3.265,5.274l-8.539.5L37.1,54.4s2.763-5.525,2.009-9.041S48.147,48.622,48.147,48.622Z" transform="translate(-10.762 -10.903)" fill="#9f616a"/>
      <path id="Path_254" data-name="Path 254" d="M51.664,52.892s-2.26.251-2.763,1-4.018,3.014-6.781,2.512-4.521-1.256-5.023-1-1.507,5.525-1.507,5.525l2.763,8.037-.5,22.1L37.1,97.094s-1.507-2.009,4.521-.753,13.813-1,16.325-1.256,6.781-1,7.032-2.512-.753-7.032-.753-7.032L60.2,68.714l-2.512-9.041Z" transform="translate(-10.762 -10.903)" fill="#a60013"/>
      <path id="Path_255" data-name="Path 255" d="M49.288,51.758s2.124-1.127,2.878-.122,10.3,2.512,10.3,3.265S64.472,76,63.97,77.756s1,3.767,1,3.767l1.758,7.535S71.5,103.373,69.5,103.875a13.076,13.076,0,0,1-4.521,0c-.753,0-.5-9.544-2.512-12.055s-4.772-8.79-5.274-10.046-6.781-18.585-6.53-20.594S49.288,51.758,49.288,51.758Z" transform="translate(-10.762 -10.903)" fill="#d0cde1"/>
      <path id="Path_256" data-name="Path 256" d="M38.855,52.892s-2.009,0-2.26.5a27.488,27.488,0,0,1-3.767,4.521c-1,.753-4.521,4.018-4.521,4.772s7.283,6.279,7.283,6.279S38.6,83.783,37.1,88.806s-3.767,17.078-2.763,17.832,3.265,1,3.265,0,1.507-11.8,2.763-14.064S45.385,76,43.878,71.979,38.855,52.892,38.855,52.892Z" transform="translate(-10.762 -10.903)" fill="#d0cde1"/>
      <path id="Path_257" data-name="Path 257" d="M72.007,77.756s.251,7.786-2.512,11.8A47.729,47.729,0,0,0,64.975,98.1s-4.521-1.256-5.274-2.763-5.525-.251-5.525-.753,5.776-3.014,6.279-3.516,2.26-.5,3.265-1.507a6.647,6.647,0,0,0,1.256-3.265l1-6.53Z" transform="translate(-10.762 -10.903)" fill="#9f616a"/>
      <path id="Path_258" data-name="Path 258" d="M51.093,36.982a4.776,4.776,0,0,0,1.859-.426,2.489,2.489,0,0,0,.636-3.685,4.762,4.762,0,0,0-.883-.71l-1.909-1.3a9.338,9.338,0,0,0-2.693-1.43,8.408,8.408,0,0,0-2.753-.163,18.605,18.605,0,0,0-5.274.959A8.827,8.827,0,0,0,35.8,33.356a9.394,9.394,0,0,0-.748,8.193A27.79,27.79,0,0,0,39.3,48.9l.865-4.219a1.557,1.557,0,0,1,.489-1.01c.777-.553,1.727.582,2.68.575a1.605,1.605,0,0,0,1.359-1.075,6.128,6.128,0,0,0,.3-1.8c.114-1.292.565-3.091,1.789-3.8C47.924,36.9,49.811,37.1,51.093,36.982Z" transform="translate(-10.762 -10.903)" fill="#2f2e41"/>
      <path id="Path_259" data-name="Path 259" d="M50.628,106.338s-.848,24.536-1.351,25.289,0-25.366,0-25.366Z" transform="translate(-10.762 -10.903)" opacity="0.1"/>
      <path id="Path_260" data-name="Path 260" d="M60.454,54.9h2.009S71,66.454,70,67.207s0,2.763,0,2.763l2.009,3.767S74.518,76,73.765,76.5a9.178,9.178,0,0,0-1.758,2.512s-5.023-.753-6.53,2.26L62.22,77.159Z" transform="translate(-10.762 -10.903)" fill="#d0cde1"/>
      <rect id="Rectangle_29" data-name="Rectangle 29" width="7.459" height="13.9" transform="matrix(0.924, -0.382, 0.382, 0.924, 43.507, 50.561)" fill="#2f2e41"/>
      <ellipse id="Ellipse_33" data-name="Ellipse 33" cx="1.492" cy="1.37" rx="1.492" ry="1.37" transform="matrix(0.924, -0.382, 0.382, 0.924, 47.168, 53.285)" fill="#4285f4"/>
      <path id="Path_261" data-name="Path 261" d="M55.431,74.993s-18.083,15.069-21.1,10.3S37.6,76.5,37.6,76.5a22.122,22.122,0,0,0,11.8-3.767l6.279-2.763s5.732-8.184,7.685-5.067S60.033,73.442,55.431,74.993Z" transform="translate(-10.762 -10.903)" fill="#9f616a"/>
      <path id="Path_262" data-name="Path 262" d="M31.069,61.682l-2.763,1v7.535l-1,1.507s.251,3.014,1,3.767,2.26.5,1.758,2.26a9.519,9.519,0,0,0-.251,3.516s4.521,5.776,4.772,5.023,3.767-10.046,4.27-10.046-5.023-14.567-5.023-14.567Z" transform="translate(-10.762 -10.903)" fill="#d0cde1"/>
      <path id="Path_263" data-name="Path 263" d="M64.1,99.731s2.6-2.512,1.3-2.637-5.819-2.637-6.573-1.381S64.1,99.731,64.1,99.731Z" transform="translate(-10.762 -10.903)" fill="#2f2e41"/>
      <ellipse id="Ellipse_34" data-name="Ellipse 34" cx="3.623" cy="1.918" rx="3.623" ry="1.918" transform="translate(99.1 37.083)" fill="#57b894"/>
      <path id="Path_264" data-name="Path 264" d="M127.338,56.3a33.6,33.6,0,0,0-24.509,0V46.281a42.419,42.419,0,0,1,24.509,0Z" transform="translate(-10.762 -10.903)" fill="none" stroke="#3f3d56" stroke-miterlimit="10" stroke-width="0.426"/>
      <path id="Path_265" data-name="Path 265" d="M123.928,54.226a24.253,24.253,0,0,0-17.689,0V47a30.615,30.615,0,0,1,17.689,0Z" transform="translate(-10.762 -10.903)" fill="none" stroke="#3f3d56" stroke-miterlimit="10" stroke-width="0.426"/>
      <ellipse id="Ellipse_35" data-name="Ellipse 35" cx="3.623" cy="1.918" rx="3.623" ry="1.918" transform="translate(100.379 36.23)" fill="none" stroke="#3f3d56" stroke-miterlimit="10" stroke-width="0.426"/>
      <ellipse id="Ellipse_36" data-name="Ellipse 36" cx="3.623" cy="1.918" rx="3.623" ry="1.918" transform="translate(101.069 49.897) rotate(-11.535)" fill="#57b894"/>
      <path id="Path_266" data-name="Path 266" d="M130.617,65.449a33.6,33.6,0,0,0-24.014,4.9l-2-9.814a42.419,42.419,0,0,1,24.014-4.9Z" transform="translate(-10.762 -10.903)" fill="none" stroke="#3f3d56" stroke-miterlimit="10" stroke-width="0.426"/>
      <path id="Path_267" data-name="Path 267" d="M126.862,64.1a24.253,24.253,0,0,0-17.331,3.537l-1.446-7.083a30.615,30.615,0,0,1,17.331-3.537Z" transform="translate(-10.762 -10.903)" fill="none" stroke="#3f3d56" stroke-miterlimit="10" stroke-width="0.426"/>
      <ellipse id="Ellipse_37" data-name="Ellipse 37" cx="3.623" cy="1.918" rx="3.623" ry="1.918" transform="translate(102.152 48.806) rotate(-11.535)" fill="none" stroke="#3f3d56" stroke-miterlimit="10" stroke-width="0.426"/>
      <ellipse id="Ellipse_38" data-name="Ellipse 38" cx="1.918" cy="3.623" rx="1.918" ry="3.623" transform="matrix(0.069, -0.998, 0.998, 0.069, 100.505, 64.635)" fill="#57b894"/>
      <path id="Path_268" data-name="Path 268" d="M128.39,81.216a33.6,33.6,0,0,0-24.449-1.7l.7-9.992a42.419,42.419,0,0,1,24.449,1.7Z" transform="translate(-10.762 -10.903)" fill="none" stroke="#3f3d56" stroke-miterlimit="10" stroke-width="0.426"/>
      <path id="Path_269" data-name="Path 269" d="M125.132,78.913a24.253,24.253,0,0,0-17.646-1.228l.5-7.212A30.615,30.615,0,0,1,125.634,71.7Z" transform="translate(-10.762 -10.903)" fill="none" stroke="#3f3d56" stroke-miterlimit="10" stroke-width="0.426"/>
      <ellipse id="Ellipse_39" data-name="Ellipse 39" cx="1.918" cy="3.623" rx="1.918" ry="3.623" transform="matrix(0.069, -0.998, 0.998, 0.069, 101.84, 63.873)" fill="none" stroke="#3f3d56" stroke-miterlimit="10" stroke-width="0.426"/>
      <path id="Path_270" data-name="Path 270" d="M99.19,56.53s-15.663-2.143-26.849,4.412" transform="translate(-10.762 -10.903)" fill="none" stroke="#3f3d56" stroke-miterlimit="10" stroke-width="0.426"/>
      <path id="Path_271" data-name="Path 271" d="M61.955,47.836l.407.129-.636,2,2.045.488-.1.415-2.49-.595Z" fill="#3f3d56"/>
    </g>
  </g>
</svg>
