<svg xmlns="http://www.w3.org/2000/svg" xmlns:xlink="http://www.w3.org/1999/xlink" width="260" height="170" viewBox="0 0 260 170">
  <defs>
    <clipPath id="clip-path">
      <rect id="Rectangle_15" data-name="Rectangle 15" width="260" height="170" transform="translate(262 1377)" fill="#fff" stroke="#707070" stroke-width="1"/>
    </clipPath>
  </defs>
  <g id="_6" data-name="6" transform="translate(-262 -1377)" clip-path="url(#clip-path)">
    <g id="undraw_note_list_etto" transform="translate(289.156 1377)">
      <path id="Path_336" data-name="Path 336" d="M229.552,172.373v1.056a4.036,4.036,0,0,1-4.416,4.012c-8.268-.786-16.5-2.247-24.792-1.991-15.294.467-30.714,6.722-45.518,2.857-4.175-1.09-8.3-2.984-12.6-2.576-3.854.365-7.284,2.545-11.017,3.567-11.355,3.117-22.917-4.76-34.688-4.441-7.759.211-15.188,3.989-22.938,3.569-4.492-.241-8.77-1.884-13.152-2.9-10.91-2.521-22.144-1.113-33.385-.239a2.957,2.957,0,0,1-3.182-2.942v-.9a2.957,2.957,0,0,1,2.957-2.956l198.7-.161a4.036,4.036,0,0,1,4.029,4.044Z" transform="translate(-23.863 -10.029)" fill="#3f3d56"/>
      <path id="Path_337" data-name="Path 337" d="M229.552,172.373v1.056a4.036,4.036,0,0,1-4.416,4.012c-8.268-.786-16.5-2.247-24.792-1.991-15.294.467-30.714,6.722-45.518,2.857-4.175-1.09-8.3-2.984-12.6-2.576-3.854.365-7.284,2.545-11.017,3.567-11.355,3.117-22.917-4.76-34.688-4.441-7.759.211-15.188,3.989-22.938,3.569-4.492-.241-8.77-1.884-13.152-2.9-10.91-2.521-22.144-1.113-33.385-.239a2.957,2.957,0,0,1-3.182-2.942v-.9a2.957,2.957,0,0,1,2.957-2.956l198.7-.161a4.036,4.036,0,0,1,4.029,4.044Z" transform="translate(-23.863 -10.029)" opacity="0.1"/>
      <path id="Path_338" data-name="Path 338" d="M229.552,170.443V171.5a4.31,4.31,0,0,1-.023.439,4.036,4.036,0,0,1-4.393,3.59c-8.268-.788-16.5-2.249-24.792-1.994-15.294.469-30.714,6.724-45.518,2.857-4.175-1.09-8.3-2.984-12.6-2.576-3.854.365-7.284,2.545-11.017,3.569-11.355,3.109-22.917-4.768-34.688-4.452-7.759.211-15.188,3.989-22.938,3.571-4.492-.243-8.77-1.884-13.152-2.9-10.907-2.519-22.144-1.111-33.385-.237a2.957,2.957,0,0,1-3.138-2.429,2.893,2.893,0,0,1-.044-.52v-.9a2.957,2.957,0,0,1,2.957-2.957l49.8-.04,101.748-.084,47.152-.038a4.036,4.036,0,0,1,4.029,4.044Z" transform="translate(-23.863 -10.029)" fill="#3f3d56"/>
      <path id="Path_339" data-name="Path 339" d="M180.894,167.043c0,.467-.921.914-2.619,1.335-6.8,1.679-26.015,2.889-48.7,2.889-22.315,0-41.3-1.172-48.36-2.811-1.9-.441-2.957-.917-2.957-1.413,0-.173.127-.344.376-.513l101.748-.084C180.721,166.642,180.894,166.832,180.894,167.043Z" transform="translate(-23.863 -10.029)" opacity="0.1"/>
      <g id="Group_77" data-name="Group 77" opacity="0.5">
        <rect id="Rectangle_47" data-name="Rectangle 47" width="84.894" height="25.553" rx="4.019" transform="translate(116.571)" fill="#36334a"/>
        <rect id="Rectangle_48" data-name="Rectangle 48" width="19.64" height="4.435" transform="translate(126.919 5.491)" fill="#d0d0d0"/>
        <rect id="Rectangle_49" data-name="Rectangle 49" width="60.186" height="2.323" transform="translate(126.919 12.671)" fill="#d0d0d0" opacity="0.3"/>
        <rect id="Rectangle_50" data-name="Rectangle 50" width="24.074" height="2.323" transform="translate(126.919 17.739)" fill="#d0d0d0" opacity="0.3"/>
      </g>
      <g id="Group_78" data-name="Group 78" opacity="0.5">
        <rect id="Rectangle_51" data-name="Rectangle 51" width="84.894" height="25.553" rx="4.019" transform="translate(10.137 20.803)" fill="#36334a"/>
        <rect id="Rectangle_52" data-name="Rectangle 52" width="19.64" height="4.435" transform="translate(20.484 26.294)" fill="#36334a"/>
        <rect id="Rectangle_53" data-name="Rectangle 53" width="60.186" height="2.323" transform="translate(20.484 33.474)" fill="#36334a"/>
        <rect id="Rectangle_54" data-name="Rectangle 54" width="24.074" height="2.323" transform="translate(20.484 38.542)" fill="#36334a"/>
        <rect id="Rectangle_55" data-name="Rectangle 55" width="84.894" height="25.553" rx="4.019" transform="translate(10.137 20.803)" fill="#36334a"/>
        <rect id="Rectangle_56" data-name="Rectangle 56" width="19.64" height="4.435" transform="translate(20.484 26.294)" fill="#4d76ff"/>
        <rect id="Rectangle_57" data-name="Rectangle 57" width="60.186" height="2.323" transform="translate(20.484 33.474)" fill="#4d76ff" opacity="0.3"/>
        <rect id="Rectangle_58" data-name="Rectangle 58" width="24.074" height="2.323" transform="translate(20.484 38.542)" fill="#4d76ff" opacity="0.3"/>
      </g>
      <rect id="Rectangle_59" data-name="Rectangle 59" width="2.177" height="17.954" rx="0.484" transform="translate(140.979 44.673)" fill="#3f3d56"/>
      <rect id="Rectangle_60" data-name="Rectangle 60" width="1.223" height="5.911" rx="0.317" transform="translate(68.583 30.606)" fill="#3f3d56"/>
      <rect id="Rectangle_61" data-name="Rectangle 61" width="1.377" height="10.289" rx="0.357" transform="translate(68.538 41.427)" fill="#3f3d56"/>
      <rect id="Rectangle_62" data-name="Rectangle 62" width="1.311" height="10.377" rx="0.34" transform="translate(68.559 55.316)" fill="#3f3d56"/>
      <rect id="Rectangle_63" data-name="Rectangle 63" width="72.878" height="148.115" rx="7.537" transform="translate(69.275 11.072)" fill="#3f3d56"/>
      <rect id="Rectangle_64" data-name="Rectangle 64" width="10.177" height="2.067" rx="0.536" transform="translate(98.684 15.496)" fill="#e6e8ec"/>
      <circle id="Ellipse_88" data-name="Ellipse 88" cx="1.172" cy="1.172" r="1.172" transform="translate(110.4 15.357)" fill="#e6e8ec"/>
      <path id="Path_340" data-name="Path 340" d="M161.516,30.748V159.567a5.788,5.788,0,0,1-5.788,5.786h-52.3a5.788,5.788,0,0,1-5.788-5.786V30.748a5.788,5.788,0,0,1,5.788-5.788h7.826v1.016a4.768,4.768,0,0,0,4.766,4.766h26.609a4.766,4.766,0,0,0,4.756-4.766V24.97h8.344a5.788,5.788,0,0,1,5.788,5.778Z" transform="translate(-23.863 -10.029)" fill="#36334a"/>
      <rect id="Rectangle_65" data-name="Rectangle 65" width="6.547" height="0.845" transform="translate(75.602 27.242)" fill="#3f3d56"/>
      <rect id="Rectangle_66" data-name="Rectangle 66" width="6.547" height="0.845" transform="translate(75.602 28.72)" fill="#3f3d56"/>
      <rect id="Rectangle_67" data-name="Rectangle 67" width="6.547" height="0.845" transform="translate(75.602 30.199)" fill="#3f3d56"/>
      <rect id="Rectangle_68" data-name="Rectangle 68" width="6.547" height="0.845" transform="translate(75.602 27.242)" fill="#3f3d56"/>
      <rect id="Rectangle_69" data-name="Rectangle 69" width="6.547" height="0.845" transform="translate(75.602 28.72)" fill="#3f3d56"/>
      <rect id="Rectangle_70" data-name="Rectangle 70" width="6.547" height="0.845" transform="translate(75.602 30.199)" fill="#3f3d56"/>
      <path id="Path_341" data-name="Path 341" d="M158.524,39.383h-.192l-.074-.061a1.607,1.607,0,0,0,.376-1.033,1.571,1.571,0,1,0-1.563,1.58,1.632,1.632,0,0,0,1.031-.376l.072.061v.194l1.212,1.214.363-.363Zm-1.453,0a1.088,1.088,0,1,1,.773-.32,1.094,1.094,0,0,1-.773.32Z" transform="translate(-23.863 -10.029)" fill="#3f3d56"/>
      <rect id="Rectangle_71" data-name="Rectangle 71" width="19.64" height="4.435" transform="translate(75.602 42.236)" fill="#fff"/>
      <rect id="Rectangle_72" data-name="Rectangle 72" width="60.186" height="2.323" transform="translate(75.602 49.416)" fill="#fff" opacity="0.3"/>
      <rect id="Rectangle_73" data-name="Rectangle 73" width="24.074" height="2.323" transform="translate(75.602 54.484)" fill="#fff" opacity="0.3"/>
      <rect id="Rectangle_74" data-name="Rectangle 74" width="19.64" height="4.435" transform="translate(75.602 93.764)" fill="#fff"/>
      <rect id="Rectangle_75" data-name="Rectangle 75" width="60.186" height="2.323" transform="translate(75.602 100.944)" fill="#fff" opacity="0.3"/>
      <rect id="Rectangle_76" data-name="Rectangle 76" width="24.074" height="2.323" transform="translate(75.602 106.012)" fill="#fff" opacity="0.3"/>
      <rect id="Rectangle_77" data-name="Rectangle 77" width="19.64" height="4.435" transform="translate(75.602 119.528)" fill="#fff"/>
      <rect id="Rectangle_78" data-name="Rectangle 78" width="60.186" height="2.323" transform="translate(75.602 126.708)" fill="#fff" opacity="0.3"/>
      <rect id="Rectangle_79" data-name="Rectangle 79" width="24.074" height="2.323" transform="translate(75.602 131.776)" fill="#fff" opacity="0.3"/>
      <circle id="Ellipse_89" data-name="Ellipse 89" cx="7.18" cy="7.18" r="7.18" transform="translate(117.838 135.577)" fill="#fff"/>
      <path id="Path_342" data-name="Path 342" d="M152.541,152.22v3.47a.264.264,0,0,1-.264.264H145.2a.264.264,0,0,1-.264-.264v-5.527a.264.264,0,0,1,.264-.264h4.923" transform="translate(-23.863 -10.029)" fill="none" stroke="#4d76ff" stroke-linecap="round" stroke-miterlimit="10" stroke-width="0.211" opacity="0.508"/>
      <line id="Line_20" data-name="Line 20" x2="5.764" transform="translate(121.076 142.388)" fill="none" stroke="#4d76ff" stroke-linecap="round" stroke-miterlimit="10" stroke-width="0.211"/>
      <line id="Line_21" data-name="Line 21" x2="5.767" transform="translate(121.159 143.575)" fill="none" stroke="#4d76ff" stroke-linecap="round" stroke-miterlimit="10" stroke-width="0.211" opacity="0.508"/>
      <line id="Line_22" data-name="Line 22" x2="5.767" transform="translate(121.243 144.761)" fill="none" stroke="#4d76ff" stroke-linecap="round" stroke-miterlimit="10" stroke-width="0.211" opacity="0.508"/>
      <line id="Line_23" data-name="Line 23" y2="2.882" transform="translate(127.519 139.59)" fill="none" stroke="#f0f" stroke-miterlimit="10" stroke-width="0.211"/>
      <line id="Line_24" data-name="Line 24" x1="2.885" transform="translate(126.077 141.032)" fill="none" stroke="#f0f" stroke-miterlimit="10" stroke-width="0.211"/>
      <line id="Line_25" data-name="Line 25" y2="2.882" transform="translate(127.519 139.59)" fill="none" stroke="#4d76ff" stroke-linecap="round" stroke-miterlimit="10" stroke-width="0.211"/>
      <line id="Line_26" data-name="Line 26" x1="2.885" transform="translate(126.077 141.032)" fill="none" stroke="#4d76ff" stroke-linecap="round" stroke-miterlimit="10" stroke-width="0.211"/>
      <path id="Path_343" data-name="Path 343" d="M211.517,167.394c.634-1.164-.084-2.591-.906-3.628s-1.818-2.112-1.8-3.44c.032-1.9,2.048-3.022,3.66-4.031a17.738,17.738,0,0,0,3.286-2.642,4.816,4.816,0,0,0,1.009-1.352,5.48,5.48,0,0,0,.3-2.4q-.108-4.067-.4-8.128" transform="translate(-23.863 -10.029)" fill="none" stroke="#3f3d56" stroke-miterlimit="10" stroke-width="0.845"/>
      <path id="Path_344" data-name="Path 344" d="M219.734,141.623a2.956,2.956,0,0,0-1.478-2.429l-.663,1.314.021-1.59a3,3,0,0,0-.978-.118,2.957,2.957,0,1,0,3.1,2.823Z" transform="translate(-23.863 -10.029)" fill="#57b894"/>
      <path id="Path_345" data-name="Path 345" d="M214.449,161.683a2.956,2.956,0,1,1,.144-2.386L212.74,160.8l2.038-.471A2.957,2.957,0,0,1,214.449,161.683Z" transform="translate(-23.863 -10.029)" fill="#57b894"/>
      <path id="Path_346" data-name="Path 346" d="M212.985,155.929a2.956,2.956,0,0,1-.94-5.814l-.017,1.221.672-1.328h0a2.957,2.957,0,0,1,3.1,2.821,2.923,2.923,0,0,1-.127,1.012,2.956,2.956,0,0,1-2.686,2.089Z" transform="translate(-23.863 -10.029)" fill="#57b894"/>
      <path id="Path_347" data-name="Path 347" d="M220.18,151.141a2.957,2.957,0,1,1,1.311-5.548l-.524,1.436,1.077-1.035a2.957,2.957,0,0,1,.961,2.042,2.913,2.913,0,0,1-.074.817,2.956,2.956,0,0,1-2.752,2.287Z" transform="translate(-23.863 -10.029)" fill="#57b894"/>
      <path id="Path_348" data-name="Path 348" d="M219.335,142.413c-.684.074-1.349.287-2.036.329a2.214,2.214,0,0,1-1.875-.655,9.171,9.171,0,0,1-.547-.965,2.112,2.112,0,0,0-.748-.7,2.957,2.957,0,1,0,5.541,1.968Q219.5,142.394,219.335,142.413Z" transform="translate(-23.863 -10.029)" opacity="0.1"/>
      <path id="Path_349" data-name="Path 349" d="M220.18,151.141a2.956,2.956,0,0,1-2.819-4.224,2.189,2.189,0,0,1,.6.6,9.7,9.7,0,0,0,.587.98,2.428,2.428,0,0,0,1.966.688c.716-.032,1.406-.237,2.112-.3.1,0,.2-.015.3-.017a2.957,2.957,0,0,1-2.741,2.279Z" transform="translate(-23.863 -10.029)" opacity="0.1"/>
      <path id="Path_350" data-name="Path 350" d="M212.985,155.929a2.956,2.956,0,0,1-2.842-4.173,2.424,2.424,0,0,1,.634.6,9.967,9.967,0,0,0,.644,1,2.751,2.751,0,0,0,2.1.735c.756-.017,1.442-.2,2.171-.253a2.957,2.957,0,0,1-2.7,2.089Z" transform="translate(-23.863 -10.029)" opacity="0.1"/>
      <path id="Path_351" data-name="Path 351" d="M214.449,161.683a2.96,2.96,0,0,1-5.4-2.418,2.923,2.923,0,0,1,.65.581,12.887,12.887,0,0,0,.794,1.056,3.692,3.692,0,0,0,2.456.864,12.665,12.665,0,0,0,1.5-.082Z" transform="translate(-23.863 -10.029)" opacity="0.1"/>
      <path id="Path_352" data-name="Path 352" d="M207.047,166.053a8.569,8.569,0,0,0,3.045-.574c.705-.5,3.59-1.1,3.772-.3s3.516,4.012.876,4.025-6.137-.41-6.842-.845S207.047,166.053,207.047,166.053Z" transform="translate(-23.863 -10.029)" fill="#656380"/>
      <path id="Path_353" data-name="Path 353" d="M214.786,168.929c-2.642.021-6.137-.412-6.84-.845-.536-.327-.75-1.5-.821-2.038h-.078s.148,1.888.845,2.323,4.2.859,6.842.845c.762,0,1.024-.277,1.009-.678C215.644,168.773,215.354,168.922,214.786,168.929Z" transform="translate(-23.863 -10.029)" opacity="0.2"/>
      <path id="Path_354" data-name="Path 354" d="M159.44,79.936V97.451a4.012,4.012,0,0,1-4.012,4.012H97.639V75.911h57.789a4.012,4.012,0,0,1,4.012,4.025Z" transform="translate(-23.863 -10.029)" fill="#3f3d56"/>
      <rect id="Rectangle_80" data-name="Rectangle 80" width="84.894" height="25.553" rx="4.019" transform="translate(43.925 62.298)" fill="#f2f2f2"/>
      <rect id="Rectangle_81" data-name="Rectangle 81" width="84.894" height="25.553" rx="4.019" transform="translate(43.925 62.298)" fill="#f2f2f2"/>
      <rect id="Rectangle_82" data-name="Rectangle 82" width="19.64" height="4.435" transform="translate(54.273 67.789)" fill="#4d76ff"/>
      <rect id="Rectangle_83" data-name="Rectangle 83" width="60.186" height="2.323" transform="translate(54.273 74.969)" fill="#4d76ff" opacity="0.3"/>
      <rect id="Rectangle_84" data-name="Rectangle 84" width="24.074" height="2.323" transform="translate(54.273 80.037)" fill="#4d76ff" opacity="0.3"/>
      <circle id="Ellipse_90" data-name="Ellipse 90" cx="7.55" cy="7.55" r="7.55" transform="translate(11.951 44.578)" fill="#3f3d56"/>
      <path id="Path_355" data-name="Path 355" d="M38.984,120.885c.779,5.467-.171,11.043-1.651,16.362a12.151,12.151,0,0,1-1.092,2.878,30.69,30.69,0,0,1-1.846,2.49,21.617,21.617,0,0,0-2.705,5.837,164.647,164.647,0,0,0-4.819,17.173,1.176,1.176,0,0,0,0,.733c.184.422.741.477,1.2.475L34,166.8c.211-.405-.18-.845-.422-1.233-.845-1.314-.034-3.02.712-4.395a47.249,47.249,0,0,0,4.177-10.559,28.631,28.631,0,0,1,1.394-4.589,46.08,46.08,0,0,1,3.058-4.948,41.445,41.445,0,0,0,2.891-6.109A39.581,39.581,0,0,0,48.666,126a35.813,35.813,0,0,0-.063-8.829.558.558,0,0,0-.646-.634l-7.951-.41c-1.639-.084-2.027-.443-1.778,1.166C38.4,118.5,38.811,119.669,38.984,120.885Z" transform="translate(-23.863 -10.029)" fill="#3f3d56"/>
      <path id="Path_356" data-name="Path 356" d="M38.984,120.885c.779,5.467-.171,11.043-1.651,16.362a12.151,12.151,0,0,1-1.092,2.878,30.69,30.69,0,0,1-1.846,2.49,21.617,21.617,0,0,0-2.705,5.837,164.647,164.647,0,0,0-4.819,17.173,1.176,1.176,0,0,0,0,.733c.184.422.741.477,1.2.475L34,166.8c.211-.405-.18-.845-.422-1.233-.845-1.314-.034-3.02.712-4.395a47.249,47.249,0,0,0,4.177-10.559,28.631,28.631,0,0,1,1.394-4.589,46.08,46.08,0,0,1,3.058-4.948,41.445,41.445,0,0,0,2.891-6.109A39.581,39.581,0,0,0,48.666,126a35.813,35.813,0,0,0-.063-8.829.558.558,0,0,0-.646-.634l-7.951-.41c-1.639-.084-2.027-.443-1.778,1.166C38.4,118.5,38.811,119.669,38.984,120.885Z" transform="translate(-23.863 -10.029)" opacity="0.1"/>
      <path id="Path_357" data-name="Path 357" d="M40.546,107.592c-1.616,2.323-3.309,5-2.773,7.778.408,2.112,2.017,3.748,3.535,5.279,6.069,6.095,12.037,12.865,14.1,21.217.532,2.158.79,4.374,1.248,6.547a72.3,72.3,0,0,0,3.8,11.478L64.414,169.9a5.989,5.989,0,0,0,5.723-3.8,2.506,2.506,0,0,1-1.5-.965c-1.689-2.338-2.036-5.345-2.469-8.2-.479-3.151-1.119-6.276-1.761-9.4l-2.83-13.815c-.327-1.594-.655-3.191-1.081-4.76-1.651-6.088-4.781-11.826-5.265-18.121a4.256,4.256,0,0,0-.743-2.627,3.86,3.86,0,0,0-2.718-.9C47.813,107.047,44.4,106.66,40.546,107.592Z" transform="translate(-23.863 -10.029)" fill="#3f3d56"/>
      <path id="Path_358" data-name="Path 358" d="M29.876,165.484a6.306,6.306,0,0,0-1.314-.169,2.728,2.728,0,0,0-2.146,1.172,5.332,5.332,0,0,0-.577,1.267l-.572,1.643a1.827,1.827,0,0,0-.082,1.478,1.567,1.567,0,0,0,.769.6,14.22,14.22,0,0,0,4.456.8c1.466.144,2.919.4,4.365.674.5.093.995.188,1.5.239a17.865,17.865,0,0,0,3.392-.1l1.164-.112a4.189,4.189,0,0,0,1.145-.211,1.442,1.442,0,0,0,.845-.758,1.353,1.353,0,0,0-1.083-1.689c-.306-.061-.623-.034-.933-.074a4.409,4.409,0,0,1-1.022-.306,20.137,20.137,0,0,1-4.3-2.1c-.363-.256-.743-.612-.7-1.056a2.152,2.152,0,0,1,.188-.547,2,2,0,0,0,.017-1.413c-.072-.194-.211-.4-.408-.422-.558-.068-.49.745-.572,1.056-.112.422-.315.46-.712.422C32.148,165.757,31.007,165.7,29.876,165.484Z" transform="translate(-23.863 -10.029)" fill="#f2f2f2"/>
      <path id="Path_359" data-name="Path 359" d="M63.214,171.15a3.727,3.727,0,0,0,.807,2.27,1.765,1.765,0,0,0,.574.462,2.306,2.306,0,0,0,1.045.167,8.458,8.458,0,0,0,2.933-.593,8.385,8.385,0,0,1,1.014-.382,11.372,11.372,0,0,1,1.318-.19c1.746-.251,3.28-1.282,4.967-1.8a10.444,10.444,0,0,0,1.478-.486,6.775,6.775,0,0,0,1.738-1.358,3.112,3.112,0,0,0,1.14-2.876.547.547,0,0,0-.051-.3.444.444,0,0,0-.19-.15,2.757,2.757,0,0,0-1.689-.027,30.026,30.026,0,0,1-6.238.23.906.906,0,0,1-.959-.547L70.31,164.3c-.226-.363-.585-.779-.995-.655a.811.811,0,0,0-.448.845,4.514,4.514,0,0,1,.053,1.022,1.4,1.4,0,0,1-.676.878,4.315,4.315,0,0,1-1.056.405,8.109,8.109,0,0,0-3.423,1.561C63.113,168.975,63.174,170.337,63.214,171.15Z" transform="translate(-23.863 -10.029)" fill="#f2f2f2"/>
      <path id="Path_360" data-name="Path 360" d="M62.8,87.376a4.893,4.893,0,0,0,1.153-1.254,5.113,5.113,0,0,0,.492-1.734l.332-2.095a6.312,6.312,0,0,1,1.17-3.258,2.171,2.171,0,0,1,3.09-.325,2.71,2.71,0,0,1,.562,1.4,10.208,10.208,0,0,1-2.5,8.447c-.948,1.039-2.112,1.865-3.115,2.847-.874.845-1.632,1.814-2.439,2.733a33.667,33.667,0,0,1-6.646,5.807,29.825,29.825,0,0,0,0-4.817c-.171-1.128-.634-1.736.458-2.473A83.763,83.763,0,0,0,62.8,87.376Z" transform="translate(-23.863 -10.029)" fill="#fbbebe"/>
      <path id="Path_361" data-name="Path 361" d="M41.509,71.921a3.863,3.863,0,0,1-1.478,2.921q3.947,1.381,7.786,3.045A2.7,2.7,0,0,1,47.15,76a9.53,9.53,0,0,1,1.457-5.089,1.235,1.235,0,0,0,.239-.672c-.03-.5-.621-.729-1.107-.845a27.213,27.213,0,0,0-5.051-.733c-.729-.023-1.592-.253-1.428.674A10.2,10.2,0,0,1,41.509,71.921Z" transform="translate(-23.863 -10.029)" fill="#fbbebe"/>
      <circle id="Ellipse_91" data-name="Ellipse 91" cx="6.173" cy="6.173" r="6.173" transform="translate(16.563 50.149)" fill="#fbbebe"/>
      <path id="Path_362" data-name="Path 362" d="M52.71,83.023a7.468,7.468,0,0,0-.783-1.314,27.323,27.323,0,0,0-3.7-4.542,23.059,23.059,0,0,0-3.516-2.583,7.98,7.98,0,0,0-2.2-1.056,8.609,8.609,0,0,0-1.413-.192l-1.6-.131a1.311,1.311,0,0,0-.422.013.91.91,0,0,0-.541,1.088,2.676,2.676,0,0,0,.714,1.123c.072,3.271-1.383,6.5-1.58,9.765-.344,5.7,3.142,11.026,3.421,16.742a1.806,1.806,0,0,1-.08.767c-.046.118-.116.226-.169.342a3.342,3.342,0,0,0-.188,1.161,5.9,5.9,0,0,1-1.738,3.721,2.583,2.583,0,0,0,.98.748,17.671,17.671,0,0,0,2.194.524,17.034,17.034,0,0,0,5.721.978,5.047,5.047,0,0,0,.441-1.662c.275-.171.591.194.634.515s-.019.695.211.927a.869.869,0,0,0,.8.16,35.475,35.475,0,0,0,3.484-.817,6.5,6.5,0,0,1,3.533-.013.945.945,0,0,0-.055-1.035,4.622,4.622,0,0,1-.555-.948,2.129,2.129,0,0,1-.068-.623c0-1.806.372-3.63.019-5.4-.1-.52-.268-1.026-.374-1.548a13.35,13.35,0,0,1-.152-3.087c.027-1.033-.1-2.15-.118-3.2a10.2,10.2,0,0,0-.084-1.295c-.072-.45-.211-.889-.249-1.343-.114-1.153.351-2.3.281-3.455C55.437,85.6,53.395,84.643,52.71,83.023Z" transform="translate(-23.863 -10.029)" fill="#ff6584"/>
      <path id="Path_363" data-name="Path 363" d="M38.779,82.2a67.964,67.964,0,0,0-2.957,12.35l-1.689,9.811a47.474,47.474,0,0,0-.942,8.375,8.965,8.965,0,0,1-.156,2.357,12.729,12.729,0,0,1-1.451,2.745,9.034,9.034,0,0,0-.971,6.109c.173.876.646,1.871,1.535,1.972a2.127,2.127,0,0,0,1.789-1.1,14.171,14.171,0,0,0,1.9-4.669,105.614,105.614,0,0,0,2.929-16.28,15.85,15.85,0,0,1,.294-2.07,14.686,14.686,0,0,1,.714-2.061q.969-2.4,1.941-4.806a76.779,76.779,0,0,1,5.045-10.846c-2.027-.583-4.137-1.267-6.164-1.844A5.568,5.568,0,0,0,38.779,82.2Z" transform="translate(-23.863 -10.029)" fill="#fbbebe"/>
      <path id="Path_364" data-name="Path 364" d="M42.293,85.2a23.2,23.2,0,0,0-4.336-.247.936.936,0,0,1-.583-.152c-.294-.251-.169-.722-.021-1.079l.7-1.689a2.458,2.458,0,0,1,.562-.933,2.382,2.382,0,0,1,1.333-.452,12.073,12.073,0,0,1,4.616.18,5.521,5.521,0,0,1,3.565,2.762,1.88,1.88,0,0,1,.038,1.848c-.549.788-1.78,1.668-2.7,1.238A14.642,14.642,0,0,0,42.293,85.2Z" transform="translate(-23.863 -10.029)" fill="#ff6584"/>
      <path id="Path_365" data-name="Path 365" d="M49.838,56.763a6.234,6.234,0,0,0-3.438.99,7.55,7.55,0,0,0-7.412-1.736A4.314,4.314,0,1,0,34,61.012,7.55,7.55,0,1,0,48.48,65.254a6.757,6.757,0,0,0,1.354.137c2.978,0,5.394-1.932,5.394-4.314S52.812,56.763,49.838,56.763Z" transform="translate(-23.863 -10.029)" fill="#3f3d56"/>
      <path id="Path_366" data-name="Path 366" d="M50.913,63.233A6.568,6.568,0,0,1,49.56,63.1a7.512,7.512,0,0,1-.988,2.173,6.78,6.78,0,0,0,1.267.122c2.783,0,5.068-1.689,5.362-3.852A5.949,5.949,0,0,1,50.913,63.233Z" transform="translate(-23.863 -10.029)" opacity="0.1"/>
      <path id="Path_367" data-name="Path 367" d="M42.284,68.633a7.56,7.56,0,0,1-7.218-9.773A4.314,4.314,0,0,1,31.5,54.611a4.243,4.243,0,0,1,.07-.773,4.314,4.314,0,0,0,2.42,7.18,7.55,7.55,0,1,0,14.422,4.473,7.535,7.535,0,0,1-6.126,3.142Z" transform="translate(-23.863 -10.029)" opacity="0.1"/>
    </g>
  </g>
</svg>
