<svg xmlns="http://www.w3.org/2000/svg" xmlns:xlink="http://www.w3.org/1999/xlink" width="260" height="170" viewBox="0 0 260 170">
  <defs>
    <clipPath id="clip-path">
      <rect id="Rectangle_15" data-name="Rectangle 15" width="260" height="170" transform="translate(262 1377)" fill="#fff" stroke="#707070" stroke-width="1"/>
    </clipPath>
    <linearGradient id="linear-gradient" x1="0.5" y1="1" x2="0.5" gradientUnits="objectBoundingBox">
      <stop offset="0" stop-color="gray" stop-opacity="0.251"/>
      <stop offset="0.535" stop-color="gray" stop-opacity="0.122"/>
      <stop offset="1" stop-color="gray" stop-opacity="0.102"/>
    </linearGradient>
  </defs>
  <g id="_7" data-name="7" transform="translate(-262 -1377)" clip-path="url(#clip-path)">
    <g id="undraw_accept_request_vdsd" transform="translate(262 1385.807)">
      <circle id="Ellipse_92" data-name="Ellipse 92" cx="6.613" cy="6.613" r="6.613" transform="translate(149.464 13.536)" fill="none" stroke="#3f3d56" stroke-miterlimit="10" stroke-width="0.263"/>
      <path id="Path_368" data-name="Path 368" d="M197.4,49.851l-1.6-1.607a.849.849,0,0,0-1.206-.008L184.558,58.19l-4.244-4.278a.846.846,0,0,0-1.2-.008L177.5,55.5a.856.856,0,0,0-.008,1.206l6.446,6.5a.856.856,0,0,0,1.206.008l12.248-12.156a.849.849,0,0,0,.008-1.206Z" transform="translate(-27.843 -42.14)" fill="#ffc107"/>
      <rect id="Rectangle_85" data-name="Rectangle 85" width="119.915" height="13.668" rx="6.735" transform="translate(0 16.843)" fill="#f2f2f2"/>
      <rect id="Rectangle_86" data-name="Rectangle 86" width="119.915" height="13.668" rx="6.735" transform="translate(0.15 40.541)" fill="#f2f2f2"/>
      <rect id="Rectangle_87" data-name="Rectangle 87" width="119.915" height="13.668" rx="6.735" transform="translate(0.3 64.239)" fill="#f2f2f2"/>
      <rect id="Rectangle_88" data-name="Rectangle 88" width="119.915" height="13.668" rx="6.735" transform="translate(0.45 87.937)" fill="#f2f2f2"/>
      <rect id="Rectangle_89" data-name="Rectangle 89" width="119.915" height="13.668" rx="6.735" transform="translate(3.748 13.316)" fill="none" stroke="#3f3d56" stroke-miterlimit="10" stroke-width="0.263"/>
      <rect id="Rectangle_90" data-name="Rectangle 90" width="119.915" height="13.668" rx="6.735" transform="translate(3.898 37.014)" fill="none" stroke="#3f3d56" stroke-miterlimit="10" stroke-width="0.263"/>
      <rect id="Rectangle_91" data-name="Rectangle 91" width="119.915" height="13.668" rx="6.735" transform="translate(4.047 60.712)" fill="none" stroke="#3f3d56" stroke-miterlimit="10" stroke-width="0.263"/>
      <rect id="Rectangle_92" data-name="Rectangle 92" width="119.915" height="13.668" rx="6.735" transform="translate(4.197 84.41)" fill="none" stroke="#3f3d56" stroke-miterlimit="10" stroke-width="0.263"/>
      <circle id="Ellipse_93" data-name="Ellipse 93" cx="6.613" cy="6.613" r="6.613" transform="translate(149.464 37.345)" fill="none" stroke="#3f3d56" stroke-miterlimit="10" stroke-width="0.263"/>
      <circle id="Ellipse_94" data-name="Ellipse 94" cx="6.613" cy="6.613" r="6.613" transform="translate(149.464 61.153)" fill="none" stroke="#3f3d56" stroke-miterlimit="10" stroke-width="0.263"/>
      <circle id="Ellipse_95" data-name="Ellipse 95" cx="6.613" cy="6.613" r="6.613" transform="translate(149.464 84.961)" fill="none" stroke="#3f3d56" stroke-miterlimit="10" stroke-width="0.263"/>
      <path id="Path_369" data-name="Path 369" d="M197.4,73.88l-1.6-1.607a.849.849,0,0,0-1.205-.008l-10.038,9.954-4.244-4.278a.846.846,0,0,0-1.2-.008l-1.616,1.6a.856.856,0,0,0-.008,1.206l6.446,6.5a.856.856,0,0,0,1.206.008l12.248-12.156a.849.849,0,0,0,.008-1.206Z" transform="translate(-27.843 -42.14)" fill="#ffc107"/>
      <path id="Path_370" data-name="Path 370" d="M197.4,121.938l-1.6-1.607a.849.849,0,0,0-1.205-.008l-10.038,9.954L180.314,126a.846.846,0,0,0-1.2-.008l-1.616,1.6a.856.856,0,0,0-.008,1.206l6.446,6.5a.857.857,0,0,0,1.206.008l12.248-12.156a.849.849,0,0,0,.008-1.206Z" transform="translate(-27.843 -42.14)" fill="#ffc107"/>
      <ellipse id="Ellipse_96" data-name="Ellipse 96" cx="40.496" cy="6.311" rx="40.496" ry="6.311" transform="translate(172.302 139.765)" fill="#f2f2f2"/>
      <ellipse id="Ellipse_97" data-name="Ellipse 97" cx="40.496" cy="6.311" rx="40.496" ry="6.311" transform="translate(178.876 137.398)" fill="none" stroke="#3f3d56" stroke-miterlimit="10" stroke-width="0.263"/>
      <path id="Path_371" data-name="Path 371" d="M267.1,71.031q-.175-.2-.361-.389c.949-1.077,1.932-2.181,1.923-3.565-.011-1.682-1.5-2.972-2.06-4.562-.759-2.164.294-4.482.727-6.731a12.624,12.624,0,0,0-2.738-10.395,3.649,3.649,0,0,0-1.6-1.225c-.993-.313-2.049.122-3.083.25-3.414.422-6.52-2.52-9.951-2.257a1.85,1.85,0,0,0-.66.148,2.8,2.8,0,0,0-.959,1.084c-1.065,1.568-2.855,2.347-4.635,3.152a2.423,2.423,0,0,0-.633.29c-.535.249-1.061.508-1.558.8-3.361,1.989-2.874,4.773-.892,6.492-.387,1.93-2.36,3.63-2.021,5.614.267,1.556,1.886,2.614,2.2,4.162a4.177,4.177,0,0,1-.5,2.605c-3.761.87-8.01,2.473-8.342,5.3-.577,4.922-2.313,18.514-2.313,18.514s-2.012,10.891,5.632,5.742l-.1.29a63.352,63.352,0,0,0-2.806,12.837c-.077.649-.233,1.161-.516,1.328-.1.061.1.157.542.277-.05.183-.1.365-.152.549a52.168,52.168,0,0,0-1.6,9.722,68.382,68.382,0,0,1-1.2,8.659c-1.81,9.109,0,20.791,0,20.791l3.951,18.6.676,3.18a4.725,4.725,0,0,0,1.6,1.156,24.8,24.8,0,0,1,.549,3.462c.011.13.019.261.028.393a1.652,1.652,0,0,0-1.172.732c-1.408,1.98.2,3.564-5.23,7.524a5.169,5.169,0,0,0-2.252,2.744h0a1.847,1.847,0,0,0,.933,2h0a3.4,3.4,0,0,0,.38.213l.006,0q.1.048.2.091h0q.1.043.215.081l.013,0q.1.036.21.067l.015,0q.111.032.225.059l.02,0q.105.025.213.045l.028.005q.115.021.233.038l.026,0q.106.015.213.025l.041,0q.118.011.237.017h.031q.106.005.212.006h.05c.079,0,.159,0,.239,0h.032q.106,0,.213-.012l.056,0c.08-.007.16-.015.239-.024l.028,0q.107-.014.214-.031l.06-.01c.079-.014.159-.029.237-.046l.023-.005c.072-.016.144-.034.216-.052l.061-.016c.078-.021.156-.044.233-.068l.013,0c.073-.024.146-.049.219-.076l.058-.022c.076-.029.152-.059.227-.092,3.621-1.584,11.064-5.742,11.064-5.742v-.242c0-.021,0-.041,0-.064v-.061c0-.028,0-.055,0-.085s0-.043,0-.065,0-.062,0-.1q0-.082,0-.173h0c-.037-1.73-.208-5.705-1-5.55-.268.053-.451.43-.639.864l-.093-.177a16.73,16.73,0,0,1-1.984-6.5,11.624,11.624,0,0,0,1.71-1.517s-.4-1.7-.748-3.5a17.207,17.207,0,0,1-.459-3.828c.2-1.386-2.414-12.079-2.414-12.079s.27-2.352.811-5.622c1.052-6.354,3.124-16.174,6.216-18.95.072-.063.143-.125.215-.18,0,0,2.213.4,4.023,12.871l.525,5.556a32.246,32.246,0,0,0,.781,4.566,24.049,24.049,0,0,1,.5,7.3c-.229,3.275-.328,7.13-.37,9.837-.032,2.04-.032,3.43-.032,3.43a7.6,7.6,0,0,0,1.207.834v1.817a1.512,1.512,0,0,1-.423,1.033l-.007.008a2.8,2.8,0,0,0-.607,1.117,8.234,8.234,0,0,0-.773,3.31c-.4,5.346-.6,4.752-.6,4.752a7.051,7.051,0,0,0-.456,1.8h0c-.011.116-.019.232-.021.349,0,.018,0,.037,0,.055q0,.08,0,.16,0,.039,0,.078,0,.059.01.118t.013.106c0,.025.007.05.012.075q.012.071.029.141c0,.021.01.041.016.062.013.048.027.1.043.143.005.015.011.029.016.044q.024.064.052.126c.006.012.011.025.017.037.023.048.05.094.078.139l.024.037a1.485,1.485,0,0,0,.1.13l.025.029a1.442,1.442,0,0,0,.121.124l.014.012a1.476,1.476,0,0,0,.139.107l.022.016a1.611,1.611,0,0,0,.165.094l.034.017a1.829,1.829,0,0,0,.189.077l.034.011a2.177,2.177,0,0,0,.224.06h.008c.078.016.162.029.248.038l.036,0c.086.008.176.013.271.015h.053c.1,0,.195,0,.3-.009l.049,0c.111-.008.225-.02.346-.037,4.224-.594,6.236-.99,6.035-3.366-.121-1.432-.462-3.512-.713-4.938a7.426,7.426,0,0,0-.7-2.082q.016-.167.029-.344a7.558,7.558,0,0,0-.229-2.933l.093-1.734a5.527,5.527,0,0,0,2.724-1.633s.03-1.285.119-2.988a40.523,40.523,0,0,1,.887-7.7c.8-2.376,0-10.693,0-10.693s-3.017-14.257-.2-20.4a18.666,18.666,0,0,0,.073-16.11.814.814,0,0,0,.128-.126s-.6-.4-.4-4.95a26.093,26.093,0,0,0-1.355-8.57,20.969,20.969,0,0,0,2.361.848c4.627,1.386,5.029-3.762,5.029-3.762l1.006-7.723,1.193-11.511h0C268.98,75.929,269.419,73.674,267.1,71.031ZM246.65,63.4c-.006.127-.014.255-.027.381a5.123,5.123,0,0,1-.258,1.2,7.988,7.988,0,0,0,.25-1.606l.035.022Zm12.161,28.111c.072.131.139.258.2.383l-.508-.259a11.374,11.374,0,0,1,.907-2.7,19.1,19.1,0,0,0,1.23-3.108,31.032,31.032,0,0,0,.179,3.7C261.225,92.7,258.811,91.512,258.811,91.512Z" transform="translate(-27.843 -42.14)" fill="url(#linear-gradient)"/>
      <path id="Path_372" data-name="Path 372" d="M241.753,48.461a3.506,3.506,0,0,0-1.544,1.689c-.369,1.2.557,2.4.649,3.656.167,2.277-2.408,4.158-2.028,6.409.26,1.543,1.842,2.593,2.146,4.127.444,2.238-1.982,4.212-1.791,6.486a4.5,4.5,0,0,0,1.9,2.99,9.248,9.248,0,0,0,4.64,1.9c-.113-1.947-1.557-3.718-1.309-5.653.17-1.326,1.1-2.411,1.643-3.635.948-2.148.645-4.634.076-6.912s-1.39-4.53-1.431-6.878c-.025-1.413.638-3.49.152-4.831C244.264,46.184,242.854,47.709,241.753,48.461Z" transform="translate(-27.843 -42.14)" fill="#3f3d56"/>
      <path id="Path_373" data-name="Path 373" d="M241.753,48.515a3.506,3.506,0,0,0-1.544,1.689c-.369,1.2.557,2.4.649,3.656.167,2.277-2.408,4.158-2.028,6.409.26,1.543,1.842,2.593,2.146,4.127.444,2.238-1.982,4.212-1.791,6.486a4.5,4.5,0,0,0,1.9,2.99,9.248,9.248,0,0,0,4.64,1.9c-.113-1.947-1.557-3.718-1.309-5.653.17-1.326,1.1-2.411,1.643-3.635.948-2.148.645-4.634.076-6.912s-1.39-4.53-1.431-6.878c-.025-1.413.638-3.49.152-4.831C244.264,46.238,242.854,47.763,241.753,48.515Z" transform="translate(-27.843 -42.14)" opacity="0.1"/>
      <path id="Path_374" data-name="Path 374" d="M243.635,179.9l-1.767,1.767s-6.284,3.338-5.5-1.178a16.251,16.251,0,0,0,.135-4.061,25.24,25.24,0,0,0-1.117-5.561l5.891-1.178c-.98,3.079.634,6.956,1.642,8.929C243.326,179.409,243.635,179.9,243.635,179.9Z" transform="translate(-27.843 -42.14)" fill="#ffb9b9"/>
      <path id="Path_375" data-name="Path 375" d="M257.016,176.324a17.962,17.962,0,0,1-.224,1.8s-4.909,3.338-5.3-.393c-.255-2.431.322-3.529.758-4l.007-.007a1.512,1.512,0,0,0,.413-1.024v-4.4l4.32,1.375-.2,3.731A7.609,7.609,0,0,1,257.016,176.324Z" transform="translate(-27.843 -42.14)" fill="#ffb9b9"/>
      <path id="Path_376" data-name="Path 376" d="M243.635,179.9l-1.767,1.767s-6.284,3.338-5.5-1.178a16.251,16.251,0,0,0,.135-4.061c1.377-.2,3.006,1.312,3.006,1.312,2.3,3.248,2.922,2.019,3.409.878C243.326,179.409,243.635,179.9,243.635,179.9Z" transform="translate(-27.843 -42.14)" opacity="0.05"/>
      <path id="Path_377" data-name="Path 377" d="M239.511,178.129s-2.749-2.553-4.124-.589.2,3.535-5.106,7.462,0,6.48,3.535,4.909,10.8-5.695,10.8-5.695,0-6.48-.982-6.284S242.849,182.841,239.511,178.129Z" transform="translate(-27.843 -42.14)" fill="#3f3d56"/>
      <path id="Path_378" data-name="Path 378" d="M257.016,176.324a17.962,17.962,0,0,1-.224,1.8s-4.909,3.338-5.3-.393c-.255-2.431.322-3.529.758-4a1.173,1.173,0,0,1,1.206-.126c.785-.35,1.65.234,2.364.988A6.942,6.942,0,0,1,257.016,176.324Z" transform="translate(-27.843 -42.14)" opacity="0.05"/>
      <path id="Path_379" data-name="Path 379" d="M253.453,174s-2.16-1.178-2.553,4.124-.589,4.713-.589,4.713-1.964,4.713,2.16,4.124,6.088-.982,5.891-3.338c-.118-1.42-.451-3.483-.7-4.9a7.2,7.2,0,0,0-1.848-3.738C255.1,174.237,254.239,173.656,253.453,174Z" transform="translate(-27.843 -42.14)" fill="#3f3d56"/>
      <path id="Path_380" data-name="Path 380" d="M260.523,148.869s.785,8.248,0,10.6a40.8,40.8,0,0,0-.866,7.641c-.086,1.689-.116,2.963-.116,2.963-3.731,3.927-8.051,0-8.051,0s0-1.379.031-3.4c.041-2.684.137-6.508.361-9.756a24.217,24.217,0,0,0-.493-7.242,32.442,32.442,0,0,1-.762-4.528l-.513-5.51c-1.767-12.372-3.927-12.764-3.927-12.764-.071.055-.139.116-.21.179-3.018,2.753-5.041,12.491-6.068,18.793-.528,3.242-.791,5.575-.791,5.575s2.553,10.6,2.356,11.979a17.324,17.324,0,0,0,.448,3.8c.336,1.781.731,3.47.731,3.47-4.909,5.3-8.248,1.178-8.248,1.178l-.66-3.154-3.857-18.447s-1.767-11.586,0-20.619a68.843,68.843,0,0,0,1.172-8.587,52.491,52.491,0,0,1,1.565-9.642q.359-1.4.8-2.783a96.871,96.871,0,0,1,14.318-1.282c5.208,0,10.172.721,11.6,3.246q.495.872.9,1.748a18.809,18.809,0,0,1,.082,16.319C257.577,134.73,260.523,148.869,260.523,148.869Z" transform="translate(-27.843 -42.14)" fill="#3f3d56"/>
      <path id="Path_381" data-name="Path 381" d="M244.027,77.585s-10.408-10.6-2.553-9.819a5.281,5.281,0,0,0,3.786-.736,3.8,3.8,0,0,0,1.4-2.806,11.577,11.577,0,0,0-.67-4.509s10.6-8.444,8.444,2.16a18.076,18.076,0,0,0-.412,3.277c-.035,2.25.7,3.113,1.744,3.466,1.752.6,4.356-.24,5.542,1.7C263.468,73.854,244.027,77.585,244.027,77.585Z" transform="translate(-27.843 -42.14)" fill="#ffb9b9"/>
      <path id="Path_382" data-name="Path 382" d="M244.027,77.585s-10.408-10.6-2.553-9.819a5.281,5.281,0,0,0,3.786-.736,3.8,3.8,0,0,0,1.4-2.806,11.577,11.577,0,0,0-.67-4.509s10.6-8.444,8.444,2.16a18.076,18.076,0,0,0-.412,3.277c-.035,2.25.7,3.113,1.744,3.466,1.752.6,4.356-.24,5.542,1.7C263.468,73.854,244.027,77.585,244.027,77.585Z" transform="translate(-27.843 -42.14)" opacity="0.1"/>
      <path id="Path_383" data-name="Path 383" d="M259.737,56.77a8.444,8.444,0,0,1-16.888,0c0-.157,0-.314.014-.469a8.444,8.444,0,0,1,16.874.469Z" transform="translate(-27.843 -42.14)" fill="#ffb9b9"/>
      <path id="Path_384" data-name="Path 384" d="M244.027,77.585s-10.408-10.6-2.553-9.819a5.281,5.281,0,0,0,3.786-.736c-1.52,2.521-3.23,7.056,4.462,6.628,7.04-.391,6.92-3.2,6.044-5.039,1.752.6,4.356-.24,5.542,1.7C263.468,73.854,244.027,77.585,244.027,77.585Z" transform="translate(-27.843 -42.14)" opacity="0.05"/>
      <path id="Path_385" data-name="Path 385" d="M260.523,113.129c-1.787,2.323-24.566-.723-27.9-1.734q.359-1.4.8-2.783a96.871,96.871,0,0,1,14.318-1.282c5.208,0,10.172.721,11.6,3.246q.495.872.9,1.748C260.37,113.027,260.523,113.129,260.523,113.129Z" transform="translate(-27.843 -42.14)" opacity="0.1"/>
      <path id="Path_386" data-name="Path 386" d="M246.187,66s-13.255,1.08-13.844,6.186c-.563,4.881-2.258,18.361-2.258,18.361s-1.964,10.8,5.5,5.695l-.1.287a63.689,63.689,0,0,0-2.739,12.731c-.076.644-.228,1.151-.5,1.317-.982.589,26.314,4.517,28.278,1.964,0,0-.589-.393-.393-4.909a27.087,27.087,0,0,0-1.571-9.23,13.559,13.559,0,0,1,.589-9.23c2.16-4.517,1.375-5.891,1.375-5.891l7.462-5.695s1.612-2.763-1.335-6.173a10.206,10.206,0,0,0-7.014-3.456l-5.147-.366s5.641,6.067-4.964,6.656S246.187,66,246.187,66Z" transform="translate(-27.843 -42.14)" fill="#575a89"/>
      <path id="Path_387" data-name="Path 387" d="M237.351,76.8s.393,3.142-.393,4.124-.982,5.5,0,8.248" transform="translate(-27.843 -42.14)" opacity="0.05"/>
      <path id="Path_388" data-name="Path 388" d="M245.977,127.054c-3.018,2.753-5.041,12.491-6.068,18.793-1.43-8.772,4.511-23.292,4.511-23.292Z" transform="translate(-27.843 -42.14)" opacity="0.1"/>
      <path id="Path_389" data-name="Path 389" d="M242.653,170.666c-4.909,5.3-8.248,1.178-8.248,1.178l-.66-3.154c1.856.964,4.992,1.712,8.177-1.494C242.258,168.978,242.653,170.666,242.653,170.666Z" transform="translate(-27.843 -42.14)" opacity="0.1"/>
      <path id="Path_390" data-name="Path 390" d="M259.657,167.114c-.086,1.689-.116,2.963-.116,2.963-3.731,3.927-8.051,0-8.051,0s0-1.379.031-3.4A8.093,8.093,0,0,0,259.657,167.114Z" transform="translate(-27.843 -42.14)" opacity="0.1"/>
      <rect id="Rectangle_93" data-name="Rectangle 93" width="13.353" height="5.498" rx="0.986" transform="translate(210.489 41.337)" fill="#cdd0db"/>
      <rect id="Rectangle_94" data-name="Rectangle 94" width="13.353" height="5.498" rx="0.986" transform="translate(210.489 41.337)" opacity="0.05"/>
      <rect id="Rectangle_95" data-name="Rectangle 95" width="13.353" height="5.498" rx="0.986" transform="translate(210.489 41.533)" fill="#3f3d56"/>
      <circle id="Ellipse_98" data-name="Ellipse 98" cx="0.589" cy="0.589" r="0.589" transform="translate(220.406 43.595)" fill="#9da7c0"/>
      <path id="Path_391" data-name="Path 391" d="M232.649,92.184a3.819,3.819,0,0,1,2.218-2.337,3.482,3.482,0,0,0,1.9-1.71c.774-1.714,2.149-3.482,5.684-2.3s-.982,1.964-.982,1.964,8.051-1.178,4.909,1.178a30.076,30.076,0,0,1-7.069,3.731l-1.934,2.048a2.89,2.89,0,0,1-4.317-.086,2.5,2.5,0,0,1-.414-2.484Z" transform="translate(-27.843 -42.14)" opacity="0.05"/>
      <path id="Path_392" data-name="Path 392" d="M232.453,91.791a3.819,3.819,0,0,1,2.218-2.337,3.482,3.482,0,0,0,1.9-1.71c.775-1.714,2.149-3.482,5.684-2.3s-.982,1.964-.982,1.964,8.051-1.178,4.909,1.178a30.076,30.076,0,0,1-7.069,3.731l-1.934,2.048a2.89,2.89,0,0,1-4.317-.086A2.5,2.5,0,0,1,232.453,91.791Z" transform="translate(-27.843 -42.14)" fill="#ffb9b9"/>
      <path id="Path_393" data-name="Path 393" d="M260.13,95.848l-1.375,3.338L257,97.892l-4.917-3.615-3.338-2.16c-4.713-3.535,0-4.124,0-4.124-1.767-.785,0-1.571,0-1.571,6.284-1.375,5.106,3.731,5.106,3.731l3.98,2.064,1.322.685Z" transform="translate(-27.843 -42.14)" opacity="0.05"/>
      <path id="Path_394" data-name="Path 394" d="M260.523,95.455l-1.375,3.338-1.76-1.294-4.917-3.615-3.338-2.16c-4.713-3.535,0-4.124,0-4.124-1.767-.785,0-1.571,0-1.571,6.284-1.375,5.106,3.731,5.106,3.731l3.98,2.064,1.322.685Z" transform="translate(-27.843 -42.14)" fill="#ffb9b9"/>
      <path id="Path_395" data-name="Path 395" d="M260.523,95.455l-1.375,3.338-1.76-1.294c1.593.057,3.474-.713.831-5.675l1.322.685Z" transform="translate(-27.843 -42.14)" opacity="0.05"/>
      <path id="Path_396" data-name="Path 396" d="M267.789,75.621l.379,1.545L267,88.582l-.982,7.659s-.393,5.106-4.909,3.731-4.909-2.749-4.909-2.749,6.48,2.16,2.356-5.5c0,0,2.356,1.178,1.964-1.964a58.738,58.738,0,0,1,0-8.64Z" transform="translate(-27.843 -42.14)" fill="#575a89"/>
      <path id="Path_397" data-name="Path 397" d="M259.737,56.77a8.445,8.445,0,0,1-6.576,8.236,4.273,4.273,0,0,1-.277-2.457c.4-1.6,2.25-2.775,2.044-4.414a1.088,1.088,0,0,0-.187-.515c-.414-.546-1.259-.275-1.93-.139a3.673,3.673,0,0,1-4.108-2.533,5.739,5.739,0,0,1-5.84,1.353,8.444,8.444,0,0,1,16.874.469Z" transform="translate(-27.843 -42.14)" opacity="0.05"/>
      <path id="Path_398" data-name="Path 398" d="M248.9,54.555a3.67,3.67,0,0,0,4.106,2.532c.672-.134,1.516-.405,1.931.141a1.061,1.061,0,0,1,.186.513c.208,1.641-1.644,2.81-2.043,4.416-.411,1.653.793,3.249,1.05,4.933a20.046,20.046,0,0,1,0,2.791,3.444,3.444,0,0,0,.91,2.558,1.637,1.637,0,0,0,2.43-.177c2.21,1.168,1.327,4.787,3.005,6.639a4.527,4.527,0,0,0,3.82,1.136,1.611,1.611,0,0,0,.9-.29,1.56,1.56,0,0,0,.439-.826,6.7,6.7,0,0,0-.171-3.972,4.152,4.152,0,0,1-.454-1.87,2.769,2.769,0,0,1,.681-1.335c1.055-1.308,2.495-2.573,2.484-4.253s-1.467-2.948-2.011-4.525c-.741-2.146.287-4.445.71-6.676A12.664,12.664,0,0,0,264.2,45.982a3.57,3.57,0,0,0-1.562-1.215c-.969-.31-2,.121-3.009.247-3.333.418-6.365-2.5-9.714-2.238a1.782,1.782,0,0,0-.645.147A2.762,2.762,0,0,0,248.335,44c-1.478,2.21-4.385,2.84-6.663,4.21C235.018,52.21,243.811,59.453,248.9,54.555Z" transform="translate(-27.843 -42.14)" fill="#3f3d56"/>
      <path id="Path_399" data-name="Path 399" d="M233.816,189.125c-2.295,1.02-5.334.3-5.733-1.4-.481,2.25,3.111,3.354,5.733,2.188,3.535-1.571,10.8-5.695,10.8-5.695s0-.305-.01-.78C244.395,183.556,237.3,187.578,233.816,189.125Z" transform="translate(-27.843 -42.14)" fill="#fff" opacity="0.3"/>
      <path id="Path_400" data-name="Path 400" d="M258.352,183.514c-.226,1.767-2.186,2.138-5.881,2.666-1.879.268-2.493-.565-2.605-1.55-.123,1.263.236,2.674,2.605,2.336,4.124-.589,6.088-.982,5.891-3.338C258.36,183.59,258.356,183.552,258.352,183.514Z" transform="translate(-27.843 -42.14)" fill="#fff" opacity="0.3"/>
      <g id="Group_79" data-name="Group 79" opacity="0.1">
        <path id="Path_401" data-name="Path 401" d="M265.083,79.171a4.527,4.527,0,0,1-3.82-1.136c-1.678-1.852-.8-5.471-3.005-6.639a1.637,1.637,0,0,1-2.43.177,3.444,3.444,0,0,1-.91-2.558,20.044,20.044,0,0,0,0-2.791c-.256-1.684-1.46-3.28-1.05-4.933.4-1.605,2.251-2.775,2.043-4.416a1.061,1.061,0,0,0-.186-.513c-.414-.546-1.258-.275-1.931-.141a3.67,3.67,0,0,1-4.106-2.532c-4.549,4.378-12.056-.944-8.846-4.981-5.009,4.071,3.209,10.436,8.061,5.767a3.67,3.67,0,0,0,4.106,2.532c.672-.134,1.516-.405,1.931.141a1.061,1.061,0,0,1,.186.513c.208,1.641-1.644,2.81-2.043,4.416-.411,1.653.793,3.249,1.05,4.933a20.046,20.046,0,0,1,0,2.791,3.444,3.444,0,0,0,.91,2.558,1.637,1.637,0,0,0,2.43-.177c2.21,1.168,1.327,4.787,3.005,6.639a4.527,4.527,0,0,0,3.82,1.136,1.611,1.611,0,0,0,.9-.29,1.28,1.28,0,0,0,.362-.575,2.753,2.753,0,0,1-.475.079Z" transform="translate(-27.843 -42.14)"/>
        <path id="Path_402" data-name="Path 402" d="M249.121,43.134c.067-.1.133-.206.2-.31-.016.007-.033.012-.049.02a2.762,2.762,0,0,0-.936,1.076q-.138.207-.293.4a5.614,5.614,0,0,0,1.078-1.181Z" transform="translate(-27.843 -42.14)"/>
      </g>
      <path id="Path_403" data-name="Path 403" d="M238.333,98.068s-.508,1.767,2.83,2.553S238.333,98.068,238.333,98.068Z" transform="translate(-27.843 -42.14)" opacity="0.1"/>
      <path id="Path_404" data-name="Path 404" d="M236.871,103.3s-1.7,1.244,2.407,3.4S236.871,103.3,236.871,103.3Z" transform="translate(-27.843 -42.14)" opacity="0.1"/>
      <path id="Path_405" data-name="Path 405" d="M233.046,124.055s4.627-1.309,5.259-3.273S233.046,124.055,233.046,124.055Z" transform="translate(-27.843 -42.14)" opacity="0.1"/>
      <path id="Path_406" data-name="Path 406" d="M233.046,148.929a7.966,7.966,0,0,0,3.255.851C237.563,149.649,233.046,148.929,233.046,148.929Z" transform="translate(-27.843 -42.14)" opacity="0.1"/>
      <path id="Path_407" data-name="Path 407" d="M233.745,151.678a6.676,6.676,0,0,0,2.556.524C237.955,152.267,233.745,151.678,233.745,151.678Z" transform="translate(-27.843 -42.14)" opacity="0.1"/>
      <path id="Path_408" data-name="Path 408" d="M267.592,159.211a4.083,4.083,0,1,0,.544-7.832l.1,2.1-.994-1.8a4.068,4.068,0,0,0-2.1,2.3,4,4,0,0,0-.235,1.1,4.083,4.083,0,0,0,2.68,4.126Z" transform="translate(-27.843 -42.14)" fill="#57b894"/>
      <path id="Path_409" data-name="Path 409" d="M272.512,183.588c-.351-1.787,1.17-3.372,2.672-4.4s3.258-2.042,3.771-3.79c.737-2.512-1.458-4.813-3.166-6.8a24.585,24.585,0,0,1-3.242-4.818,6.634,6.634,0,0,1-.775-2.191,7.561,7.561,0,0,1,.583-3.284q1.8-5.308,3.851-10.526" transform="translate(-27.843 -42.14)" fill="none" stroke="#3f3d56" stroke-miterlimit="10" stroke-width="0.263"/>
      <path id="Path_410" data-name="Path 410" d="M267.76,158.67a4.083,4.083,0,1,0,.544-7.832l.1,2.1-.994-1.8a4.068,4.068,0,0,0-2.1,2.3,4.005,4.005,0,0,0-.235,1.1A4.083,4.083,0,0,0,267.76,158.67Z" transform="translate(-27.843 -42.14)" fill="none" stroke="#3f3d56" stroke-miterlimit="10" stroke-width="0.263"/>
      <path id="Path_411" data-name="Path 411" d="M272.013,147.054a4.079,4.079,0,0,1,2.939-2.589l.336,2,.623-2.1a4.083,4.083,0,1,1-3.9,2.69Z" transform="translate(-27.843 -42.14)" fill="#57b894"/>
      <path id="Path_412" data-name="Path 412" d="M272.237,146.332a4.079,4.079,0,0,1,2.939-2.589l.336,2,.623-2.1a4.083,4.083,0,1,1-3.9,2.69Z" transform="translate(-27.843 -42.14)" fill="none" stroke="#3f3d56" stroke-miterlimit="10" stroke-width="0.263"/>
      <path id="Path_413" data-name="Path 413" d="M275.073,168.639a4.083,4.083,0,0,0,3.614-7.264l-.479,1.613-.34-2.022-.01,0a4.083,4.083,0,1,0-2.785,7.677Z" transform="translate(-27.843 -42.14)" fill="#57b894"/>
      <path id="Path_414" data-name="Path 414" d="M275.267,167.908a4.083,4.083,0,0,0,3.614-7.264l-.479,1.613-.34-2.022-.01,0a4.083,4.083,0,0,0-2.785,7.677Z" transform="translate(-27.843 -42.14)" fill="none" stroke="#3f3d56" stroke-miterlimit="10" stroke-width="0.263"/>
      <path id="Path_415" data-name="Path 415" d="M270.822,175.42a4.081,4.081,0,1,0,.787-3.2l1.819,2.738-2.486-1.453A4.045,4.045,0,0,0,270.822,175.42Z" transform="translate(-27.843 -42.14)" fill="#57b894"/>
      <path id="Path_416" data-name="Path 416" d="M270.99,174.879a4.081,4.081,0,1,0,.787-3.2l1.819,2.738-2.486-1.453A4.045,4.045,0,0,0,270.99,174.879Z" transform="translate(-27.843 -42.14)" fill="none" stroke="#3f3d56" stroke-miterlimit="10" stroke-width="0.263"/>
      <path id="Path_417" data-name="Path 417" d="M266.843,186.009a35.557,35.557,0,0,0,4.689-2.185c1.086-.773,5.543-1.7,5.812-.456s5.415,6.168,1.347,6.2-9.453.667-10.537.007S266.843,186.009,266.843,186.009Z" transform="translate(-27.843 -42.14)" fill="#656380"/>
      <path id="Path_418" data-name="Path 418" d="M278.764,189.136c-4.068.033-9.453.667-10.537.007-.825-.5-1.154-2.307-1.264-3.139l-.12,0s.228,2.906,1.312,3.566,6.468.026,10.537-.007c1.174-.009,1.58-.427,1.558-1.046C280.086,188.9,279.638,189.129,278.764,189.136Z" transform="translate(-27.843 -42.14)" opacity="0.2"/>
    </g>
  </g>
</svg>
