<svg xmlns="http://www.w3.org/2000/svg" xmlns:xlink="http://www.w3.org/1999/xlink" width="260" height="170" viewBox="0 0 260 170">
  <defs>
    <clipPath id="clip-path">
      <rect id="Rectangle_15" data-name="Rectangle 15" width="260" height="170" transform="translate(262 1377)" fill="#fff" stroke="#707070" stroke-width="1"/>
    </clipPath>
  </defs>
  <g id="_8" data-name="8" transform="translate(-262 -1377)" clip-path="url(#clip-path)">
    <g id="undraw_fingerprint_swrc" transform="translate(295.496 1377)">
      <path id="Path_420" data-name="Path 420" d="M194.244,73.644c-9.179-36.093-40.895-62.148-78.122-63.193C96.441,9.9,75.731,16.426,60.652,39.268,33.7,80.1,62.309,108.315,82.255,121.723a124.81,124.81,0,0,1,25.8,23.187c13.473,15.988,39.393,35.856,70.262,4.726C200.689,127.074,200.358,97.686,194.244,73.644Z" transform="translate(-30.722 -10.42)" fill="#f2f2f2"/>
      <ellipse id="Ellipse_99" data-name="Ellipse 99" cx="96.48" cy="4.877" rx="96.48" ry="4.877" transform="translate(0 150.068)" fill="#3f3d56"/>
      <ellipse id="Ellipse_100" data-name="Ellipse 100" cx="37.753" cy="1.908" rx="37.753" ry="1.908" transform="translate(117.501 161.094)" fill="#3f3d56"/>
      <ellipse id="Ellipse_101" data-name="Ellipse 101" cx="37.753" cy="1.908" rx="37.753" ry="1.908" transform="translate(46.228 166.183)" fill="#3f3d56"/>
      <path id="Path_421" data-name="Path 421" d="M175.2,84.67s6.413-.094,5.047,1.835-6.668,1.794-6.668,1.794Z" transform="translate(-30.722 -10.42)" fill="#ffb9b9"/>
      <path id="Path_422" data-name="Path 422" d="M155.476,60.888l6.491,8.812,5.612,6.7s5.814,6.065,6.463,6.9,2.554.6,2.148,1.877-1.011,3.408-1.644,3.629-3.607-.159-3.826-.58S156.6,79.958,151.643,74.3l-4.721-3.2-.071-5.421Z" transform="translate(-30.722 -10.42)" fill="#001383"/>
      <path id="Path_423" data-name="Path 423" d="M155.476,60.888l6.491,8.812,5.612,6.7s5.814,6.065,6.463,6.9,2.554.6,2.148,1.877-1.011,3.408-1.644,3.629-3.607-.159-3.826-.58S156.6,79.958,151.643,74.3l-4.721-3.2-.071-5.421Z" transform="translate(-30.722 -10.42)" fill="#ff6584"/>
      <path id="Path_424" data-name="Path 424" d="M155.476,60.888l6.491,8.812,5.612,6.7s5.814,6.065,6.463,6.9,2.554.6,2.148,1.877-1.011,3.408-1.644,3.629-3.607-.159-3.826-.58S156.6,79.958,151.643,74.3l-4.721-3.2-.071-5.421Z" transform="translate(-30.722 -10.42)" opacity="0.1"/>
      <path id="Path_425" data-name="Path 425" d="M158.16,56.8l1.349,3.181h1.2l-1.7-8.058c0-5.172-2.5-9.542-7.668-9.542h0a6.539,6.539,0,0,0-6.539,6.539v7.9a3.159,3.159,0,0,0,3.159,3.159h9.273Z" transform="translate(-30.722 -10.42)" fill="#2f2e41"/>
      <path id="Path_426" data-name="Path 426" d="M136.214,138.117s-1.908,2.545-1.908,3.181-1.06.848-1.7,1.484-1.272.424-.848,1.06-5.3,4.453-5.3,4.453l-5.513,7.209,1.484,1.272,4.241-4.453-.636,7.846,5.937,5.513s2.545.424,2.757,0-2.12-4.665-2.12-4.665.212-3.817,1.484-5.3a21.632,21.632,0,0,0,2.12-2.969s-.636-.848.848-1.06.424-1.484.424-1.484a4.335,4.335,0,0,1,1.7-.212c1.272,0,7-6.149,7-6.149Z" transform="translate(-30.722 -10.42)" fill="#2f2e41"/>
      <path id="Path_427" data-name="Path 427" d="M159.963,144.69s-.848,2.969.636,4.665,0,1.272,0,1.272a2.137,2.137,0,0,1-.636,1.908,2.623,2.623,0,0,0-.848,1.908,7.526,7.526,0,0,0-.848,3.393c.212,1.272.212,7.634.212,7.634h2.12v-5.513l4.241,5.513h10.6a1.693,1.693,0,0,0-1.272-1.272c-1.06-.212-4.241,0-4.877-4.453,0,0-.212-2.545-.636-2.969a3.352,3.352,0,0,1-.424-2.969c.424-1.06,0-1.484.636-1.908a1.936,1.936,0,0,0,.424-2.332c-.424-.636-1.7-1.7-.212-2.332s1.484-3.817,1.484-3.817Z" transform="translate(-30.722 -10.42)" fill="#2f2e41"/>
      <path id="Path_428" data-name="Path 428" d="M145.968,93.8s-2.332,1.908.636,9.754a92.969,92.969,0,0,1,4.241,18.024s-2.969,2.545-2.969,3.817-13.147,9.33-12.3,12.935,16.327,10.39,17.812,9.966,8.694-20.78,8.694-20.78-2.757-22.477-2.969-22.689-6.573-10.6-6.573-10.6l-3.817-7.846Z" transform="translate(-30.722 -10.42)" fill="#2f2e41"/>
      <path id="Path_429" data-name="Path 429" d="M145.968,93.8s-2.332,1.908.636,9.754a92.969,92.969,0,0,1,4.241,18.024s-2.969,2.545-2.969,3.817-13.147,9.33-12.3,12.935,16.327,10.39,17.812,9.966,8.694-20.78,8.694-20.78-2.757-22.477-2.969-22.689-6.573-10.6-6.573-10.6l-3.817-7.846Z" transform="translate(-30.722 -10.42)" opacity="0.1"/>
      <path id="Path_430" data-name="Path 430" d="M145.756,88.923a16.767,16.767,0,0,0,2.332,12.511c4.029,6.361,8.694,19.508,8.694,19.508s4.453,13.783,2.545,23.749c0,0-.636,1.272,1.06,1.272s19.508-.424,18.024-4.877-8.058-25.233-8.058-25.233L161.871,94.86l-.424-6.361-3.181-4.877h-6.573Z" transform="translate(-30.722 -10.42)" fill="#2f2e41"/>
      <path id="Path_431" data-name="Path 431" d="M116.093,95.284s-6.414,0-5.02,1.908,6.693,1.7,6.693,1.7Z" transform="translate(-30.722 -10.42)" fill="#ffb9b9"/>
      <path id="Path_432" data-name="Path 432" d="M149.679,51.5s.424,2.969-1.06,3.393,5.937,3.6,5.937,3.6,1.484-5.089,2.12-5.725S149.679,51.5,149.679,51.5Z" transform="translate(-30.722 -10.42)" fill="#ffb9b9"/>
      <path id="Path_433" data-name="Path 433" d="M149.679,51.5s.424,2.969-1.06,3.393,5.937,3.6,5.937,3.6,1.484-5.089,2.12-5.725S149.679,51.5,149.679,51.5Z" transform="translate(-30.722 -10.42)" opacity="0.1"/>
      <path id="Path_434" data-name="Path 434" d="M155.616,56.374s-6.573-1.908-6.785-2.545-1.7.848-2.332,1.908-1.908,2.332-2.545,2.332-5.3,2.757-6.361,7.634a9.917,9.917,0,0,1-1.817,4.285,4.091,4.091,0,0,0-.823,2.121.206.206,0,0,1-.116.168c-.424.212,8.906,9.118,8.906,9.118s3.6-.848,4.241,0-.424,2.332-1.06,3.181-2.12,5.089-1.272,5.725,5.3-5.725,7.846-4.453a6.628,6.628,0,0,0,5.089.212s1.06,3.393,2.757,3.393,2.12-2.757,1.484-3.6-3.181-2.545-1.908-4.877,1.7-6.573,1.7-6.573,3.393-4.029-2.757-8.906c0,0-2.12-5.937-2.757-6.361s-1.7-.636-1.7-1.06S155.616,56.374,155.616,56.374Z" transform="translate(-30.722 -10.42)" fill="#ff6584"/>
      <path id="Path_435" data-name="Path 435" d="M135.472,71.217l-6.361,8.906L123.6,86.908s-5.725,6.149-6.361,7-2.545.636-2.12,1.908,1.06,3.393,1.7,3.6,3.6-.212,3.817-.636S134.624,90.3,139.5,84.576l4.673-3.273-.008-5.421Z" transform="translate(-30.722 -10.42)" fill="#ff6584"/>
      <path id="Path_436" data-name="Path 436" d="M148.32,81.624l12.291.392a.534.534,0,0,1,.518.533v.2a.534.534,0,0,1-.558.533L148.28,82.69a.534.534,0,0,1-.51-.533h0a.534.534,0,0,1,.55-.533Z" transform="translate(-30.722 -10.42)" fill="#2f2e41"/>
      <ellipse id="Ellipse_102" data-name="Ellipse 102" cx="0.212" cy="1.166" rx="0.212" ry="1.166" transform="translate(129.983 71.188)" fill="#2f2e41"/>
      <circle id="Ellipse_103" data-name="Ellipse 103" cx="5.937" cy="5.937" r="5.937" transform="translate(117.26 32.596)" fill="#ffb9b9"/>
      <path id="Path_437" data-name="Path 437" d="M156.4,42.663a24.974,24.974,0,0,0-4.277-.284A7.322,7.322,0,0,0,144.8,49.7l-2.757,10.277h5.366l1-3.817,1.414,3.817h2.7l.232-2.294.914,2.294h3.009c-2.253-5.1-3.452-9.746-.492-12.614,2,.272,3.685-.263,3.96-1.347C160.461,44.769,158.785,43.267,156.4,42.663Z" transform="translate(-30.722 -10.42)" fill="#2f2e41"/>
      <path id="Path_438" data-name="Path 438" d="M156.209,58.889" transform="translate(-30.722 -10.42)" fill="#2f2e41"/>
      <path id="Path_439" data-name="Path 439" d="M37.7,78.978a2.971,2.971,0,0,1-2.587-4.453C38.886,68.164,50.358,53.3,75.421,53.3c10.857,0,20.377,2.884,28.287,8.567a47.99,47.99,0,0,1,11.9,12.489,2.947,2.947,0,0,1-.785,4.114,3.016,3.016,0,0,1-4.156-.785c-3.159-4.58-12.744-18.49-35.242-18.49-21.968,0-31.891,12.807-35.136,18.3A2.927,2.927,0,0,1,37.7,78.978Z" transform="translate(-30.722 -10.42)" fill="#001383"/>
      <path id="Path_440" data-name="Path 440" d="M88.038,137.163a2.954,2.954,0,0,1-.742-.085c-18.172-4.559-24.958-22.922-25.233-23.685l-.042-.17c-.148-.53-3.8-13.125,1.8-20.5,2.566-3.371,6.467-5.089,11.62-5.089,4.792,0,8.248,1.506,10.623,4.623,1.951,2.545,2.735,5.683,3.5,8.715,1.59,6.3,2.735,9.606,9.351,9.945a6.829,6.829,0,0,0,5.895-3.032c2.926-3.986,3.435-10.5,1.23-16.221-2.841-7.422-12.892-21.4-30.619-21.4a31.086,31.086,0,0,0-20.1,7.082,32.633,32.633,0,0,0-10.051,14.8c-3.265,10.348,1.018,26.611,1.06,26.76a2.941,2.941,0,0,1-2.12,3.6,3.012,3.012,0,0,1-3.668-2.1c-.191-.742-4.771-18.087-1-30.047A37.686,37.686,0,0,1,99.53,73.1a41.37,41.37,0,0,1,12.086,16.412c2.926,7.634,2.142,16.2-1.993,21.8A12.7,12.7,0,0,1,98.6,116.785c-11.323-.573-13.359-8.567-14.843-14.4-1.527-5.98-2.5-8.863-8.333-8.863-3.2,0-5.45.891-6.849,2.735-1.908,2.523-2.057,6.467-1.845,9.33l.006.09a24.158,24.158,0,0,0,3.225,10.327c2.944,5.076,8.914,12.859,18.821,15.347a2.946,2.946,0,0,1,2.163,3.584,3.01,3.01,0,0,1-2.905,2.226Z" transform="translate(-30.722 -10.42)" fill="#001383"/>
      <path id="Path_441" data-name="Path 441" d="M64.713,135.806a3.019,3.019,0,0,1-2.184-.933,47.636,47.636,0,0,1-12.935-27.142v-.064c-.869-7.146.4-17.26,6.637-24.215,4.6-5.131,11.069-7.74,19.19-7.74,9.606,0,17.154,4.517,21.862,13.041A36.656,36.656,0,0,1,101.4,101.37a3,3,0,1,1-5.959.615,30.694,30.694,0,0,0-3.5-10.539c-3.647-6.51-9.2-9.818-16.539-9.818-6.34,0-11.3,1.93-14.716,5.746-4.919,5.492-5.874,13.952-5.2,19.55a41.815,41.815,0,0,0,11.387,23.918,2.933,2.933,0,0,1-.148,4.177,3.008,3.008,0,0,1-2.014.785Z" transform="translate(-30.722 -10.42)" fill="#001383"/>
      <circle id="Ellipse_104" data-name="Ellipse 104" cx="3.817" cy="3.817" r="3.817" transform="translate(40.924 90.06)" fill="#001383"/>
    </g>
  </g>
</svg>
